<svg width="64" height="56" viewBox="0 0 64 56" fill="none" xmlns="http://www.w3.org/2000/svg">
<path d="M45.7245 0L51.6425 10.2289L45.085 21.5609H58.14L64 31.7318H27.4471L45.7245 0Z" fill="#FF7300"/>
<path d="M0 31.7318L5.85997 21.5609H18.915L12.4155 10.2289L18.2754 0L36.6108 31.7318H0Z" fill="#FF7300"/>
<path d="M38.5295 55.5605L32.0299 44.2286L25.4725 55.5605H13.6946L32.0299 23.8288L50.3074 55.5605H38.5295Z" fill="black"/>
<path d="M54.2546 53.0027H53.3252V55.5589H52.9255V53.0027H51.9921V52.7124H54.1906V53.0027H54.2546Z" fill="black"/>
<path d="M55.5897 52.6544L56.519 55.0364L57.4484 52.6544H57.97V55.5609H57.5703V54.4559L57.6282 53.2348L56.6989 55.5589H56.4091L55.4797 53.2348L55.5377 54.4559V55.5609H55.138V52.6544H55.5897Z" fill="black"/>
</svg>
