<svg width="271" height="30" viewBox="0 0 271 30" fill="none" xmlns="http://www.w3.org/2000/svg">
<path d="M52.8985 7.9C51.2802 6.3 49.3584 5.5 46.9309 5.5H46.8298C45.3126 5.5 43.9977 5.9 42.6828 6.6C41.3679 7.3 40.3565 8.3 39.6485 9.6C38.9405 10.9 38.5359 12.3 38.5359 13.8C38.5359 16.1 39.345 18 40.9634 19.6C42.5817 21.2 44.6046 22 46.9309 22C49.2573 22 51.2802 21.2 52.8985 19.6C54.5168 18 55.326 16 55.326 13.7C55.326 11.4 54.5168 9.5 52.8985 7.9V7.9ZM50.2687 19.6C49.2573 20.2 48.1447 20.5 46.8298 20.5C45.0092 20.5 43.3909 19.9 42.076 18.6C40.7611 17.3 40.1542 15.7 40.1542 13.9C40.1542 12.6 40.4576 11.5 41.0645 10.5C41.6714 9.5 42.4805 8.7 43.492 8.1C44.5034 7.5 45.616 7.2 46.8298 7.2C48.0435 7.2 49.1561 7.5 50.1676 8.1C51.2802 8.7 52.0893 9.5 52.595 10.5C53.2019 11.5 53.5054 12.6 53.5054 13.9C53.5054 15.2 53.2019 16.3 52.595 17.3C52.1905 18.2 51.3813 19 50.2687 19.6V19.6Z" fill="black"/>
<path d="M30.3423 6.50001H28.5217L24.1725 17.4L19.8232 5.70001L15.1705 17.4L11.2259 6.50001H9.40527L15.0694 21.8L19.7221 10.1L24.1725 21.8L29.7354 8.00001M37.2202 14.5C36.5121 13.9 35.703 13.4 34.8938 13.1L34.4892 12.9L34.0847 12.7C33.3767 12.3 32.6686 12 32.2641 11.6C31.7583 11.3 31.556 10.9 31.556 10.2C31.556 9.60001 31.7583 9.00001 32.2641 8.60001C32.7698 8.20001 33.3767 8.00001 34.0847 8.00001C34.5904 8.00001 34.8938 8.10001 35.2984 8.30001C35.6018 8.50001 35.9053 8.80001 36.2087 9.20001L36.411 9.40001L36.6133 9.60001L37.9282 8.80001C37.5236 8.10001 37.0179 7.50001 36.3099 7.10001C35.703 6.70001 34.995 6.50001 34.287 6.50001C33.0732 6.50001 31.9606 6.90001 31.2526 7.60001C30.4434 8.30001 30.0389 9.20001 30.0389 10.3C30.0389 11.3 30.4434 12.1 31.1515 12.7C31.8595 13.3 32.6686 13.7 33.4778 14.1L33.5789 14.2L33.8824 14.3C34.6915 14.7 35.3996 15.1 35.9053 15.5C36.5121 15.9 36.7144 16.4 36.7144 17.2C36.7144 18 36.411 18.8 35.9053 19.3C35.2984 19.9 34.5904 20.1 33.7812 20.1C32.9721 20.1 32.3652 19.9 31.8595 19.4C31.3537 18.9 31.0503 18.3 30.848 17.4L29.8366 17.7L29.2297 17.9C29.3308 18.5 29.5331 19 29.8366 19.5C30.14 20 30.4434 20.4 30.848 20.7C31.6572 21.3 32.6686 21.7 33.8824 21.7C35.1973 21.7 36.2087 21.3 37.119 20.4C38.0293 19.5 38.4339 18.5 38.4339 17.2C38.3328 16 37.9282 15.1 37.2202 14.5V14.5Z" fill="#F37B20"/>
<path d="M50.2683 19.6C49.2569 20.2 48.1443 20.5 46.8294 20.5C45.0088 20.5 43.3905 19.9 42.0756 18.6C40.7607 17.3 40.1538 15.7 40.1538 13.9C40.1538 12.6 40.4572 11.5 41.0641 10.5C41.671 9.50001 42.4801 8.70001 43.4916 8.10001C44.503 7.50001 45.6156 7.20001 46.8294 7.20001C48.0431 7.20001 49.1557 7.50001 50.1672 8.10001C51.2798 8.70001 52.0889 9.50001 52.5946 10.5C53.2015 11.5 53.505 12.6 53.505 13.9C53.505 15.2 53.2015 16.3 52.5946 17.3C52.1901 18.2 51.3809 19 50.2683 19.6V19.6Z" fill="#F37B20"/>
<path d="M46.9301 10.6L49.8633 17.7L51.7851 14.2H53.7068V13.8V13.3H51.2793L50.0656 15.5L47.0312 8.20001L44.3003 14.2H40.2545C40.2545 14.5 40.2545 14.9 40.3557 15.2H44.9072L46.9301 10.6V10.6Z" fill="white"/>
<path d="M60.8885 24.3H55.3256L58.3599 21.1C59.2702 20.1 59.9782 19.3 60.2817 18.7C60.5851 18.1 60.7874 17.5 60.7874 16.8C60.7874 15.8 60.484 15 59.7759 14.3C59.0679 13.6 58.1576 13.2 57.045 13.2C56.6404 13.2 56.2359 13.3 55.8313 13.4V14.6C56.1347 14.4 56.5393 14.4 56.9439 14.4C57.6519 14.4 58.3599 14.6 58.8656 15.1C59.3714 15.6 59.6748 16.2 59.6748 16.9C59.6748 17.4 59.5737 17.9 59.2702 18.4C58.9668 18.9 58.3599 19.6 57.4496 20.6L52.7969 25.6H60.8885C60.8885 25.4 60.7874 25.2 60.7874 25C60.8885 24.7 60.8885 24.5 60.8885 24.3V24.3Z" fill="black"/>
<path d="M71.1172 21V9.79688H72.8828V21H71.1172ZM79.6797 9.79688V9.80469C81.3281 9.80469 82.6484 10.3281 83.6328 11.3672C84.6172 12.4062 85.1094 13.75 85.1094 15.3984C85.1094 17.0391 84.6172 18.3828 83.6406 19.4297C82.6641 20.4766 81.3438 21 79.6797 21H75.1172V9.79688H79.6797ZM79.6484 19.4375V19.4531C80.7891 19.4531 81.6953 19.0703 82.3672 18.3125C83.0391 17.5547 83.375 16.5781 83.375 15.3828C83.375 14.2109 83.0391 13.25 82.3672 12.5C81.6953 11.75 80.7891 11.375 79.6484 11.375H76.8516V19.4375H79.6484ZM94.9375 11.3672H88.5781V14.5547H94.1172V16.0547H88.5781V19.4141H94.9219V21H86.8672V9.79688H94.9375V11.3672ZM104.516 9.79688H106.266V21H104.805L98.6016 12.8906V21H96.8516V9.79688H98.3125L104.516 17.9141V9.79688ZM117.25 9.79688V11.3672H113.312V21H111.57V11.3672H107.617V9.79688H117.25ZM118.602 21V9.79688H120.367V21H118.602ZM131.359 9.79688V11.3672H127.422V21H125.68V11.3672H121.727V9.79688H131.359ZM140.172 9.79688H142.125L137.805 16.7891V21H136.039V16.7891L131.719 9.79688H133.672L136.922 15.1797L140.172 9.79688ZM151.836 21.2109L151.789 21.2188C150.539 21.2188 149.469 20.8906 148.57 20.2422C147.672 19.5938 147.062 18.7891 146.742 17.8359L148.383 17.3438C148.641 18.0234 149.078 18.5859 149.695 19.0234C150.312 19.4609 151.039 19.6797 151.883 19.6797C152.625 19.6797 153.234 19.5 153.711 19.1484C154.188 18.7969 154.43 18.3906 154.43 17.9297C154.43 17.5547 154.297 17.2422 154.023 16.9844C153.75 16.7266 153.297 16.5 152.656 16.2969L149.844 15.3984C148.164 14.875 147.328 13.9609 147.328 12.6562C147.328 11.8125 147.695 11.0859 148.43 10.4844C149.164 9.88281 150.086 9.57812 151.195 9.57812C152.336 9.57812 153.32 9.84375 154.148 10.375C154.977 10.9062 155.562 11.5703 155.906 12.3672L154.289 12.8516C154.023 12.3281 153.625 11.9062 153.086 11.5859C152.547 11.2656 151.922 11.1094 151.211 11.1094C150.594 11.1094 150.086 11.2578 149.688 11.5547C149.289 11.8516 149.086 12.2031 149.086 12.6094C149.086 12.9297 149.203 13.1953 149.43 13.4062C149.656 13.6172 150.023 13.7969 150.523 13.9453L153.273 14.8203C154.242 15.125 154.977 15.5 155.469 15.9453C155.961 16.3906 156.211 17.0078 156.211 17.8047C156.211 18.7656 155.805 19.5703 154.992 20.2266C154.18 20.8828 153.125 21.2109 151.836 21.2109ZM166.109 11.3672H159.75V14.5547H165.289V16.0547H159.75V19.4141H166.094V21H158.039V9.79688H166.109V11.3672ZM175.32 21L172.602 16.8359H169.773V20.9922H168.039V9.78906H173.367C174.484 9.78906 175.375 10.1484 176.039 10.8672C176.703 11.5859 177.039 12.4062 177.039 13.3359C177.039 14.1016 176.812 14.7969 176.352 15.4297C175.891 16.0625 175.25 16.4844 174.43 16.6953L177.32 21H175.32ZM169.773 11.3438L169.758 15.2891H173.258C173.891 15.2891 174.398 15.0938 174.781 14.7109C175.164 14.3281 175.359 13.8672 175.359 13.3281C175.359 12.7891 175.172 12.3203 174.797 11.9297C174.422 11.5391 173.93 11.3438 173.32 11.3438H169.773ZM186.695 9.79688H188.586L184.117 21H182.25L177.781 9.79688H179.688L183.195 18.8438L186.695 9.79688ZM197.938 11.3672H191.578V14.5547H197.117V16.0547H191.578V19.4141H197.922V21H189.867V9.79688H197.938V11.3672ZM207.148 21L204.43 16.8359H201.602V20.9922H199.867V9.78906H205.195C206.312 9.78906 207.203 10.1484 207.867 10.8672C208.531 11.5859 208.867 12.4062 208.867 13.3359C208.867 14.1016 208.641 14.7969 208.18 15.4297C207.719 16.0625 207.078 16.4844 206.258 16.6953L209.148 21H207.148ZM201.602 11.3438L201.586 15.2891H205.086C205.719 15.2891 206.227 15.0938 206.609 14.7109C206.992 14.3281 207.188 13.8672 207.188 13.3281C207.188 12.7891 207 12.3203 206.625 11.9297C206.25 11.5391 205.758 11.3438 205.148 11.3438H201.602ZM219.43 9.79688V9.80469C221.078 9.80469 222.398 10.3281 223.383 11.3672C224.367 12.4062 224.859 13.75 224.859 15.3984C224.859 17.0391 224.367 18.3828 223.391 19.4297C222.414 20.4766 221.094 21 219.43 21H214.867V9.79688H219.43ZM219.398 19.4375V19.4531C220.539 19.4531 221.445 19.0703 222.117 18.3125C222.789 17.5547 223.125 16.5781 223.125 15.3828C223.125 14.2109 222.789 13.25 222.117 12.5C221.445 11.75 220.539 11.375 219.398 11.375H216.602V19.4375H219.398ZM231.961 21.2109V21.2188C230.297 21.2188 228.906 20.6641 227.789 19.5469C226.672 18.4297 226.117 17.0469 226.117 15.3906C226.117 13.7344 226.672 12.3516 227.781 11.25C228.891 10.1484 230.281 9.59375 231.953 9.59375C233.617 9.59375 235.008 10.1484 236.117 11.25C237.227 12.3516 237.781 13.7266 237.781 15.3828C237.781 17.0391 237.227 18.4219 236.117 19.5391C235.008 20.6562 233.625 21.2109 231.961 21.2109ZM231.961 19.6172V19.6328C233.164 19.6328 234.148 19.2266 234.906 18.4062C235.664 17.5859 236.047 16.5781 236.047 15.3828C236.047 14.2109 235.664 13.2188 234.898 12.4141C234.133 11.6094 233.156 11.2031 231.961 11.2031C230.758 11.2031 229.773 11.6016 229.008 12.4062C228.242 13.2109 227.859 14.1953 227.859 15.3672C227.859 16.5625 228.242 17.5703 229.008 18.3906C229.773 19.2109 230.758 19.6172 231.961 19.6172ZM244.867 21.2109L244.852 21.2344C243.188 21.2344 241.797 20.6797 240.68 19.5625C239.562 18.4453 239.008 17.0625 239.008 15.4062C239.008 13.75 239.562 12.3672 240.672 11.2656C241.781 10.1641 243.164 9.60938 244.828 9.60938C246.172 9.60938 247.32 9.94531 248.266 10.625C249.211 11.3047 249.844 12.1328 250.164 13.1094L248.484 13.5312C248.242 12.8672 247.797 12.3203 247.148 11.8828C246.5 11.4453 245.734 11.2266 244.852 11.2266C243.648 11.2266 242.672 11.625 241.922 12.4297C241.172 13.2344 240.797 14.2188 240.797 15.3828C240.797 16.5547 241.172 17.5469 241.922 18.3672C242.672 19.1875 243.648 19.5938 244.852 19.5938C245.734 19.5938 246.5 19.3828 247.148 18.9531C247.797 18.5234 248.242 17.9766 248.477 17.3125L250.156 17.7422C249.836 18.7109 249.211 19.5312 248.273 20.2031C247.336 20.875 246.203 21.2109 244.867 21.2109ZM256.258 21.2109L256.211 21.2188C254.961 21.2188 253.891 20.8906 252.992 20.2422C252.094 19.5938 251.484 18.7891 251.164 17.8359L252.805 17.3438C253.062 18.0234 253.5 18.5859 254.117 19.0234C254.734 19.4609 255.461 19.6797 256.305 19.6797C257.047 19.6797 257.656 19.5 258.133 19.1484C258.609 18.7969 258.852 18.3906 258.852 17.9297C258.852 17.5547 258.719 17.2422 258.445 16.9844C258.172 16.7266 257.719 16.5 257.078 16.2969L254.266 15.3984C252.586 14.875 251.75 13.9609 251.75 12.6562C251.75 11.8125 252.117 11.0859 252.852 10.4844C253.586 9.88281 254.508 9.57812 255.617 9.57812C256.758 9.57812 257.742 9.84375 258.57 10.375C259.398 10.9062 259.984 11.5703 260.328 12.3672L258.711 12.8516C258.445 12.3281 258.047 11.9062 257.508 11.5859C256.969 11.2656 256.344 11.1094 255.633 11.1094C255.016 11.1094 254.508 11.2578 254.109 11.5547C253.711 11.8516 253.508 12.2031 253.508 12.6094C253.508 12.9297 253.625 13.1953 253.852 13.4062C254.078 13.6172 254.445 13.7969 254.945 13.9453L257.695 14.8203C258.664 15.125 259.398 15.5 259.891 15.9453C260.383 16.3906 260.633 17.0078 260.633 17.8047C260.633 18.7656 260.227 19.5703 259.414 20.2266C258.602 20.8828 257.547 21.2109 256.258 21.2109Z" fill="black"/>
</svg>
