<svg width="188" height="30" viewBox="0 0 188 30" fill="none" xmlns="http://www.w3.org/2000/svg">
<g clip-path="url(#clip0_365_275)">
<path d="M138.859 7.19531L138.848 7.18359C141.273 7.18359 143.219 7.95703 144.684 9.51562C146.148 11.0742 146.887 13.1016 146.887 15.5977C146.887 18.0586 146.16 20.0742 144.695 21.6445C143.23 23.2148 141.285 24 138.859 24H131.559V7.19531H138.859ZM138.777 21.0117L138.766 21.0234C140.207 21.0234 141.367 20.5195 142.246 19.5C143.125 18.4805 143.57 17.1562 143.57 15.5273C143.57 13.9219 143.137 12.6211 142.258 11.625C141.379 10.6289 140.219 10.1367 138.777 10.1367H134.816V21.0117H138.777ZM155.09 24.3398H155.066C153.191 24.3398 151.645 23.7305 150.414 22.5C149.184 21.2695 148.574 19.7461 148.574 17.918C148.574 16.0898 149.195 14.5664 150.426 13.3477C151.656 12.1289 153.203 11.5195 155.078 11.5195C156.953 11.5195 158.5 12.1289 159.73 13.3477C160.961 14.5664 161.57 16.0898 161.57 17.918C161.57 19.7461 160.961 21.2695 159.73 22.5C158.5 23.7305 156.953 24.3398 155.09 24.3398ZM155.066 21.457C156.074 21.457 156.895 21.1289 157.527 20.4609C158.16 19.793 158.477 18.9492 158.477 17.9297C158.477 16.9102 158.16 16.0664 157.527 15.3984C156.895 14.7305 156.074 14.4023 155.066 14.4023C154.059 14.4023 153.238 14.7305 152.605 15.3984C151.973 16.0664 151.656 16.9102 151.656 17.9297C151.656 18.9492 151.973 19.793 152.605 20.4609C153.238 21.1289 154.059 21.457 155.066 21.457ZM169.691 24.3398L169.633 24.375C167.77 24.375 166.234 23.7539 165.016 22.5234C163.797 21.293 163.188 19.7578 163.188 17.9297C163.188 16.1016 163.797 14.5781 165.016 13.3594C166.234 12.1406 167.77 11.5312 169.609 11.5312C171.168 11.5312 172.48 11.9414 173.547 12.7617C174.613 13.582 175.281 14.4961 175.551 15.5156L172.598 16.3594C172.457 15.8086 172.117 15.3398 171.578 14.9414C171.039 14.543 170.395 14.3438 169.633 14.3438C168.66 14.3438 167.863 14.6953 167.254 15.3867C166.645 16.0781 166.34 16.9219 166.34 17.918C166.34 18.8906 166.645 19.7344 167.266 20.4492C167.887 21.1641 168.684 21.5156 169.656 21.5156C170.406 21.5156 171.051 21.3281 171.602 20.9414C172.152 20.5547 172.492 20.0977 172.633 19.5703L175.586 20.3906C175.316 21.4336 174.66 22.3477 173.605 23.1445C172.551 23.9414 171.25 24.3398 169.691 24.3398ZM182.91 24.3398L182.875 24.3281C181.434 24.3281 180.168 23.9531 179.078 23.2148C177.988 22.4766 177.285 21.5977 176.969 20.5781L179.828 19.7461C180.039 20.3438 180.426 20.8242 180.988 21.1992C181.551 21.5742 182.219 21.7617 183.004 21.7617C183.602 21.7617 184.082 21.6445 184.457 21.3984C184.832 21.1523 185.02 20.8594 185.02 20.5078C185.02 19.9805 184.574 19.582 183.672 19.3125L180.578 18.3984C178.574 17.8242 177.578 16.7461 177.578 15.1641C177.578 14.1562 178.059 13.3008 179.008 12.5859C179.957 11.8711 181.105 11.5195 182.453 11.5195C183.73 11.5195 184.855 11.8008 185.816 12.3633C186.777 12.9258 187.457 13.6641 187.844 14.5898L185.031 15.4102C184.504 14.4609 183.637 13.9922 182.441 13.9922C181.961 13.9922 181.551 14.0977 181.211 14.3203C180.871 14.543 180.707 14.8008 180.707 15.0938C180.707 15.5391 181.047 15.8555 181.715 16.0547L184.738 16.9219C185.828 17.2383 186.672 17.6484 187.27 18.1406C187.867 18.6328 188.16 19.3711 188.16 20.3672C188.16 21.5156 187.668 22.4648 186.684 23.2148C185.699 23.9648 184.445 24.3398 182.91 24.3398Z" fill="white"/>
<path d="M121.71 6L122.446 7.27944L121.63 8.70019H123.261L124 9.97963H119.417L121.71 6Z" fill="#FF7300"/>
<path d="M115.981 9.97963L116.72 8.69637L118.35 8.70019L117.535 7.27944L118.27 6L120.564 9.97963H115.981Z" fill="#FF7300"/>
<path d="M120.808 12.9625L119.992 11.5456L119.173 12.9625H117.699L119.992 8.98291L122.282 12.9625H120.808Z" fill="white"/>
<path d="M16.8038 23.9924V21.0057H24.2933C24.4569 21.0057 24.6189 20.9734 24.77 20.9107C24.9212 20.8479 25.0585 20.7559 25.1742 20.6399C25.2899 20.524 25.3816 20.3863 25.4442 20.2348C25.5068 20.0832 25.5391 19.9208 25.5391 19.7568C25.5391 19.5928 25.5068 19.4304 25.4442 19.2789C25.3816 19.1274 25.2899 18.9897 25.1742 18.8737C25.0585 18.7578 24.9212 18.6658 24.77 18.603C24.6189 18.5403 24.4569 18.508 24.2933 18.508H21.0171C19.8997 18.508 18.828 18.0629 18.0379 17.2708C17.2477 16.4786 16.8038 15.4042 16.8038 14.2839C16.8038 13.1636 17.2477 12.0892 18.0379 11.297C18.828 10.5049 19.8997 10.0598 21.0171 10.0598H28.5067V13.035H21.0171C20.6854 13.0455 20.3701 13.1825 20.1358 13.4182C19.9014 13.6539 19.7656 13.9703 19.7562 14.303C19.7557 14.4671 19.7876 14.6298 19.85 14.7815C19.9124 14.9333 20.0042 15.0711 20.1199 15.1872C20.2357 15.3033 20.3732 15.3952 20.5246 15.4578C20.676 15.5204 20.8382 15.5524 21.0019 15.5519H24.2781C25.3955 15.5519 26.4672 15.9969 27.2574 16.7891C28.0475 17.5812 28.4914 18.6556 28.4914 19.7759C28.4914 20.8962 28.0475 21.9706 27.2574 22.7628C26.4672 23.555 25.3955 24 24.2781 24L16.8038 23.9924Z" fill="white"/>
<path d="M36.5409 23.9923C35.6155 24.014 34.6951 23.85 33.8338 23.51C32.9724 23.17 32.1876 22.6607 31.5254 22.0122C30.8633 21.3637 30.3371 20.5891 29.9778 19.7338C29.6186 18.8785 29.4335 17.9598 29.4335 17.0317C29.4335 16.1037 29.6186 15.185 29.9778 14.3297C30.3371 13.4744 30.8633 12.6997 31.5254 12.0512C32.1876 11.4027 32.9724 10.8935 33.8338 10.5535C34.6951 10.2134 35.6155 10.0495 36.5409 10.0712H42.3924V13.0464H36.5409C35.5079 13.0784 34.528 13.5124 33.8086 14.2563C33.0892 15.0002 32.6869 15.9956 32.6869 17.0317C32.6869 18.0679 33.0892 19.0633 33.8086 19.8072C34.528 20.5511 35.5079 20.985 36.5409 21.0171H39.4286V18.5193H37.2457V15.5441H42.3962V23.9923H36.5409Z" fill="white"/>
<path d="M70.7086 23.9924L64.0115 17.3393V23.9924H61.0438V10.0713H68.5334C69.3666 10.0703 70.1815 10.3173 70.8746 10.781C71.5678 11.2446 72.1081 11.9041 72.4271 12.6758C72.7461 13.4476 72.8295 14.2969 72.6667 15.1162C72.5038 15.9355 72.1021 16.6879 71.5124 17.2782C71.1668 17.6301 70.7651 17.9218 70.3238 18.1413L69.44 18.5729L74.8572 23.9924H70.7086ZM68.5334 15.5442C68.8543 15.5265 69.1563 15.3862 69.3772 15.1521C69.5982 14.9181 69.7213 14.6081 69.7213 14.2858C69.7213 13.9635 69.5982 13.6535 69.3772 13.4195C69.1563 13.1854 68.8543 13.0451 68.5334 13.0274H64.0115V15.5251L68.5334 15.5442Z" fill="white"/>
<path d="M75.9581 23.9923V10.0712H81.8095C82.735 10.0495 83.6554 10.2134 84.5167 10.5535C85.378 10.8935 86.1628 11.4027 86.825 12.0512C87.4872 12.6997 88.0134 13.4744 88.3726 14.3297C88.7319 15.185 88.9169 16.1037 88.9169 17.0317C88.9169 17.9598 88.7319 18.8785 88.3726 19.7338C88.0134 20.5891 87.4872 21.3637 86.825 22.0122C86.1628 22.6607 85.378 23.17 84.5167 23.51C83.6554 23.85 82.735 24.014 81.8095 23.9923H75.9581ZM81.8095 21.0056C82.8425 20.9736 83.8225 20.5396 84.5419 19.7957C85.2613 19.0518 85.6636 18.0564 85.6636 17.0203C85.6636 15.9841 85.2613 14.9887 84.5419 14.2448C83.8225 13.5009 82.8425 13.067 81.8095 13.0349H78.9257V21.0056H81.8095Z" fill="white"/>
<path d="M109.349 23.9924C107.744 23.9917 106.189 23.4334 104.949 22.4124C103.709 21.3915 102.86 19.9711 102.547 18.3932C102.234 16.8153 102.477 15.1775 103.233 13.7587C103.99 12.34 105.214 11.228 106.696 10.6123C108.179 9.99657 109.828 9.91516 111.364 10.3819C112.9 10.8486 114.226 11.8347 115.118 13.1721C116.01 14.5095 116.412 16.1155 116.255 17.7166C116.099 19.3177 115.393 20.8148 114.259 21.9529C113.625 22.6138 112.861 23.1361 112.016 23.487C111.171 23.838 110.263 24.01 109.349 23.9924ZM109.349 13.0465C108.427 13.0448 107.534 13.3636 106.821 13.9485C106.108 14.5334 105.619 15.3481 105.438 16.2538C105.257 17.1595 105.395 18.1001 105.829 18.9152C106.262 19.7302 106.964 20.3694 107.815 20.7236C108.666 21.0777 109.613 21.1251 110.495 20.8575C111.377 20.5899 112.139 20.0239 112.651 19.2561C113.163 18.4883 113.394 17.5661 113.303 16.6469C113.213 15.7277 112.808 14.8682 112.156 14.2151C111.792 13.8399 111.355 13.5429 110.872 13.342C110.389 13.1411 109.871 13.0405 109.349 13.0465Z" fill="white"/>
<path d="M0 23.9924H3.31809L8.01904 15.8307L12.7162 23.9924H16.0305L8.01904 10.0713L0 23.9924Z" fill="white"/>
<path d="M43.68 23.9924H46.9981L51.6952 15.8307L56.3924 23.9924H59.7105L51.6952 10.0713L43.68 23.9924Z" fill="white"/>
<path d="M90.0343 23.9504V10.0789H101.634V13.0274H92.9943V15.5786H99.4743V18.4545H92.9943V20.9981H101.634V23.9504H90.0343Z" fill="white"/>
</g>
<defs>
<clipPath id="clip0_365_275">
<rect width="188" height="30" fill="white"/>
</clipPath>
</defs>
</svg>
