<svg width="252" height="30" viewBox="0 0 252 30" fill="none" xmlns="http://www.w3.org/2000/svg">
<path d="M43.4932 7.38807C41.8749 5.79602 39.9531 5 37.5256 5H37.4245C35.9073 5 34.5924 5.39801 33.2775 6.09453C31.9626 6.79105 30.9512 7.78608 30.2432 9.07961C29.5352 10.3731 29.1306 11.7662 29.1306 13.2587C29.1306 15.5473 29.9397 17.4378 31.5581 19.0299C33.1764 20.6219 35.1993 21.4179 37.5256 21.4179C39.852 21.4179 41.8749 20.6219 43.4932 19.0299C45.1115 17.4378 45.9207 15.4478 45.9207 13.1592C45.9207 10.8707 45.1115 8.98011 43.4932 7.38807ZM40.8634 19.0299C39.852 19.6269 38.7394 19.9254 37.4245 19.9254C35.6039 19.9254 33.9856 19.3284 32.6707 18.0349C31.3558 16.7413 30.7489 15.1493 30.7489 13.3582C30.7489 12.0647 31.0523 10.9702 31.6592 9.97514C32.2661 8.98011 33.0752 8.18409 34.0867 7.58707C35.0981 6.99005 36.2107 6.69155 37.4245 6.69155C38.6382 6.69155 39.7508 6.99005 40.7623 7.58707C41.8749 8.18409 42.684 8.98011 43.1897 9.97514C43.7966 10.9702 44.1001 12.0647 44.1001 13.3582C44.1001 14.6518 43.7966 15.7463 43.1897 16.7413C42.7852 17.6368 41.976 18.4329 40.8634 19.0299Z" fill="white"/>
<path d="M20.937 5.995H19.1164L14.7672 16.8408L10.4179 5.19897L5.76523 16.8408L1.82063 5.995H0L5.66413 21.2189L10.3168 9.57709L14.7672 21.2189L20.3301 7.48754M27.8149 13.9552C27.1068 13.3582 26.2977 12.8607 25.4885 12.5622L25.0839 12.3632L24.6794 12.1642C23.9714 11.7661 23.2633 11.4676 22.8588 11.0696C22.353 10.7711 22.1507 10.3731 22.1507 9.67659C22.1507 9.07958 22.353 8.48256 22.8588 8.08455C23.3645 7.68654 23.9714 7.48754 24.6794 7.48754C25.1851 7.48754 25.4885 7.58704 25.8931 7.78605C26.1965 7.98505 26.5 8.28356 26.8034 8.68157L27.0057 8.88058L27.208 9.07958L28.5229 8.28356C28.1183 7.58704 27.6126 6.99002 26.9046 6.59201C26.2977 6.194 25.5897 5.995 24.8817 5.995C23.6679 5.995 22.5553 6.39301 21.8473 7.08953C21.0381 7.78605 20.6336 8.68157 20.6336 9.77609C20.6336 10.7711 21.0381 11.5671 21.7462 12.1642C22.4542 12.7612 23.2633 13.1592 24.0725 13.5572L24.1736 13.6567L24.4771 13.7562C25.2862 14.1542 25.9943 14.5522 26.5 14.9502C27.1068 15.3482 27.3091 15.8458 27.3091 16.6418C27.3091 17.4378 27.0057 18.2338 26.5 18.7313C25.8931 19.3284 25.1851 19.5274 24.3759 19.5274C23.5668 19.5274 22.9599 19.3284 22.4542 18.8308C21.9484 18.3333 21.645 17.7363 21.4427 16.8408L20.4313 17.1393L19.8244 17.3383C19.9255 17.9353 20.1278 18.4328 20.4313 18.9303C20.7347 19.4279 21.0381 19.8259 21.4427 20.1244C22.2519 20.7214 23.2633 21.1194 24.4771 21.1194C25.792 21.1194 26.8034 20.7214 27.7137 19.8259C28.624 18.9303 29.0286 17.9353 29.0286 16.6418C28.9275 15.4477 28.5229 14.5522 27.8149 13.9552Z" fill="#F37B20"/>
<path d="M40.863 19.0297C39.8516 19.6267 38.739 19.9253 37.4241 19.9253C35.6035 19.9253 33.9852 19.3282 32.6703 18.0347C31.3554 16.7412 30.7485 15.1491 30.7485 13.3581C30.7485 12.0645 31.0519 10.97 31.6588 9.97499C32.2657 8.97997 33.0748 8.18395 34.0863 7.58693C35.0977 6.98991 36.2103 6.69141 37.4241 6.69141C38.6378 6.69141 39.7504 6.98991 40.7619 7.58693C41.8745 8.18395 42.6836 8.97997 43.1893 9.97499C43.7962 10.97 44.0997 12.0645 44.0997 13.3581C44.0997 14.6516 43.7962 15.7461 43.1893 16.7412C42.7848 17.6367 41.9756 18.4327 40.863 19.0297Z" fill="#F37B20"/>
<path d="M37.5248 10.0746L40.458 17.1393L42.3798 13.6567H44.3015V13.2587V12.7612H41.874L40.6603 14.9502L37.6259 7.68652L34.895 13.6567H30.8492C30.8492 13.9552 30.8492 14.3532 30.9504 14.6517H35.5019L37.5248 10.0746Z" fill="white"/>
<path d="M51.4832 23.7064H45.9203L48.9546 20.5223C49.8649 19.5273 50.5729 18.7313 50.8764 18.1343C51.1798 17.5373 51.3821 16.9402 51.3821 16.2437C51.3821 15.2487 51.0787 14.4527 50.3706 13.7562C49.6626 13.0596 48.7523 12.6616 47.6397 12.6616C47.2351 12.6616 46.8306 12.7611 46.426 12.8606V14.0547C46.7294 13.8557 47.134 13.8557 47.5386 13.8557C48.2466 13.8557 48.9546 14.0547 49.4603 14.5522C49.9661 15.0497 50.2695 15.6467 50.2695 16.3432C50.2695 16.8407 50.1684 17.3382 49.8649 17.8358C49.5615 18.3333 48.9546 19.0298 48.0443 20.0248L43.3916 25H51.4832C51.4832 24.801 51.3821 24.6019 51.3821 24.4029C51.4832 24.1044 51.4832 23.9054 51.4832 23.7064Z" fill="white"/>
<path d="M61.7119 20.4229V9.27553H63.4775V20.4229H61.7119ZM70.2744 9.27553V9.2833C71.9228 9.2833 73.2431 9.80411 74.2275 10.838C75.2119 11.8719 75.7041 13.209 75.7041 14.8492C75.7041 16.4817 75.2119 17.8188 74.2353 18.8605C73.2588 19.9021 71.9385 20.4229 70.2744 20.4229H65.7119V9.27553H70.2744ZM70.2431 18.8682V18.8837C71.3838 18.8837 72.29 18.5028 72.9619 17.7488C73.6338 16.9948 73.9697 16.023 73.9697 14.8337C73.9697 13.6676 73.6338 12.7115 72.9619 11.9652C72.29 11.2189 71.3838 10.8458 70.2431 10.8458H67.4463V18.8682H70.2431ZM85.5322 10.838H79.1728V14.0097H84.7119V15.5022H79.1728V18.8449H85.5166V20.4229H77.4619V9.27553H85.5322V10.838ZM95.1107 9.27553H96.8607V20.4229H95.3997L89.1963 12.3539V20.4229H87.4463V9.27553H88.9072L95.1107 17.3524V9.27553ZM107.845 9.27553V10.838H103.907V20.4229H102.165V10.838H98.2117V9.27553H107.845ZM109.197 20.4229V9.27553H110.962V20.4229H109.197ZM121.954 9.27553V10.838H118.017V20.4229H116.275V10.838H112.322V9.27553H121.954ZM130.767 9.27553H132.72L128.4 16.233V20.4229H126.634V16.233L122.314 9.27553H124.267L127.517 14.6316L130.767 9.27553ZM142.431 20.6328L142.384 20.6407C141.134 20.6407 140.064 20.3141 139.165 19.6689C138.267 19.0237 137.657 18.223 137.337 17.2746L138.978 16.7849C139.236 17.4611 139.673 18.0208 140.29 18.4562C140.907 18.8915 141.634 19.1092 142.478 19.1092C143.22 19.1092 143.829 18.9304 144.306 18.5805C144.783 18.2308 145.025 17.8265 145.025 17.3679C145.025 16.9948 144.892 16.6838 144.618 16.4273C144.345 16.1708 143.892 15.9453 143.251 15.7432L140.439 14.8492C138.759 14.3284 137.923 13.4188 137.923 12.1206C137.923 11.2811 138.29 10.5581 139.025 9.95963C139.759 9.36104 140.681 9.05786 141.79 9.05786C142.931 9.05786 143.915 9.32217 144.743 9.85078C145.572 10.3793 146.157 11.0401 146.501 11.8331L144.884 12.3151C144.618 11.7942 144.22 11.3744 143.681 11.0557C143.142 10.7369 142.517 10.5815 141.806 10.5815C141.189 10.5815 140.681 10.7292 140.283 11.0246C139.884 11.32 139.681 11.6698 139.681 12.0741C139.681 12.3928 139.798 12.6571 140.025 12.8669C140.251 13.0769 140.618 13.2557 141.118 13.4033L143.868 14.274C144.837 14.5772 145.572 14.9503 146.064 15.3934C146.556 15.8365 146.806 16.4506 146.806 17.2435C146.806 18.1997 146.4 19.0004 145.587 19.6534C144.775 20.3063 143.72 20.6328 142.431 20.6328ZM156.704 10.838H150.345V14.0097H155.884V15.5022H150.345V18.8449H156.689V20.4229H148.634V9.27553H156.704V10.838ZM165.915 20.4229L163.197 16.2795H160.368V20.4152H158.634V9.26775H163.962C165.079 9.26775 165.97 9.62531 166.634 10.3405C167.298 11.0557 167.634 11.8719 167.634 12.797C167.634 13.5588 167.407 14.2507 166.947 14.8803C166.486 15.51 165.845 15.9298 165.025 16.1396L167.915 20.4229H165.915ZM160.368 10.8148L160.353 14.7404H163.853C164.486 14.7404 164.993 14.5461 165.376 14.1651C165.759 13.7842 165.954 13.3256 165.954 12.7892C165.954 12.2529 165.767 11.7864 165.392 11.3977C165.017 11.0091 164.525 10.8148 163.915 10.8148H160.368ZM177.29 9.27553H179.181L174.712 20.4229H172.845L168.376 9.27553H170.283L173.79 18.2775L177.29 9.27553ZM188.533 10.838H182.173V14.0097H187.712V15.5022H182.173V18.8449H188.517V20.4229H180.462V9.27553H188.533V10.838ZM197.743 20.4229L195.025 16.2795H192.197V20.4152H190.462V9.26775H195.79C196.907 9.26775 197.798 9.62531 198.462 10.3405C199.126 11.0557 199.462 11.8719 199.462 12.797C199.462 13.5588 199.236 14.2507 198.775 14.8803C198.314 15.51 197.673 15.9298 196.853 16.1396L199.743 20.4229H197.743ZM192.197 10.8148L192.181 14.7404H195.681C196.314 14.7404 196.822 14.5461 197.204 14.1651C197.587 13.7842 197.783 13.3256 197.783 12.7892C197.783 12.2529 197.595 11.7864 197.22 11.3977C196.845 11.0091 196.353 10.8148 195.743 10.8148H192.197ZM210.025 9.27553V9.2833C211.673 9.2833 212.993 9.80411 213.978 10.838C214.962 11.8719 215.454 13.209 215.454 14.8492C215.454 16.4817 214.962 17.8188 213.986 18.8605C213.009 19.9021 211.689 20.4229 210.025 20.4229H205.462V9.27553H210.025ZM209.993 18.8682V18.8837C211.134 18.8837 212.04 18.5028 212.712 17.7488C213.384 16.9948 213.72 16.023 213.72 14.8337C213.72 13.6676 213.384 12.7115 212.712 11.9652C212.04 11.2189 211.134 10.8458 209.993 10.8458H207.197V18.8682H209.993ZM222.556 20.6328V20.6407C220.892 20.6407 219.501 20.0887 218.384 18.9771C217.267 17.8654 216.712 16.4895 216.712 14.8414C216.712 13.1935 217.267 11.8175 218.376 10.7214C219.486 9.62531 220.876 9.07341 222.548 9.07341C224.212 9.07341 225.603 9.62531 226.712 10.7214C227.822 11.8175 228.376 13.1857 228.376 14.8337C228.376 16.4817 227.822 17.8577 226.712 18.9693C225.603 20.0809 224.22 20.6328 222.556 20.6328ZM222.556 19.047V19.0625C223.759 19.0625 224.743 18.6584 225.501 17.842C226.259 17.0258 226.642 16.023 226.642 14.8337C226.642 13.6676 226.259 12.6804 225.493 11.8797C224.728 11.079 223.751 10.6748 222.556 10.6748C221.353 10.6748 220.368 11.0713 219.603 11.8719C218.837 12.6726 218.454 13.6521 218.454 14.8182C218.454 16.0075 218.837 17.0103 219.603 17.8265C220.368 18.6427 221.353 19.047 222.556 19.047ZM235.462 20.6328L235.447 20.6562C233.783 20.6562 232.392 20.1042 231.275 18.9926C230.157 17.8809 229.603 16.505 229.603 14.857C229.603 13.209 230.157 11.8331 231.267 10.7369C232.376 9.64093 233.759 9.08897 235.423 9.08897C236.767 9.08897 237.915 9.42323 238.861 10.0995C239.806 10.7759 240.439 11.5998 240.759 12.5716L239.079 12.9913C238.837 12.3306 238.392 11.7864 237.743 11.3511C237.095 10.9158 236.329 10.6981 235.447 10.6981C234.243 10.6981 233.267 11.0946 232.517 11.8953C231.767 12.696 231.392 13.6755 231.392 14.8337C231.392 15.9997 231.767 16.987 232.517 17.8032C233.267 18.6195 234.243 19.0237 235.447 19.0237C236.329 19.0237 237.095 18.8138 237.743 18.3862C238.392 17.9587 238.837 17.4146 239.072 16.7538L240.751 17.1813C240.431 18.1452 239.806 18.9614 238.868 19.63C237.931 20.2986 236.798 20.6328 235.462 20.6328ZM246.853 20.6328L246.806 20.6407C245.556 20.6407 244.486 20.3141 243.587 19.6689C242.689 19.0237 242.079 18.223 241.759 17.2746L243.4 16.7849C243.657 17.4611 244.095 18.0208 244.712 18.4562C245.329 18.8915 246.056 19.1092 246.9 19.1092C247.642 19.1092 248.251 18.9304 248.728 18.5805C249.204 18.2308 249.447 17.8265 249.447 17.3679C249.447 16.9948 249.314 16.6838 249.04 16.4273C248.767 16.1708 248.314 15.9453 247.673 15.7432L244.861 14.8492C243.181 14.3284 242.345 13.4188 242.345 12.1206C242.345 11.2811 242.712 10.5581 243.447 9.95963C244.181 9.36104 245.103 9.05786 246.212 9.05786C247.353 9.05786 248.337 9.32217 249.165 9.85078C249.993 10.3793 250.579 11.0401 250.923 11.8331L249.306 12.3151C249.04 11.7942 248.642 11.3744 248.103 11.0557C247.564 10.7369 246.939 10.5815 246.228 10.5815C245.611 10.5815 245.103 10.7292 244.704 11.0246C244.306 11.32 244.103 11.6698 244.103 12.0741C244.103 12.3928 244.22 12.6571 244.447 12.8669C244.673 13.0769 245.04 13.2557 245.54 13.4033L248.29 14.274C249.259 14.5772 249.993 14.9503 250.486 15.3934C250.978 15.8365 251.228 16.4506 251.228 17.2435C251.228 18.1997 250.822 19.0004 250.009 19.6534C249.197 20.3063 248.142 20.6328 246.853 20.6328Z" fill="white"/>
</svg>
