<svg width="234" height="35" viewBox="0 0 234 35" fill="none" xmlns="http://www.w3.org/2000/svg">
<path d="M187.676 24H183.438V10.9091H187.81C189.093 10.9091 190.195 11.1712 191.115 11.6953C192.036 12.2152 192.741 12.9631 193.231 13.9389C193.725 14.9105 193.972 16.076 193.972 17.4354C193.972 18.799 193.723 19.9709 193.224 20.951C192.73 21.9311 192.014 22.6854 191.077 23.2138C190.139 23.7379 189.006 24 187.676 24ZM185.413 22.2741H187.567C188.565 22.2741 189.393 22.0866 190.054 21.7116C190.714 21.3324 191.209 20.7848 191.537 20.0689C191.865 19.3487 192.029 18.4709 192.029 17.4354C192.029 16.4084 191.865 15.5369 191.537 14.821C191.213 14.1051 190.729 13.5618 190.086 13.1911C189.442 12.8203 188.643 12.6349 187.689 12.6349H185.413V22.2741ZM200.411 24.1982C199.49 24.1982 198.687 23.9872 198.001 23.5653C197.315 23.1435 196.782 22.5533 196.403 21.7947C196.024 21.0362 195.834 20.1499 195.834 19.1357C195.834 18.1172 196.024 17.2266 196.403 16.4638C196.782 15.701 197.315 15.1087 198.001 14.6868C198.687 14.2649 199.49 14.054 200.411 14.054C201.331 14.054 202.134 14.2649 202.82 14.6868C203.507 15.1087 204.039 15.701 204.419 16.4638C204.798 17.2266 204.987 18.1172 204.987 19.1357C204.987 20.1499 204.798 21.0362 204.419 21.7947C204.039 22.5533 203.507 23.1435 202.82 23.5653C202.134 23.9872 201.331 24.1982 200.411 24.1982ZM200.417 22.5938C201.014 22.5938 201.508 22.4361 201.9 22.1207C202.292 21.8054 202.582 21.3857 202.769 20.8615C202.961 20.3374 203.057 19.7599 203.057 19.1293C203.057 18.5028 202.961 17.9276 202.769 17.4034C202.582 16.875 202.292 16.451 201.9 16.1314C201.508 15.8118 201.014 15.652 200.417 15.652C199.816 15.652 199.318 15.8118 198.921 16.1314C198.529 16.451 198.237 16.875 198.046 17.4034C197.858 17.9276 197.764 18.5028 197.764 19.1293C197.764 19.7599 197.858 20.3374 198.046 20.8615C198.237 21.3857 198.529 21.8054 198.921 22.1207C199.318 22.4361 199.816 22.5938 200.417 22.5938ZM211.256 24.1982C210.306 24.1982 209.488 23.983 208.802 23.5526C208.12 23.1179 207.596 22.5192 207.229 21.7564C206.863 20.9936 206.68 20.12 206.68 19.1357C206.68 18.1385 206.867 17.2585 207.242 16.4957C207.617 15.7287 208.146 15.13 208.827 14.6996C209.509 14.2692 210.313 14.054 211.237 14.054C211.983 14.054 212.648 14.1925 213.232 14.4695C213.815 14.7422 214.286 15.1257 214.644 15.62C215.006 16.1143 215.222 16.6918 215.29 17.3523H213.43C213.327 16.892 213.093 16.4957 212.727 16.1634C212.364 15.831 211.879 15.6648 211.269 15.6648C210.737 15.6648 210.27 15.8054 209.869 16.0866C209.473 16.3636 209.164 16.7599 208.942 17.2756C208.721 17.7869 208.61 18.392 208.61 19.0909C208.61 19.8068 208.719 20.4247 208.936 20.9446C209.153 21.4645 209.46 21.8672 209.857 22.1527C210.257 22.4382 210.728 22.581 211.269 22.581C211.631 22.581 211.96 22.5149 212.254 22.3828C212.552 22.2464 212.801 22.0526 213.001 21.8011C213.206 21.5497 213.349 21.2472 213.43 20.8935H215.29C215.222 21.5284 215.015 22.0952 214.67 22.5938C214.325 23.0923 213.862 23.4844 213.283 23.7699C212.707 24.0554 212.032 24.1982 211.256 24.1982ZM224.691 16.5788L222.959 16.8857C222.886 16.6641 222.771 16.4531 222.613 16.2528C222.46 16.0526 222.251 15.8885 221.987 15.7607C221.723 15.6328 221.393 15.5689 220.996 15.5689C220.455 15.5689 220.003 15.6903 219.641 15.9332C219.279 16.1719 219.098 16.4808 219.098 16.8601C219.098 17.1882 219.219 17.4524 219.462 17.6527C219.705 17.853 220.097 18.017 220.638 18.1449L222.198 18.5028C223.101 18.7116 223.775 19.0334 224.218 19.468C224.661 19.9027 224.883 20.4673 224.883 21.1619C224.883 21.75 224.712 22.2741 224.371 22.7344C224.035 23.1903 223.564 23.5483 222.959 23.8082C222.358 24.0682 221.661 24.1982 220.868 24.1982C219.769 24.1982 218.872 23.9638 218.177 23.495C217.483 23.022 217.057 22.3509 216.899 21.4815L218.746 21.2003C218.861 21.6818 219.098 22.0462 219.456 22.2933C219.814 22.5362 220.28 22.6577 220.856 22.6577C221.482 22.6577 221.983 22.5277 222.358 22.2678C222.733 22.0036 222.92 21.6818 222.92 21.3026C222.92 20.9957 222.805 20.7379 222.575 20.5291C222.349 20.3203 222.002 20.1626 221.533 20.0561L219.871 19.6918C218.955 19.483 218.278 19.1506 217.839 18.6946C217.404 18.2386 217.187 17.6612 217.187 16.9624C217.187 16.3828 217.349 15.8757 217.672 15.4411C217.996 15.0064 218.444 14.6676 219.015 14.4247C219.586 14.1776 220.24 14.054 220.977 14.054C222.038 14.054 222.873 14.2841 223.483 14.7443C224.092 15.2003 224.495 15.8118 224.691 16.5788Z" fill="white"/>
<path d="M18.8568 21.7789C18.8466 21.7789 18.8374 21.7789 18.8273 21.7789C18.6149 21.766 18.434 21.6192 18.3777 21.4142L16.7712 15.5225L15.9487 18.2703C15.8859 18.4808 15.692 18.6239 15.4732 18.6239H12.3915C12.1173 18.6239 11.8948 18.4014 11.8948 18.1272C11.8948 17.853 12.1173 17.6304 12.3915 17.6304H15.103L16.3179 13.5743C16.3807 13.3638 16.5746 13.2207 16.7934 13.2207C16.7952 13.2207 16.7971 13.2207 16.7999 13.2207C17.0214 13.2235 17.2144 13.373 17.2726 13.5863L18.9491 19.7337L19.6757 17.9416C19.7514 17.7542 19.9342 17.6314 20.1355 17.6314H22.6042C22.8784 17.6314 23.1009 17.8539 23.1009 18.1281C23.1009 18.4023 22.8784 18.6248 22.6042 18.6248H20.4697L19.3166 21.4696C19.2399 21.6579 19.0571 21.7798 18.8568 21.7798V21.7789Z" fill="white"/>
<path d="M17.4979 26.2294C12.6851 26.2294 8.7688 22.3136 8.7688 17.4994C8.7688 12.6853 12.6842 8.76953 17.4979 8.76953C22.3116 8.76953 26.227 12.6853 26.227 17.4994C26.227 22.3136 22.3116 26.2294 17.4979 26.2294ZM17.4979 9.76301C13.2326 9.76301 9.76219 13.2337 9.76219 17.4994C9.76219 21.7652 13.2326 25.2359 17.4979 25.2359C21.7632 25.2359 25.2336 21.7652 25.2336 17.4994C25.2336 13.2337 21.7632 9.76301 17.4979 9.76301Z" fill="white"/>
<path d="M38.779 11.0354V24.0246H36.1201V11.0354H38.779Z" fill="white"/>
<path d="M44.6285 24.1898C43.8844 24.1898 43.2122 23.9969 42.6103 23.61C42.0093 23.224 41.5338 22.6571 41.1848 21.9102C40.8359 21.1632 40.6614 20.2491 40.6614 19.1689C40.6614 18.0886 40.8414 17.132 41.2015 16.3878C41.5615 15.6437 42.0407 15.086 42.6398 14.7139C43.2381 14.3418 43.8982 14.1562 44.6183 14.1562C45.1704 14.1562 45.6292 14.2495 45.9958 14.435C46.3623 14.6215 46.6586 14.8505 46.8848 15.1238C47.1119 15.3971 47.28 15.6612 47.3908 15.917H47.4775V11.0354H50.093V24.0246H47.5219V22.4642H47.3908C47.2744 22.7255 47.1018 22.9886 46.8719 23.2527C46.642 23.5177 46.3447 23.7393 45.9782 23.9193C45.6117 24.0993 45.1621 24.1898 44.6275 24.1898H44.6285ZM45.4391 22.0893C45.8804 22.0893 46.2589 21.9674 46.5719 21.7227C46.8858 21.479 47.1239 21.1374 47.2864 20.6988C47.4489 20.2602 47.5302 19.7469 47.5302 19.1596C47.5302 18.5724 47.4498 18.0544 47.2901 17.6205C47.1304 17.1874 46.8931 16.8504 46.5792 16.6094C46.2653 16.3685 45.885 16.2475 45.4372 16.2475C44.9895 16.2475 44.5934 16.3721 44.2823 16.6224C43.9711 16.8726 43.7376 17.2151 43.5806 17.6509C43.4237 18.0867 43.3452 18.5899 43.3452 19.1587C43.3452 19.7275 43.4255 20.2344 43.5852 20.6757C43.7449 21.117 43.9804 21.4633 44.2915 21.7135C44.6026 21.9637 44.9848 22.0884 45.4381 22.0884L45.4391 22.0893Z" fill="white"/>
<path d="M56.7274 24.2167C55.734 24.2167 54.8763 24.0135 54.1562 23.6064C53.4351 23.1992 52.8821 22.6212 52.4953 21.8714C52.1085 21.1217 51.9155 20.2326 51.9155 19.204C51.9155 18.1754 52.1076 17.3186 52.4907 16.5624C52.8738 15.8071 53.4176 15.2171 54.1211 14.7924C54.8246 14.3686 55.649 14.1562 56.5963 14.1562C57.2351 14.1562 57.8315 14.2578 58.3836 14.4609C58.9357 14.6641 59.4213 14.9706 59.8396 15.3806C60.2578 15.7905 60.5846 16.303 60.82 16.9197C61.0554 17.5356 61.1727 18.2622 61.1727 19.0987V19.8309H52.9874V18.192H59.8913L58.6708 18.6279C58.6708 18.1219 58.5941 17.6824 58.4399 17.3075C58.2858 16.9326 58.0568 16.6418 57.7512 16.4359C57.4466 16.23 57.0699 16.1266 56.6221 16.1266C56.1744 16.1266 55.7838 16.2309 55.4672 16.4405C55.1505 16.6501 54.9105 16.9326 54.748 17.2909C54.5855 17.6482 54.5042 18.0563 54.5042 18.5161V19.6758C54.5042 20.24 54.5984 20.7136 54.7877 21.0968C54.976 21.48 55.241 21.768 55.5807 21.9601C55.9205 22.1521 56.3175 22.2482 56.7708 22.2482C57.0782 22.2482 57.3579 22.2048 57.6072 22.117C57.8574 22.0303 58.0707 21.901 58.2479 21.7293C58.4252 21.5575 58.56 21.347 58.6532 21.0968L61.024 21.5418C60.8671 22.0764 60.5938 22.5455 60.2042 22.9499C59.8146 23.3543 59.3281 23.6664 58.7437 23.887C58.1593 24.1077 57.4872 24.2185 56.7255 24.2185L56.7274 24.2167Z" fill="white"/>
<path d="M65.5747 18.3841V24.0246H62.9592V14.2781H65.4261L65.4695 16.7101H65.3125C65.5683 15.8967 65.956 15.267 66.4767 14.8229C66.9965 14.3778 67.6695 14.1562 68.4949 14.1562C69.1688 14.1562 69.7569 14.3031 70.2601 14.5967C70.7623 14.8903 71.1519 15.3113 71.428 15.8607C71.704 16.4101 71.8416 17.0656 71.8416 17.8264V24.0246H69.2261V18.2798C69.2261 17.675 69.071 17.2013 68.7598 16.8588C68.4487 16.5162 68.0176 16.3445 67.4655 16.3445C67.099 16.3445 66.7721 16.4248 66.485 16.5846C66.197 16.7443 65.9736 16.9751 65.8138 17.278C65.6541 17.5799 65.5738 17.9492 65.5738 18.385L65.5747 18.3841Z" fill="white"/>
<path d="M78.9124 14.2781V16.2743H73.1331V14.2781H78.9124ZM74.4754 11.9587H77.0909V21.1734C77.0909 21.4818 77.1592 21.7098 77.2959 21.8576C77.4325 22.0062 77.6605 22.0801 77.98 22.0801C78.0788 22.0801 78.2182 22.0672 78.3982 22.0413C78.5782 22.0155 78.7149 21.9905 78.8081 21.9674L79.1829 23.9286C78.8921 24.0154 78.6032 24.0772 78.316 24.1114C78.028 24.1465 77.7538 24.164 77.4925 24.164C76.5157 24.164 75.7698 23.9258 75.2519 23.4494C74.7348 22.9729 74.4763 22.2897 74.4763 21.4005V11.9587H74.4754Z" fill="white"/>
<path d="M81.9194 13.0048C81.5242 13.0048 81.1873 12.8737 80.9085 12.6124C80.6296 12.3511 80.4902 12.0344 80.4902 11.6623C80.4902 11.2902 80.6296 10.9735 80.9085 10.7122C81.1873 10.4509 81.5242 10.3198 81.9194 10.3198C82.3145 10.3198 82.6533 10.4509 82.9349 10.7122C83.2165 10.9735 83.3578 11.2902 83.3578 11.6623C83.3578 12.0344 83.2165 12.3511 82.9349 12.6124C82.6533 12.8737 82.3145 13.0048 81.9194 13.0048ZM80.6121 24.0246V14.2781H83.2276V24.0246H80.6121Z" fill="white"/>
<path d="M90.2874 14.2781V16.2743H84.5081V14.2781H90.2874ZM85.8504 11.9587H88.4659V21.1734C88.4659 21.4818 88.5342 21.7098 88.6709 21.8576C88.8075 22.0062 89.0355 22.0801 89.355 22.0801C89.4538 22.0801 89.5932 22.0672 89.7732 22.0413C89.9532 22.0155 90.0899 21.9905 90.1831 21.9674L90.5579 23.9286C90.2671 24.0154 89.9782 24.0772 89.691 24.1114C89.403 24.1465 89.1288 24.164 88.8675 24.164C87.8908 24.164 87.1448 23.9258 86.6269 23.4494C86.1099 22.9729 85.8513 22.2897 85.8513 21.4005V11.9587H85.8504Z" fill="white"/>
<path d="M92.3104 27.4768L92.9114 25.5065L93.2336 25.585C93.5826 25.6782 93.8928 25.7041 94.166 25.6634C94.4393 25.6228 94.6581 25.512 94.8243 25.332C94.9896 25.1519 95.0902 24.8989 95.1253 24.5739L95.1954 24.0504L91.5339 14.2781H94.3147L95.9534 19.3341C96.151 19.9731 96.3125 20.6129 96.4372 21.2519C96.5618 21.8917 96.7058 22.5593 96.8683 23.2573H96.2581C96.415 22.5602 96.572 21.8899 96.7289 21.2482C96.8859 20.6065 97.0687 19.9685 97.2782 19.3351L98.9871 14.279H101.733L97.5921 25.1759C97.3946 25.6995 97.1416 26.1528 96.8342 26.536C96.5258 26.9191 96.1427 27.2165 95.6838 27.4251C95.225 27.6347 94.6692 27.739 94.0193 27.739C93.6703 27.739 93.3453 27.7141 93.0434 27.6652C92.7415 27.6153 92.4969 27.5535 92.3113 27.4777L92.3104 27.4768Z" fill="white"/>
<path d="M108.21 24.0246V11.0354H112.865C113.865 11.0354 114.698 11.2219 115.367 11.5931C116.035 11.9652 116.535 12.4675 116.866 13.1009C117.198 13.7342 117.363 14.4517 117.363 15.254C117.363 16.0564 117.196 16.7756 116.861 17.4118C116.527 18.048 116.026 18.5512 115.358 18.9196C114.689 19.2889 113.853 19.4736 112.847 19.4736H109.666V17.7913H112.656C113.295 17.7913 113.813 17.6805 114.208 17.4598C114.603 17.2391 114.892 16.9363 115.075 16.5531C115.258 16.1699 115.349 15.7369 115.349 15.254C115.349 14.7711 115.258 14.3316 115.075 13.9503C114.892 13.5699 114.601 13.2717 114.204 13.0565C113.806 12.8414 113.284 12.7343 112.639 12.7343H110.198V24.0236H108.21V24.0246Z" fill="white"/>
<path d="M121.433 11.0354V24.0246H119.516V11.0354H121.433Z" fill="white"/>
<path d="M126.742 24.2425C126.126 24.2425 125.568 24.128 125.068 23.8981C124.569 23.6682 124.174 23.333 123.883 22.8907C123.592 22.4494 123.447 21.9083 123.447 21.2694C123.447 20.7173 123.553 20.2639 123.766 19.9094C123.978 19.5548 124.265 19.2732 124.629 19.0636C124.992 18.854 125.396 18.698 125.84 18.5927C126.285 18.4884 126.736 18.4099 127.195 18.3573C127.77 18.288 128.239 18.2308 128.599 18.1874C128.959 18.144 129.225 18.071 129.396 17.9695C129.568 17.8679 129.654 17.7036 129.654 17.4774V17.4247C129.654 17.0582 129.585 16.7507 129.444 16.5005C129.305 16.2503 129.097 16.0573 128.821 15.9206C128.545 15.784 128.201 15.7157 127.788 15.7157C127.375 15.7157 127 15.7812 126.694 15.9114C126.388 16.0416 126.142 16.2096 125.953 16.4128C125.763 16.6159 125.623 16.8283 125.53 17.0489L123.726 16.578C123.946 15.9973 124.263 15.5292 124.676 15.1746C125.089 14.8201 125.562 14.5615 126.097 14.399C126.631 14.2365 127.183 14.1553 127.753 14.1553C128.148 14.1553 128.566 14.2014 129.009 14.2947C129.45 14.3879 129.865 14.556 130.255 14.8007C130.644 15.0444 130.961 15.3879 131.205 15.8292C131.449 16.2715 131.571 16.8467 131.571 17.5558V24.0246H129.715V22.6904H129.619C129.49 22.9406 129.302 23.1843 129.052 23.4226C128.802 23.6608 128.487 23.8574 128.107 24.0107C127.726 24.1649 127.271 24.2415 126.742 24.2415V24.2425ZM127.169 22.6996C127.693 22.6996 128.14 22.598 128.512 22.3949C128.884 22.1918 129.168 21.9213 129.366 21.5842C129.563 21.2472 129.662 20.8899 129.662 20.5123V19.2658C129.592 19.336 129.46 19.3978 129.265 19.4532C129.07 19.5086 128.848 19.5576 128.599 19.6019C128.348 19.6453 128.107 19.6822 127.875 19.7108C127.642 19.7404 127.45 19.7635 127.3 19.781C126.94 19.8272 126.61 19.9057 126.31 20.0165C126.011 20.1273 125.773 20.2842 125.595 20.4873C125.418 20.6905 125.329 20.961 125.329 21.298C125.329 21.6064 125.409 21.8649 125.57 22.0736C125.729 22.2832 125.945 22.4392 126.219 22.5445C126.492 22.6488 126.808 22.7015 127.169 22.7015L127.169 22.6996Z" fill="white"/>
<path d="M138.318 14.278V15.8384H133.035V14.278H138.318ZM134.456 11.9587H136.374V21.3912C136.374 21.7809 136.457 22.0671 136.622 22.2499C136.787 22.4327 137.06 22.5241 137.437 22.5241C137.536 22.5241 137.667 22.5131 137.83 22.4891C137.992 22.466 138.132 22.4429 138.248 22.4189L138.588 23.9534C138.385 24.0227 138.167 24.0735 137.934 24.1058C137.701 24.1372 137.472 24.1538 137.245 24.1538C136.362 24.1538 135.676 23.9257 135.188 23.4696C134.7 23.0135 134.456 22.3727 134.456 21.5473V11.9578V11.9587Z" fill="white"/>
<path d="M144.577 14.278V15.8384H138.632V14.278H144.577ZM140.479 24.0245V13.1617C140.479 12.557 140.614 12.0519 140.885 11.6447C141.155 11.2376 141.511 10.9329 141.953 10.7297C142.394 10.5266 142.871 10.425 143.382 10.425C143.772 10.425 144.104 10.4574 144.38 10.5211C144.656 10.5848 144.858 10.6402 144.986 10.6863L144.541 12.2384C144.447 12.2098 144.333 12.1793 144.196 12.147C144.06 12.1156 143.89 12.099 143.687 12.099C143.233 12.099 142.905 12.2126 142.702 12.4388C142.499 12.6659 142.397 12.9937 142.397 13.424V24.0245H140.479Z" fill="white"/>
<path d="M150.138 24.225C149.226 24.225 148.428 24.0154 147.745 23.5971C147.062 23.1789 146.532 22.5916 146.155 21.8364C145.777 21.0811 145.588 20.203 145.588 19.204C145.588 18.205 145.776 17.3075 146.155 16.5495C146.532 15.7914 147.062 15.2024 147.745 14.7841C148.428 14.3658 149.226 14.1562 150.138 14.1562C151.05 14.1562 151.857 14.3658 152.54 14.7841C153.223 15.2024 153.753 15.7914 154.13 16.5495C154.508 17.3075 154.697 18.193 154.697 19.204C154.697 20.215 154.508 21.0811 154.13 21.8364C153.753 22.5916 153.222 23.1789 152.54 23.5971C151.856 24.0154 151.056 24.225 150.138 24.225ZM150.138 22.6036C150.731 22.6036 151.22 22.4485 151.607 22.1374C151.994 21.8262 152.281 21.4135 152.47 20.8992C152.659 20.3849 152.754 19.8198 152.754 19.2031C152.754 18.5863 152.66 18.0102 152.47 17.4903C152.281 16.9705 151.994 16.555 151.607 16.2439C151.22 15.9327 150.731 15.7776 150.138 15.7776C149.546 15.7776 149.066 15.9336 148.682 16.2439C148.299 16.555 148.012 16.9687 147.824 17.4866C147.634 18.0037 147.54 18.5761 147.54 19.204C147.54 19.8319 147.634 20.3849 147.824 20.9001C148.012 21.4144 148.299 21.8271 148.682 22.1383C149.065 22.4494 149.551 22.6046 150.138 22.6046V22.6036Z" fill="white"/>
<path d="M156.824 24.0246V14.2781H158.681V15.8477H158.785C158.965 15.3131 159.279 14.8949 159.727 14.592C160.175 14.2901 160.682 14.1387 161.252 14.1387C161.374 14.1387 161.513 14.1433 161.67 14.1516C161.827 14.1599 161.958 14.1738 162.063 14.1904V16.0213C161.992 15.9982 161.859 15.9751 161.662 15.9511C161.464 15.9281 161.264 15.916 161.061 15.916C160.62 15.916 160.221 16.0093 159.866 16.1949C159.512 16.3814 159.236 16.6381 159.038 16.9668C158.841 17.2955 158.742 17.674 158.742 18.1043V24.0237H156.824V24.0246Z" fill="white"/>
<path d="M163.954 24.0245V14.278H165.776L165.828 16.5355H165.68C165.819 15.9834 166.034 15.53 166.325 15.1755C166.616 14.8209 166.956 14.555 167.345 14.3777C167.735 14.2005 168.141 14.1118 168.566 14.1118C169.275 14.1118 169.847 14.3316 170.283 14.7701C170.719 15.2087 171.012 15.8209 171.164 16.6057H170.92C171.047 16.0711 171.269 15.6177 171.583 15.2456C171.897 14.8735 172.276 14.5919 172.72 14.3999C173.164 14.2078 173.64 14.1118 174.146 14.1118C174.721 14.1118 175.243 14.2365 175.711 14.4867C176.179 14.7369 176.549 15.109 176.822 15.603C177.096 16.0969 177.232 16.7128 177.232 17.4514V24.0245H175.315V17.6435C175.315 16.9926 175.133 16.5217 174.77 16.2308C174.407 15.94 173.978 15.795 173.484 15.795C173.083 15.795 172.737 15.879 172.446 16.048C172.155 16.217 171.932 16.4506 171.775 16.7497C171.618 17.0489 171.54 17.3933 171.54 17.7829V24.0245H169.648V17.5207C169.648 16.9972 169.481 16.5789 169.147 16.265C168.812 15.9511 168.387 15.7941 167.87 15.7941C167.515 15.7941 167.186 15.8772 166.88 16.0425C166.574 16.2077 166.331 16.4524 166.148 16.7746C165.965 17.0969 165.874 17.4939 165.874 17.9648V24.0236H163.956L163.954 24.0245Z" fill="white"/>
</svg>
