<svg width="236" height="35" viewBox="0 0 236 35" fill="none" xmlns="http://www.w3.org/2000/svg">
<path d="M19.0596 21.7789C19.0493 21.7789 19.04 21.7789 19.0297 21.7789C18.8151 21.766 18.6322 21.6192 18.5753 21.4142L16.9516 15.5225L16.1202 18.2703C16.0567 18.4808 15.8608 18.6239 15.6396 18.6239H12.5247C12.2476 18.6239 12.0227 18.4014 12.0227 18.1272C12.0227 17.853 12.2476 17.6304 12.5247 17.6304H15.2654L16.4934 13.5743C16.5569 13.3638 16.7528 13.2207 16.974 13.2207C16.9759 13.2207 16.9777 13.2207 16.9805 13.2207C17.2045 13.2235 17.3995 13.373 17.4583 13.5863L19.1529 19.7337L19.8873 17.9416C19.9638 17.7542 20.1486 17.6314 20.352 17.6314H22.8473C23.1244 17.6314 23.3493 17.8539 23.3493 18.1281C23.3493 18.4023 23.1244 18.6248 22.8473 18.6248H20.6898L19.5243 21.4696C19.4469 21.6579 19.2621 21.7798 19.0596 21.7798V21.7789Z" fill="black"/>
<path d="M17.686 26.2294C12.8215 26.2294 8.86304 22.3136 8.86304 17.4994C8.86304 12.6853 12.8205 8.76953 17.686 8.76953C22.5514 8.76953 26.5089 12.6853 26.5089 17.4994C26.5089 22.3136 22.5514 26.2294 17.686 26.2294ZM17.686 9.76301C13.3748 9.76301 9.86711 13.2337 9.86711 17.4994C9.86711 21.7652 13.3748 25.2359 17.686 25.2359C21.9971 25.2359 25.5048 21.7652 25.5048 17.4994C25.5048 13.2337 21.9971 9.76301 17.686 9.76301Z" fill="black"/>
<path d="M39.196 11.0344V24.0236H36.5085V11.0344H39.196Z" fill="black"/>
<path d="M45.1084 24.1898C44.3563 24.1898 43.6769 23.9969 43.0685 23.61C42.461 23.224 41.9805 22.6571 41.6277 21.9102C41.275 21.1632 41.0986 20.2491 41.0986 19.1689C41.0986 18.0886 41.2806 17.132 41.6445 16.3878C42.0085 15.6437 42.4928 15.086 43.0984 14.7139C43.7031 14.3418 44.3703 14.1562 45.0981 14.1562C45.6561 14.1562 46.1199 14.2495 46.4904 14.435C46.8608 14.6215 47.1604 14.8505 47.389 15.1238C47.6186 15.3971 47.7884 15.6612 47.9004 15.917H47.9881V11.0354H50.6317V24.0246H48.0329V22.4642H47.9004C47.7828 22.7255 47.6083 22.9886 47.3759 23.2527C47.1436 23.5177 46.8431 23.7393 46.4726 23.9193C46.1022 24.0993 45.6477 24.1898 45.1075 24.1898H45.1084ZM45.9277 22.0893C46.3737 22.0893 46.7563 21.9674 47.0727 21.7227C47.3899 21.479 47.6307 21.1374 47.7949 20.6988C47.9592 20.2602 48.0413 19.7469 48.0413 19.1596C48.0413 18.5724 47.9601 18.0544 47.7987 17.6205C47.6372 17.1874 47.3974 16.8504 47.0801 16.6094C46.7629 16.3685 46.3784 16.2475 45.9258 16.2475C45.4732 16.2475 45.0729 16.3721 44.7584 16.6224C44.444 16.8726 44.2079 17.2151 44.0493 17.6509C43.8906 18.0867 43.8113 18.5899 43.8113 19.1587C43.8113 19.7275 43.8925 20.2344 44.0539 20.6757C44.2154 21.117 44.4533 21.4633 44.7678 21.7135C45.0823 21.9637 45.4686 22.0884 45.9268 22.0884L45.9277 22.0893Z" fill="black"/>
<path d="M57.3375 24.2157C56.3334 24.2157 55.4665 24.0126 54.7386 23.6054C54.0098 23.1982 53.4509 22.6202 53.0599 21.8705C52.6689 21.1207 52.4739 20.2316 52.4739 19.203C52.4739 18.1745 52.668 17.3176 53.0552 16.5614C53.4425 15.8062 53.9921 15.2162 54.7032 14.7914C55.4142 14.3676 56.2475 14.1553 57.205 14.1553C57.8507 14.1553 58.4535 14.2568 59.0115 14.46C59.5696 14.6631 60.0604 14.9696 60.4831 15.3796C60.9058 15.7895 61.2362 16.302 61.4741 16.9187C61.7121 17.5346 61.8306 18.2612 61.8306 19.0978V19.83H53.5573V18.1911H60.5354L59.3017 18.6269C59.3017 18.1209 59.2243 17.6814 59.0685 17.3065C58.9126 16.9317 58.6812 16.6408 58.3723 16.4349C58.0644 16.229 57.6837 16.1256 57.2311 16.1256C56.7785 16.1256 56.3838 16.23 56.0637 16.4395C55.7436 16.6491 55.501 16.9317 55.3368 17.2899C55.1725 17.6472 55.0904 18.0553 55.0904 18.5152V19.6748C55.0904 20.239 55.1856 20.7126 55.3769 21.0958C55.5673 21.479 55.8351 21.7671 56.1785 21.9591C56.5219 22.1512 56.9231 22.2472 57.3813 22.2472C57.6921 22.2472 57.9748 22.2038 58.2267 22.1161C58.4796 22.0293 58.6952 21.9 58.8744 21.7283C59.0535 21.5565 59.1898 21.346 59.284 21.0958L61.6803 21.5408C61.5217 22.0754 61.2455 22.5445 60.8517 22.9489C60.4579 23.3533 59.9661 23.6654 59.3755 23.8861C58.7848 24.1067 58.1054 24.2175 57.3356 24.2175L57.3375 24.2157Z" fill="black"/>
<path d="M66.2808 18.3841V24.0246H63.6372V14.2781H66.1306L66.1744 16.7101H66.0158C66.2743 15.8967 66.6662 15.267 67.1925 14.8229C67.7179 14.3778 68.3981 14.1562 69.2324 14.1562C69.9136 14.1562 70.508 14.3031 71.0166 14.5967C71.5242 14.8903 71.918 15.3113 72.197 15.8607C72.476 16.4101 72.615 17.0656 72.615 17.8264V24.0246H69.9714V18.2798C69.9714 17.675 69.8147 17.2013 69.5002 16.8588C69.1857 16.5162 68.7499 16.3445 68.1919 16.3445C67.8215 16.3445 67.4911 16.4248 67.2009 16.5846C66.9098 16.7443 66.6839 16.9751 66.5225 17.278C66.3611 17.5799 66.2799 17.9492 66.2799 18.385L66.2808 18.3841Z" fill="black"/>
<path d="M79.761 14.2781V16.2743H73.9194V14.2781H79.761ZM75.2762 11.9587H77.9198V21.1734C77.9198 21.4818 77.9889 21.7098 78.127 21.8576C78.2651 22.0062 78.4956 22.0801 78.8185 22.0801C78.9183 22.0801 79.0592 22.0672 79.2412 22.0413C79.4232 22.0155 79.5613 21.9905 79.6555 21.9674L80.0344 23.9286C79.7404 24.0154 79.4483 24.0772 79.1581 24.1114C78.867 24.1465 78.5898 24.164 78.3258 24.164C77.3385 24.164 76.5845 23.9258 76.061 23.4494C75.5384 22.9729 75.2772 22.2897 75.2772 21.4005V11.9587H75.2762Z" fill="black"/>
<path d="M82.8002 13.0048C82.4008 13.0048 82.0602 12.8737 81.7784 12.6124C81.4966 12.3511 81.3557 12.0344 81.3557 11.6623C81.3557 11.2902 81.4966 10.9735 81.7784 10.7122C82.0602 10.4509 82.4008 10.3198 82.8002 10.3198C83.1996 10.3198 83.5421 10.4509 83.8267 10.7122C84.1113 10.9735 84.2541 11.2902 84.2541 11.6623C84.2541 12.0344 84.1113 12.3511 83.8267 12.6124C83.5421 12.8737 83.1996 13.0048 82.8002 13.0048ZM81.4789 24.0246V14.2781H84.1225V24.0246H81.4789Z" fill="black"/>
<path d="M91.2583 14.2781V16.2743H85.4167V14.2781H91.2583ZM86.7736 11.9587H89.4172V21.1734C89.4172 21.4818 89.4862 21.7098 89.6243 21.8576C89.7624 22.0062 89.9929 22.0801 90.3158 22.0801C90.4156 22.0801 90.5565 22.0672 90.7385 22.0413C90.9205 22.0155 91.0586 21.9905 91.1528 21.9674L91.5317 23.9286C91.2377 24.0154 90.9457 24.0772 90.6555 24.1114C90.3643 24.1465 90.0872 24.164 89.8231 24.164C88.8358 24.164 88.0818 23.9258 87.5583 23.4494C87.0358 22.9729 86.7745 22.2897 86.7745 21.4005V11.9587H86.7736Z" fill="black"/>
<path d="M93.3028 27.4768L93.9103 25.5065L94.236 25.585C94.5887 25.6782 94.9023 25.7041 95.1785 25.6634C95.4547 25.6228 95.6758 25.512 95.8438 25.332C96.0108 25.1519 96.1126 24.8989 96.148 24.5739L96.2189 24.0504L92.5181 14.2781H95.3287L96.9851 19.3341C97.1847 19.9731 97.348 20.6129 97.474 21.2519C97.6 21.8917 97.7456 22.5593 97.9098 23.2573H97.293C97.4516 22.5602 97.6103 21.8899 97.7689 21.2482C97.9275 20.6065 98.1123 19.9685 98.3241 19.3351L100.051 14.279H102.827L98.6414 25.1759C98.4417 25.6995 98.186 26.1528 97.8753 26.536C97.5636 26.9191 97.1764 27.2165 96.7126 27.4251C96.2488 27.6347 95.687 27.739 95.0301 27.739C94.6774 27.739 94.3489 27.7141 94.0438 27.6652C93.7386 27.6153 93.4913 27.5535 93.3038 27.4777L93.3028 27.4768Z" fill="black"/>
<path d="M109.374 24.0245V11.0344H114.078C115.089 11.0344 115.932 11.2209 116.607 11.5921C117.283 11.9642 117.788 12.4665 118.123 13.0999C118.458 13.7333 118.625 14.4507 118.625 15.253C118.625 16.0554 118.456 16.7747 118.118 17.4108C117.78 18.047 117.274 18.5502 116.598 18.9186C115.922 19.2879 115.077 19.4726 114.061 19.4726H110.845V17.7903H113.868C114.513 17.7903 115.037 17.6795 115.436 17.4588C115.836 17.2382 116.128 16.9353 116.312 16.5521C116.497 16.169 116.59 15.7359 116.59 15.253C116.59 14.7701 116.497 14.3306 116.312 13.9493C116.128 13.5689 115.834 13.2707 115.432 13.0556C115.029 12.8404 114.502 12.7333 113.85 12.7333H111.383V24.0227H109.374V24.0245Z" fill="black"/>
<path d="M122.739 11.0344V24.0236H120.801V11.0344H122.739Z" fill="black"/>
<path d="M128.105 24.2425C127.482 24.2425 126.918 24.128 126.413 23.8981C125.908 23.6682 125.509 23.333 125.215 22.8907C124.921 22.4494 124.774 21.9083 124.774 21.2694C124.774 20.7173 124.882 20.2639 125.096 19.9094C125.311 19.5548 125.601 19.2732 125.969 19.0636C126.336 18.854 126.744 18.698 127.193 18.5927C127.643 18.4884 128.099 18.4099 128.563 18.3573C129.144 18.288 129.617 18.2308 129.981 18.1874C130.345 18.144 130.614 18.071 130.788 17.9695C130.961 17.8679 131.048 17.7036 131.048 17.4774V17.4247C131.048 17.0582 130.978 16.7507 130.836 16.5005C130.695 16.2503 130.485 16.0573 130.206 15.9206C129.927 15.784 129.579 15.7157 129.162 15.7157C128.745 15.7157 128.365 15.7812 128.056 15.9114C127.747 16.0416 127.498 16.2096 127.307 16.4128C127.116 16.6159 126.974 16.8283 126.88 17.0489L125.056 16.578C125.279 15.9973 125.599 15.5292 126.016 15.1746C126.434 14.8201 126.912 14.5615 127.453 14.399C127.993 14.2365 128.551 14.1553 129.127 14.1553C129.526 14.1553 129.949 14.2014 130.396 14.2947C130.842 14.3879 131.262 14.556 131.655 14.8007C132.049 15.0444 132.369 15.3879 132.616 15.8292C132.862 16.2715 132.986 16.8467 132.986 17.5558V24.0246H131.11V22.6904H131.013C130.883 22.9406 130.692 23.1843 130.44 23.4226C130.187 23.6608 129.868 23.8574 129.484 24.0107C129.1 24.1649 128.64 24.2415 128.105 24.2415V24.2425ZM128.537 22.6987C129.066 22.6987 129.518 22.5971 129.894 22.394C130.27 22.1909 130.557 21.9203 130.757 21.5833C130.957 21.2463 131.056 20.889 131.056 20.5114V19.2649C130.985 19.3351 130.852 19.3969 130.655 19.4523C130.458 19.5077 130.233 19.5567 129.981 19.601C129.729 19.6444 129.485 19.6813 129.25 19.7099C129.015 19.7395 128.821 19.7625 128.668 19.7801C128.305 19.8263 127.971 19.9047 127.668 20.0155C127.366 20.1263 127.125 20.2833 126.946 20.4864C126.767 20.6896 126.677 20.9601 126.677 21.2971C126.677 21.6055 126.757 21.864 126.92 22.0727C127.081 22.2823 127.3 22.4383 127.576 22.5436C127.852 22.6479 128.172 22.7005 128.536 22.7005L128.537 22.6987Z" fill="black"/>
<path d="M139.806 14.278V15.8384H134.466V14.278H139.806ZM135.902 11.9587H137.84V21.3912C137.84 21.7809 137.924 22.0671 138.091 22.2499C138.258 22.4327 138.534 22.5241 138.915 22.5241C139.015 22.5241 139.148 22.5131 139.312 22.4891C139.476 22.466 139.617 22.4429 139.735 22.4189L140.078 23.9534C139.873 24.0227 139.653 24.0735 139.417 24.1058C139.182 24.1372 138.951 24.1538 138.721 24.1538C137.828 24.1538 137.135 23.9257 136.642 23.4696C136.149 23.0135 135.902 22.3727 135.902 21.5473V11.9578V11.9587Z" fill="black"/>
<path d="M146.131 14.278V15.8384H140.123V14.278H146.131ZM141.99 24.0245V13.1617C141.99 12.557 142.126 12.0519 142.4 11.6447C142.673 11.2376 143.032 10.9329 143.479 10.7297C143.925 10.5266 144.407 10.425 144.924 10.425C145.318 10.425 145.654 10.4574 145.933 10.5211C146.212 10.5848 146.416 10.6402 146.545 10.6863L146.095 12.2384C146.001 12.2098 145.885 12.1793 145.747 12.147C145.609 12.1156 145.437 12.099 145.232 12.099C144.774 12.099 144.441 12.2126 144.236 12.4388C144.031 12.6659 143.928 12.9937 143.928 13.424V24.0245H141.99Z" fill="black"/>
<path d="M151.753 24.225C150.831 24.225 150.024 24.0154 149.334 23.5971C148.643 23.1789 148.108 22.5916 147.726 21.8364C147.344 21.0811 147.153 20.203 147.153 19.204C147.153 18.205 147.343 17.3075 147.726 16.5495C148.108 15.7914 148.643 15.2024 149.334 14.7841C150.024 14.3658 150.831 14.1562 151.753 14.1562C152.675 14.1562 153.49 14.3658 154.18 14.7841C154.87 15.2024 155.406 15.7914 155.788 16.5495C156.169 17.3075 156.36 18.193 156.36 19.204C156.36 20.215 156.169 21.0811 155.788 21.8364C155.406 22.5916 154.869 23.1789 154.18 23.5971C153.489 24.0154 152.68 24.225 151.753 24.225ZM151.753 22.6036C152.352 22.6036 152.846 22.4485 153.237 22.1374C153.628 21.8262 153.918 21.4135 154.11 20.8992C154.3 20.3849 154.396 19.8198 154.396 19.2031C154.396 18.5863 154.301 18.0102 154.11 17.4903C153.918 16.9705 153.628 16.555 153.237 16.2439C152.846 15.9327 152.352 15.7776 151.753 15.7776C151.153 15.7776 150.669 15.9336 150.281 16.2439C149.894 16.555 149.604 16.9687 149.413 17.4866C149.222 18.0037 149.127 18.5761 149.127 19.204C149.127 19.8319 149.222 20.3849 149.413 20.9001C149.604 21.4144 149.894 21.8271 150.281 22.1383C150.668 22.4494 151.159 22.6046 151.753 22.6046V22.6036Z" fill="black"/>
<path d="M158.51 24.0246V14.2781H160.387V15.8477H160.493C160.674 15.3131 160.992 14.8949 161.444 14.592C161.897 14.2901 162.41 14.1387 162.986 14.1387C163.109 14.1387 163.25 14.1433 163.409 14.1516C163.567 14.1599 163.7 14.1738 163.805 14.1904V16.0213C163.734 15.9982 163.6 15.9751 163.4 15.9511C163.201 15.9281 162.998 15.916 162.793 15.916C162.347 15.916 161.944 16.0093 161.585 16.1949C161.227 16.3814 160.948 16.6381 160.748 16.9668C160.548 17.2955 160.449 17.674 160.449 18.1043V24.0237H158.51V24.0246Z" fill="black"/>
<path d="M165.717 24.0245V14.278H167.558L167.612 16.5355H167.461C167.602 15.9834 167.82 15.53 168.114 15.1755C168.408 14.8209 168.751 14.555 169.145 14.3777C169.539 14.2005 169.949 14.1118 170.378 14.1118C171.095 14.1118 171.674 14.3316 172.114 14.7701C172.554 15.2087 172.851 15.8209 173.004 16.6057H172.758C172.887 16.0711 173.111 15.6177 173.428 15.2456C173.745 14.8735 174.129 14.5919 174.578 14.3999C175.026 14.2078 175.507 14.1118 176.018 14.1118C176.6 14.1118 177.127 14.2365 177.6 14.4867C178.073 14.7369 178.447 15.109 178.724 15.603C179 16.0969 179.138 16.7128 179.138 17.4514V24.0245H177.2V17.6435C177.2 16.9926 177.016 16.5217 176.649 16.2308C176.282 15.94 175.848 15.795 175.349 15.795C174.944 15.795 174.594 15.879 174.3 16.048C174.006 16.217 173.781 16.4506 173.622 16.7497C173.463 17.0489 173.384 17.3933 173.384 17.7829V24.0245H171.472V17.5207C171.472 16.9972 171.303 16.5789 170.965 16.265C170.628 15.9511 170.197 15.7941 169.675 15.7941C169.316 15.7941 168.983 15.8772 168.674 16.0425C168.366 16.2077 168.119 16.4524 167.934 16.7746C167.75 17.0969 167.657 17.4939 167.657 17.9648V24.0236H165.719L165.717 24.0245Z" fill="black"/>
<path d="M189.676 24H185.438V10.9091H189.81C191.093 10.9091 192.195 11.1712 193.115 11.6953C194.036 12.2152 194.741 12.9631 195.231 13.9389C195.725 14.9105 195.972 16.076 195.972 17.4354C195.972 18.799 195.723 19.9709 195.224 20.951C194.73 21.9311 194.014 22.6854 193.077 23.2138C192.139 23.7379 191.006 24 189.676 24ZM187.413 22.2741H189.567C190.565 22.2741 191.393 22.0866 192.054 21.7116C192.714 21.3324 193.209 20.7848 193.537 20.0689C193.865 19.3487 194.029 18.4709 194.029 17.4354C194.029 16.4084 193.865 15.5369 193.537 14.821C193.213 14.1051 192.729 13.5618 192.086 13.1911C191.442 12.8203 190.643 12.6349 189.689 12.6349H187.413V22.2741ZM202.411 24.1982C201.49 24.1982 200.687 23.9872 200.001 23.5653C199.315 23.1435 198.782 22.5533 198.403 21.7947C198.024 21.0362 197.834 20.1499 197.834 19.1357C197.834 18.1172 198.024 17.2266 198.403 16.4638C198.782 15.701 199.315 15.1087 200.001 14.6868C200.687 14.2649 201.49 14.054 202.411 14.054C203.331 14.054 204.134 14.2649 204.82 14.6868C205.507 15.1087 206.039 15.701 206.419 16.4638C206.798 17.2266 206.987 18.1172 206.987 19.1357C206.987 20.1499 206.798 21.0362 206.419 21.7947C206.039 22.5533 205.507 23.1435 204.82 23.5653C204.134 23.9872 203.331 24.1982 202.411 24.1982ZM202.417 22.5938C203.014 22.5938 203.508 22.4361 203.9 22.1207C204.292 21.8054 204.582 21.3857 204.769 20.8615C204.961 20.3374 205.057 19.7599 205.057 19.1293C205.057 18.5028 204.961 17.9276 204.769 17.4034C204.582 16.875 204.292 16.451 203.9 16.1314C203.508 15.8118 203.014 15.652 202.417 15.652C201.816 15.652 201.318 15.8118 200.921 16.1314C200.529 16.451 200.237 16.875 200.046 17.4034C199.858 17.9276 199.764 18.5028 199.764 19.1293C199.764 19.7599 199.858 20.3374 200.046 20.8615C200.237 21.3857 200.529 21.8054 200.921 22.1207C201.318 22.4361 201.816 22.5938 202.417 22.5938ZM213.256 24.1982C212.306 24.1982 211.488 23.983 210.802 23.5526C210.12 23.1179 209.596 22.5192 209.229 21.7564C208.863 20.9936 208.68 20.12 208.68 19.1357C208.68 18.1385 208.867 17.2585 209.242 16.4957C209.617 15.7287 210.146 15.13 210.827 14.6996C211.509 14.2692 212.313 14.054 213.237 14.054C213.983 14.054 214.648 14.1925 215.232 14.4695C215.815 14.7422 216.286 15.1257 216.644 15.62C217.006 16.1143 217.222 16.6918 217.29 17.3523H215.43C215.327 16.892 215.093 16.4957 214.727 16.1634C214.364 15.831 213.879 15.6648 213.269 15.6648C212.737 15.6648 212.27 15.8054 211.869 16.0866C211.473 16.3636 211.164 16.7599 210.942 17.2756C210.721 17.7869 210.61 18.392 210.61 19.0909C210.61 19.8068 210.719 20.4247 210.936 20.9446C211.153 21.4645 211.46 21.8672 211.857 22.1527C212.257 22.4382 212.728 22.581 213.269 22.581C213.631 22.581 213.96 22.5149 214.254 22.3828C214.552 22.2464 214.801 22.0526 215.001 21.8011C215.206 21.5497 215.349 21.2472 215.43 20.8935H217.29C217.222 21.5284 217.015 22.0952 216.67 22.5938C216.325 23.0923 215.862 23.4844 215.283 23.7699C214.707 24.0554 214.032 24.1982 213.256 24.1982ZM226.691 16.5788L224.959 16.8857C224.886 16.6641 224.771 16.4531 224.613 16.2528C224.46 16.0526 224.251 15.8885 223.987 15.7607C223.723 15.6328 223.393 15.5689 222.996 15.5689C222.455 15.5689 222.003 15.6903 221.641 15.9332C221.279 16.1719 221.098 16.4808 221.098 16.8601C221.098 17.1882 221.219 17.4524 221.462 17.6527C221.705 17.853 222.097 18.017 222.638 18.1449L224.198 18.5028C225.101 18.7116 225.775 19.0334 226.218 19.468C226.661 19.9027 226.883 20.4673 226.883 21.1619C226.883 21.75 226.712 22.2741 226.371 22.7344C226.035 23.1903 225.564 23.5483 224.959 23.8082C224.358 24.0682 223.661 24.1982 222.868 24.1982C221.769 24.1982 220.872 23.9638 220.177 23.495C219.483 23.022 219.057 22.3509 218.899 21.4815L220.746 21.2003C220.861 21.6818 221.098 22.0462 221.456 22.2933C221.814 22.5362 222.28 22.6577 222.856 22.6577C223.482 22.6577 223.983 22.5277 224.358 22.2678C224.733 22.0036 224.92 21.6818 224.92 21.3026C224.92 20.9957 224.805 20.7379 224.575 20.5291C224.349 20.3203 224.002 20.1626 223.533 20.0561L221.871 19.6918C220.955 19.483 220.278 19.1506 219.839 18.6946C219.404 18.2386 219.187 17.6612 219.187 16.9624C219.187 16.3828 219.349 15.8757 219.672 15.4411C219.996 15.0064 220.444 14.6676 221.015 14.4247C221.586 14.1776 222.24 14.054 222.977 14.054C224.038 14.054 224.873 14.2841 225.483 14.7443C226.092 15.2003 226.495 15.8118 226.691 16.5788Z" fill="black"/>
</svg>
