<svg xmlns="http://www.w3.org/2000/svg" width="325.5" height="47.13" viewBox="0 0 325.5 47.13">
  <g id="asgardeo-logo-dark" transform="translate(-401.5 -178.71)">
    <path id="Path_287" data-name="Path 287" d="M720.99,178.71l1.93,3.35-2.14,3.72h4.28l1.94,3.35H714.97Z" fill="#ff7300"/>
    <path id="Path_288" data-name="Path 288" d="M705.95,189.13l1.94-3.36,4.28.01-2.14-3.72,1.93-3.35,6.02,10.42Z" fill="#ff7300"/>
    <path id="Path_289" data-name="Path 289" d="M718.62,196.94l-2.14-3.71-2.15,3.71h-3.87l6.02-10.42,6.01,10.42Z"/>
    <path id="Path_290" data-name="Path 290" d="M445.61,225.82V218h19.66a3.27,3.27,0,1,0,0-6.54h-8.6a11.06,11.06,0,0,1,0-22.12h19.66v7.79H456.67a3.419,3.419,0,0,0-3.31,3.32,3.26,3.26,0,0,0,3.27,3.27h8.6a11.06,11.06,0,0,1,0,22.12Z"/>
    <path id="Path_291" data-name="Path 291" d="M497.42,225.82a18.23,18.23,0,1,1,0-36.45h15.36v7.79H497.42a10.44,10.44,0,0,0,0,20.87H505v-6.54h-5.73V203.7h13.52v22.12Z"/>
    <path id="Path_292" data-name="Path 292" d="M587.11,225.82,569.53,208.4v17.42h-7.79V189.37H581.4a11.05,11.05,0,0,1,7.82,18.87,11.63,11.63,0,0,1-3.12,2.26l-2.32,1.13L598,225.82ZM581.4,203.7a3.3,3.3,0,0,0,0-6.59H569.53v6.54Z"/>
    <path id="Path_293" data-name="Path 293" d="M600.89,225.82V189.37h15.36a18.23,18.23,0,1,1,0,36.45ZM616.25,218a10.44,10.44,0,0,0,0-20.87h-7.57V218Z"/>
    <path id="Path_294" data-name="Path 294" d="M688.54,225.82a18.21,18.21,0,1,1,12.89-5.34,17.42,17.42,0,0,1-12.89,5.34Zm0-28.66a10.45,10.45,0,1,0,7.37,3.06A10.13,10.13,0,0,0,688.54,197.16Z"/>
    <path id="Path_295" data-name="Path 295" d="M401.5,225.82h8.71l12.34-21.37,12.33,21.37h8.7l-21.03-36.45Z"/>
    <path id="Path_296" data-name="Path 296" d="M516.16,225.82h8.71l12.33-21.37,12.33,21.37h8.71L537.2,189.37Z"/>
    <path id="Path_297" data-name="Path 297" d="M637.84,225.71V189.39h30.45v7.72H645.61v6.68h17.01v7.53H645.61v6.66h22.68v7.73Z"/>
  </g>
</svg>
