<!--
 * Copyright (c) 2023, WSO2 LLC. (https://www.wso2.com). All Rights Reserved.
 *
 * WSO2 LLC. licenses this file to you under the Apache License,
 * Version 2.0 (the "License"); you may not use this file except
 * in compliance with the License.
 * You may obtain a copy of the License at
 *
 *     http://www.apache.org/licenses/LICENSE-2.0
 *
 * Unless required by applicable law or agreed to in writing,
 * software distributed under the License is distributed on an
 * "AS IS" BASIS, WITHOUT WARRANTIES OR CONDITIONS OF ANY
 * KIND, either express or implied. See the License for the
 * specific language governing permissions and limitations
 * under the License.
-->

<svg width="16" height="16" viewBox="0 0 16 16" fill="none" xmlns="http://www.w3.org/2000/svg">
<path fill-rule="evenodd" clip-rule="evenodd" d="M4.06066 2.35355C4.25592 2.15829 4.25592 1.84171 4.06066 1.64645C3.8654 1.45118 3.54882 1.45118 3.35355 1.64645L0 5L3.35355 8.35355C3.54882 8.54882 3.8654 8.54882 4.06066 8.35355C4.25592 8.15829 4.25592 7.84171 4.06066 7.64645L1.91421 5.5H10.2071C10.4832 5.5 10.7071 5.27614 10.7071 5C10.7071 4.72386 10.4832 4.5 10.2071 4.5H1.91421L4.06066 2.35355ZM11.9393 13.6464C11.7441 13.8417 11.7441 14.1583 11.9393 14.3536C12.1346 14.5488 12.4512 14.5488 12.6464 14.3536L16 11L12.6464 7.64645C12.4512 7.45118 12.1346 7.45118 11.9393 7.64645C11.7441 7.84171 11.7441 8.15829 11.9393 8.35355L14.0858 10.5L5.79289 10.5C5.51675 10.5 5.29289 10.7239 5.29289 11C5.29289 11.2761 5.51675 11.5 5.79289 11.5L14.0858 11.5L11.9393 13.6464Z" fill="black"/>
</svg>
