<!--
 * Copyright (c) 2023, WSO2 LLC. (https://www.wso2.com).
 *
 * WSO2 LLC. licenses this file to you under the Apache License,
 * Version 2.0 (the "License"); you may not use this file except
 * in compliance with the License.
 * You may obtain a copy of the License at
 *
 *     http://www.apache.org/licenses/LICENSE-2.0
 *
 * Unless required by applicable law or agreed to in writing,
 * software distributed under the License is distributed on an
 * "AS IS" BASIS, WITHOUT WARRANTIES OR CONDITIONS OF ANY
 * KIND, either express or implied. See the License for the
 * specific language governing permissions and limitations
 * under the License.
-->

<svg width="16" height="16" viewBox="0 0 16 16" fill="none" xmlns="http://www.w3.org/2000/svg">
<path fill-rule="evenodd" clip-rule="evenodd" d="M4.5 1C2.567 1 1 2.567 1 4.5V4.75C1 5.02614 1.22386 5.25 1.5 5.25C1.77614 5.25 2 5.02614 2 4.75V4.5C2 3.11929 3.11929 2 4.5 2H11.5C12.8807 2 14 3.11929 14 4.5V5C14 5.27614 14.2239 5.5 14.5 5.5C14.7761 5.5 15 5.27614 15 5V4.5C15 2.567 13.433 1 11.5 1H4.5ZM6.35355 4.64645C6.15829 4.45118 5.84171 4.45118 5.64645 4.64645C5.45118 4.84171 5.45118 5.15829 5.64645 5.35355L7.79289 7.5H1.5C1.22386 7.5 1 7.72386 1 8C1 8.27614 1.22386 8.5 1.5 8.5H7.79289L5.64645 10.6464C5.45118 10.8417 5.45118 11.1583 5.64645 11.3536C5.84171 11.5488 6.15829 11.5488 6.35355 11.3536L9.35355 8.35355L9.70711 8L9.35355 7.64645L6.35355 4.64645ZM2 11.25C2 10.9739 1.77614 10.75 1.5 10.75C1.22386 10.75 1 10.9739 1 11.25V11.5C1 13.433 2.567 15 4.5 15H5C5.27614 15 5.5 14.7761 5.5 14.5C5.5 14.2239 5.27614 14 5 14H4.5C3.11929 14 2 12.8807 2 11.5V11.25ZM14.2846 8.56002C14.0894 8.36476 13.7728 8.36476 13.5775 8.56002L13.1543 8.98326L14.4258 10.2548L14.8491 9.83157C15.0443 9.63631 15.0443 9.31972 14.8491 9.12446L14.2846 8.56002ZM7.64156 13.0818L12.0874 8.63596L12.0936 8.62965L12.0999 8.62345L12.8704 7.85291C13.4562 7.26713 14.406 7.26713 14.9917 7.85291L15.5562 8.41735C16.142 9.00314 16.142 9.95289 15.5562 10.5387L10.3273 15.7675L10.1809 15.914H9.97377H7.99512H7.49512V15.414V13.4353V13.2282L7.64156 13.0818ZM13.7187 10.9619L12.4472 9.69036L8.49512 13.6424V14.914H9.76666L13.7187 10.9619Z" fill="black"/>
</svg>
