<!--
 * Copyright (c) 2023, WSO2 LLC. (https://www.wso2.com). All Rights Reserved.
 *
 * WSO2 LLC. licenses this file to you under the Apache License,
 * Version 2.0 (the "License"); you may not use this file except
 * in compliance with the License.
 * You may obtain a copy of the License at
 *
 *     http://www.apache.org/licenses/LICENSE-2.0
 *
 * Unless required by applicable law or agreed to in writing,
 * software distributed under the License is distributed on an
 * "AS IS" BASIS, WITHOUT WARRANTIES OR CONDITIONS OF ANY
 * KIND, either express or implied. See the License for the
 * specific language governing permissions and limitations
 * under the License.
-->

<svg width="16" height="16" viewBox="0 0 16 16" fill="none" xmlns="http://www.w3.org/2000/svg">
<path fill-rule="evenodd" clip-rule="evenodd" d="M16 8.5L13.6464 6.14645C13.4512 5.95118 13.1346 5.95118 12.9393 6.14645C12.7441 6.34171 12.7441 6.65829 12.9393 6.85355L14.0858 8H7.29289C7.01675 8 6.79289 8.22386 6.79289 8.5C6.79289 8.77614 7.01675 9 7.29289 9H14.0858L12.9393 10.1464C12.7441 10.3417 12.7441 10.6583 12.9393 10.8536C13.1346 11.0488 13.4512 11.0488 13.6464 10.8536L16 8.5ZM2.5 2C1.67157 2 1 2.67157 1 3.5V13.5C1 14.3284 1.67157 15 2.5 15H11C11.8284 15 12.5 14.3284 12.5 13.5C12.5 13.2239 12.7239 13 13 13C13.2761 13 13.5 13.2239 13.5 13.5C13.5 14.8807 12.3807 16 11 16H2.5C1.11929 16 0 14.8807 0 13.5V3.5C0 2.11929 1.11929 1 2.5 1H11C12.3807 1 13.5 2.11929 13.5 3.5C13.5 3.77614 13.2761 4 13 4C12.7239 4 12.5 3.77614 12.5 3.5C12.5 2.67157 11.8284 2 11 2H2.5Z" fill="black"/>
</svg>
