<!--
 * Copyright (c) 2023, WSO2 LLC. (https://www.wso2.com).
 *
 * WSO2 LLC. licenses this file to you under the Apache License,
 * Version 2.0 (the "License"); you may not use this file except
 * in compliance with the License.
 * You may obtain a copy of the License at
 *
 *     http://www.apache.org/licenses/LICENSE-2.0
 *
 * Unless required by applicable law or agreed to in writing,
 * software distributed under the License is distributed on an
 * "AS IS" BASIS, WITHOUT WARRANTIES OR CONDITIONS OF ANY
 * KIND, either express or implied. See the License for the
 * specific language governing permissions and limitations
 * under the License.
-->

<svg width="16" height="16" viewBox="0 0 16 16" fill="none" xmlns="http://www.w3.org/2000/svg">
<path fill-rule="evenodd" clip-rule="evenodd" d="M4.5 0.5C4.5 0.223858 4.27614 0 4 0C3.72386 0 3.5 0.223858 3.5 0.5V1H2.5C1.11929 1 0 2.11929 0 3.5V10.5C0 11.8807 1.11929 13 2.5 13H5.5C5.77614 13 6 12.7761 6 12.5C6 12.2239 5.77614 12 5.5 12H2.5C1.67157 12 1 11.3284 1 10.5V6.5H9C9.27614 6.5 9.5 6.27614 9.5 6C9.5 5.72386 9.27614 5.5 9 5.5H1V3.5C1 2.67157 1.67157 2 2.5 2H3.5C3.5 2.27614 3.72386 2.5 4 2.5C4.27614 2.5 4.5 2.27614 4.5 2H10.5C10.5 2.27614 10.7239 2.5 11 2.5C11.2761 2.5 11.5 2.27614 11.5 2H12.5C13.3284 2 14 2.67157 14 3.5C14 3.77614 14.2239 4 14.5 4C14.7761 4 15 3.77614 15 3.5C15 2.11929 13.8807 1 12.5 1H11.5V0.5C11.5 0.223858 11.2761 0 11 0C10.7239 0 10.5 0.223858 10.5 0.5V1H4.5V0.5ZM12 7.15139L9.43426 11H11.5H12V11.5V13.8486L14.5657 10H12.5H12V9.5V7.15139ZM11.9008 5.49746C12.2301 5.00352 13 5.23663 13 5.83028V9H15.3131C15.7924 9 16.0782 9.53408 15.8124 9.93282L12.0992 15.5025C11.7699 15.9965 11 15.7634 11 15.1697V12H8.68685C8.20764 12 7.9218 11.4659 8.18762 11.0672L11.9008 5.49746Z" fill="black"/>
</svg>
