<!--
 * Copyright (c) 2023, WSO2 LLC. (https://www.wso2.com).
 *
 * WSO2 LLC. licenses this file to you under the Apache License,
 * Version 2.0 (the "License"); you may not use this file except
 * in compliance with the License.
 * You may obtain a copy of the License at
 *
 *     http://www.apache.org/licenses/LICENSE-2.0
 *
 * Unless required by applicable law or agreed to in writing,
 * software distributed under the License is distributed on an
 * "AS IS" BASIS, WITHOUT WARRANTIES OR CONDITIONS OF ANY
 * KIND, either express or implied. See the License for the
 * specific language governing permissions and limitations
 * under the License.
-->

<svg width="16" height="16" viewBox="0 0 16 16" fill="none" xmlns="http://www.w3.org/2000/svg">
<path fill-rule="evenodd" clip-rule="evenodd" d="M8 16C12.4183 16 16 12.4183 16 8C16 3.58172 12.4183 0 8 0C3.58172 0 0 3.58172 0 8C0 12.4183 3.58172 16 8 16ZM12.7105 6.70372C13.0991 6.31133 13.0961 5.67817 12.7037 5.28952C12.3113 4.90087 11.6782 4.9039 11.2895 5.29628L7.04762 9.57897L4.71048 7.21936C4.32183 6.82697 3.68867 6.82394 3.29628 7.21259C2.9039 7.60125 2.90087 8.2344 3.28952 8.62679L6.33714 11.7037L7.04762 12.421L7.7581 11.7037L12.7105 6.70372Z"/>
</svg>
