<!--
 * Copyright (c) 2023, WSO2 LLC. (https://www.wso2.com). All Rights Reserved.
 *
 * WSO2 LLC. licenses this file to you under the Apache License,
 * Version 2.0 (the "License"); you may not use this file except
 * in compliance with the License.
 * You may obtain a copy of the License at
 *
 *     http://www.apache.org/licenses/LICENSE-2.0
 *
 * Unless required by applicable law or agreed to in writing,
 * software distributed under the License is distributed on an
 * "AS IS" BASIS, WITHOUT WARRANTIES OR CONDITIONS OF ANY
 * KIND, either express or implied. See the License for the
 * specific language governing permissions and limitations
 * under the License.
-->

<svg width="16" height="16" viewBox="0 0 16 16" fill="none" xmlns="http://www.w3.org/2000/svg">
<path fill-rule="evenodd" clip-rule="evenodd" d="M4.5 0C3.11929 0 2 1.11929 2 2.5V3.05001C0.85888 3.28164 0 4.29052 0 5.5V13.5C0 14.8807 1.11929 16 2.5 16H10.5C11.7095 16 12.7184 15.1411 12.95 14H13.5C14.8807 14 16 12.8807 16 11.5V2.5C16 1.11929 14.8807 0 13.5 0H4.5ZM12 13.5V13V5.5C12 4.67157 11.3284 4 10.5 4H3H2.5C1.67157 4 1 4.67157 1 5.5V13.5C1 14.3284 1.67157 15 2.5 15H10.5C11.3284 15 12 14.3284 12 13.5ZM3 3H10.5C11.8807 3 13 4.11929 13 5.5V13H13.5C14.3284 13 15 12.3284 15 11.5V2.5C15 1.67157 14.3284 1 13.5 1H4.5C3.67157 1 3 1.67157 3 2.5V3Z" fill="black"/>
</svg>
