<!--
 * Copyright (c) 2023, WSO2 LLC. (https://www.wso2.com).
 *
 * WSO2 LLC. licenses this file to you under the Apache License,
 * Version 2.0 (the "License"); you may not use this file except
 * in compliance with the License.
 * You may obtain a copy of the License at
 *
 *     http://www.apache.org/licenses/LICENSE-2.0
 *
 * Unless required by applicable law or agreed to in writing,
 * software distributed under the License is distributed on an
 * "AS IS" BASIS, WITHOUT WARRANTIES OR CONDITIONS OF ANY
 * KIND, either express or implied. See the License for the
 * specific language governing permissions and limitations
 * under the License.
-->

<svg width="16" height="16" viewBox="0 0 16 16" fill="none" xmlns="http://www.w3.org/2000/svg">
<path fill-rule="evenodd" clip-rule="evenodd" d="M1.281 2.11422C1.03437 2.30858 1 2.44272 1 2.5C1 2.55728 1.03437 2.69142 1.281 2.88578C1.52199 3.07571 1.9017 3.26861 2.41547 3.43987C3.4378 3.78065 4.88193 4 6.5 4C8.11807 4 9.5622 3.78065 10.5845 3.43987C11.0983 3.26861 11.478 3.07571 11.719 2.88578C11.9656 2.69142 12 2.55728 12 2.5C12 2.44272 11.9656 2.30858 11.719 2.11422C11.478 1.92429 11.0983 1.73139 10.5845 1.56013C9.5622 1.21935 8.11807 1 6.5 1C4.88193 1 3.4378 1.21935 2.41547 1.56013C1.9017 1.73139 1.52199 1.92429 1.281 2.11422ZM0.662023 1.3288C0.30142 1.61299 0 2.00499 0 2.5V6.5V10.4999V10.5C0 10.9439 0.243909 11.3063 0.550557 11.5781C0.858171 11.8508 1.27647 12.0777 1.75409 12.2641C2.7132 12.6384 4.01887 12.8903 5.47208 12.9716C5.74779 12.987 5.9838 12.776 5.99922 12.5003C6.01464 12.2246 5.80363 11.9885 5.52792 11.9731C4.14342 11.8957 2.94909 11.657 2.11763 11.3325C1.69996 11.1695 1.40033 10.995 1.21384 10.8298C1.02638 10.6636 1 10.5516 1 10.5V10.4999V7.90209C1.22534 8.03676 1.47995 8.1571 1.75409 8.26408C2.7132 8.63836 4.01887 8.8903 5.47208 8.97157C5.74779 8.98699 5.9838 8.77598 5.99922 8.50027C6.01464 8.22455 5.80363 7.98855 5.52792 7.97313C4.14342 7.8957 2.94909 7.65697 2.11763 7.3325C1.69996 7.16951 1.40033 6.99504 1.21384 6.82975C1.02638 6.66361 1 6.55158 1 6.5V3.90208C1.31375 4.08957 1.68758 4.25134 2.09925 4.38856C3.24849 4.77164 4.80436 5 6.5 5C8.19564 5 9.75151 4.77164 10.9008 4.38856C11.3124 4.25134 11.6862 4.08957 12 3.90208V5C12 5.27614 12.2239 5.5 12.5 5.5C12.7761 5.5 13 5.27614 13 5V2.5C13 2.00499 12.6986 1.61299 12.338 1.3288C11.9717 1.04017 11.4728 0.802115 10.9008 0.611445C9.75151 0.228362 8.19564 0 6.5 0C4.80436 0 3.24849 0.228362 2.09925 0.611445C1.52724 0.802115 1.02826 1.04017 0.662023 1.3288ZM9.5 6.5C8.39543 6.5 7.5 7.39543 7.5 8.5V14C7.5 15.1046 8.39543 16 9.5 16H12.4159C12.762 16 13.0975 15.8803 13.3655 15.6612L14.9496 14.3657C15.2979 14.0808 15.5 13.6546 15.5 13.2045V8.5C15.5 7.39543 14.6046 6.5 13.5 6.5H9.5ZM8.5 8.5C8.5 7.94772 8.94771 7.5 9.5 7.5H13.5C14.0523 7.5 14.5 7.94772 14.5 8.5V13.2045C14.5 13.3546 14.4326 13.4966 14.3165 13.5916L12.7324 14.8871C12.6431 14.9601 12.5313 15 12.4159 15H9.5C8.94772 15 8.5 14.5523 8.5 14V8.5ZM10 10C10 9.72386 10.2239 9.5 10.5 9.5H12.5C12.7761 9.5 13 9.72386 13 10C13 10.2761 12.7761 10.5 12.5 10.5H10.5C10.2239 10.5 10 10.2761 10 10ZM10.5 12C10.2239 12 10 12.2239 10 12.5C10 12.7761 10.2239 13 10.5 13H11.5C11.7761 13 12 12.7761 12 12.5C12 12.2239 11.7761 12 11.5 12H10.5Z" fill="black"/>
</svg>
