<!--
 * Copyright (c) 2023, WSO2 LLC. (https://www.wso2.com).
 *
 * WSO2 LLC. licenses this file to you under the Apache License,
 * Version 2.0 (the "License"); you may not use this file except
 * in compliance with the License.
 * You may obtain a copy of the License at
 *
 *     http://www.apache.org/licenses/LICENSE-2.0
 *
 * Unless required by applicable law or agreed to in writing,
 * software distributed under the License is distributed on an
 * "AS IS" BASIS, WITHOUT WARRANTIES OR CONDITIONS OF ANY
 * KIND, either express or implied. See the License for the
 * specific language governing permissions and limitations
 * under the License.
-->

<svg width="16" height="16" viewBox="0 0 16 16" fill="none" xmlns="http://www.w3.org/2000/svg">
  <path fill-rule="evenodd" clip-rule="evenodd" d="M10.2279 15.734C10.2093 15.7537 10.19 15.7725 10.1699 15.7902C10.1504 15.8075 10.1301 15.8238 10.1093 15.839C9.98889 15.9275 9.84864 15.9818 9.70204 15.9962C9.67609 15.9987 9.64994 16 9.62367 16H7.28545C7.26195 16 7.23874 15.9987 7.21587 15.9962C6.90439 15.9617 6.65686 15.6986 6.62445 15.3676C6.62207 15.3433 6.62085 15.3186 6.62085 15.2936V12.8085C6.62085 12.7806 6.62206 12.7528 6.62445 12.7252C6.63795 12.5694 6.68908 12.4204 6.77229 12.2923C6.78666 12.2702 6.80199 12.2487 6.81824 12.228C6.8349 12.2067 6.85254 12.1861 6.87112 12.1663L11.948 6.77044C12.875 5.78526 14.3779 5.78526 15.3048 6.77044C16.2317 7.75562 16.2317 9.35291 15.3048 10.3381L12.7663 13.036L10.2279 15.734ZM7.57028 13.1459L9.30626 14.9909H7.57028L7.57028 13.1459ZM10.1166 14.4252L14.6334 9.62456C15.1896 9.03346 15.1896 8.07508 14.6334 7.48397C14.0773 6.89286 13.1756 6.89286 12.6194 7.48397L8.10259 12.2846L10.1166 14.4252Z" fill="black"/>
  <path fill-rule="evenodd" clip-rule="evenodd" d="M11 0C12.1046 0 13 0.839466 13 1.875V4.5L12 5V1.875C12 1.39422 11.4973 1.05415 11 1H2C1.48716 1 1.06449 1.29941 1.00673 1.76567L1 1.875V13.125C1 13.6058 1.50266 13.9458 2 14H4.5C4.5 14.0417 4.49966 14.0831 4.49933 14.1241V14.1241V14.1241V14.1241V14.1241C4.4955 14.5923 4.49217 15 5 15H2C0.89543 15 0 14.1605 0 13.125V1.875C0 0.839466 0.89543 0 2 0H11ZM3.5 3.75C3.22386 3.75 3 3.95987 3 4.21875C3 4.47763 3.22386 4.6875 3.5 4.6875H7.5C7.77614 4.6875 8 4.47763 8 4.21875C8 3.95987 7.77614 3.75 7.5 3.75H3.5ZM3 7.03125C3 6.77237 3.22386 6.5625 3.5 6.5625H4.5C4.77614 6.5625 5 6.77237 5 7.03125C5 7.29013 4.77614 7.5 4.5 7.5H3.5C3.22386 7.5 3 7.29013 3 7.03125ZM3.5 9.375C3.22386 9.375 3 9.58487 3 9.84375C3 10.1026 3.22386 10.3125 3.5 10.3125C3.77614 10.3125 4 10.1026 4 9.84375C4 9.58487 3.77614 9.375 3.5 9.375Z" fill="black"/>
</svg>
