<!--
 * Copyright (c) 2023, WSO2 LLC. (https://www.wso2.com).
 *
 * WSO2 LLC. licenses this file to you under the Apache License,
 * Version 2.0 (the "License"); you may not use this file except
 * in compliance with the License.
 * You may obtain a copy of the License at
 *
 *     http://www.apache.org/licenses/LICENSE-2.0
 *
 * Unless required by applicable law or agreed to in writing,
 * software distributed under the License is distributed on an
 * "AS IS" BASIS, WITHOUT WARRANTIES OR CONDITIONS OF ANY
 * KIND, either express or implied. See the License for the
 * specific language governing permissions and limitations
 * under the License.
-->

<svg width="16" height="16" viewBox="0 0 16 16" fill="none" xmlns="http://www.w3.org/2000/svg">
  <g clip-path="url(#clip0_1138_37)">
    <path fill-rule="evenodd" clip-rule="evenodd" d="M11.8761 6.43545L6.81904 11.9344L6 15.9821L9.90239 15.0222L14.9712 9.5491C15.7967 8.65771 15.7662 7.27213 14.902 6.41801C14.0617 5.58722 12.7068 5.59503 11.8761 6.43545ZM14.1896 7.33224C14.5239 7.75487 14.5079 8.36738 14.1327 8.77254L9.28205 14.008L7.31633 14.5543L7.85348 12.4971L12.6961 7.23146C13.0759 6.84736 13.7071 6.84371 14.0986 7.23078L14.1896 7.33224Z" fill="black"/>
    <path fill-rule="evenodd" clip-rule="evenodd" d="M11 0C12.1046 0 13 0.839466 13 1.875V4.5L12 5V1.875C12 1.39422 11.4973 1.05415 11 1H2C1.48716 1 1.06449 1.29941 1.00673 1.76567L1 1.875V13.125C1 13.6058 1.50266 13.9458 2 14H4.5C4.5 14.0417 4.49966 14.0831 4.49933 14.1241V14.1241V14.1241V14.1241V14.1241C4.4955 14.5923 4.49217 15 5 15H2C0.89543 15 0 14.1605 0 13.125V1.875C0 0.839466 0.89543 0 2 0H11ZM3.5 3.75C3.22386 3.75 3 3.95987 3 4.21875C3 4.47763 3.22386 4.6875 3.5 4.6875H7.5C7.77614 4.6875 8 4.47763 8 4.21875C8 3.95987 7.77614 3.75 7.5 3.75H3.5ZM3 7.03125C3 6.77237 3.22386 6.5625 3.5 6.5625H4.5C4.77614 6.5625 5 6.77237 5 7.03125C5 7.29013 4.77614 7.5 4.5 7.5H3.5C3.22386 7.5 3 7.29013 3 7.03125ZM3.5 9.375C3.22386 9.375 3 9.58487 3 9.84375C3 10.1026 3.22386 10.3125 3.5 10.3125C3.77614 10.3125 4 10.1026 4 9.84375C4 9.58487 3.77614 9.375 3.5 9.375Z" fill="black"/>
  </g>
  <defs>
    <clipPath id="clip0_1138_37">
        <rect width="16" height="16" fill="white"/>
    </clipPath>
  </defs>
</svg>
