<!--
 * Copyright (c) 2023, WSO2 LLC. (https://www.wso2.com).
 *
 * WSO2 LLC. licenses this file to you under the Apache License,
 * Version 2.0 (the "License"); you may not use this file except
 * in compliance with the License.
 * You may obtain a copy of the License at
 *
 *     http://www.apache.org/licenses/LICENSE-2.0
 *
 * Unless required by applicable law or agreed to in writing,
 * software distributed under the License is distributed on an
 * "AS IS" BASIS, WITHOUT WARRANTIES OR CONDITIONS OF ANY
 * KIND, either express or implied. See the License for the
 * specific language governing permissions and limitations
 * under the License.
-->

<svg width="16" height="16" viewBox="0 0 16 16" fill="none" xmlns="http://www.w3.org/2000/svg">
  <path fill-rule="evenodd" clip-rule="evenodd" d="M0 2.5C0 1.39543 0.89543 0.5 2 0.5H11C12.1046 0.5 13 1.39561 13 2.50013V2.50476V2.50939V2.51402V2.51865V2.52328V2.52791V2.53253V2.53715V2.54177V2.54639V2.55101V2.55563V2.56024V2.56485V2.56947V2.57408V2.57868V2.58329V2.5879V2.5925V2.59711V2.60171V2.60631V2.61091V2.6155V2.6201V2.62469V2.62929V2.63388V2.63847V2.64306V2.64765V2.65224V2.65682V2.66141V2.66599V2.67057V2.67516V2.67974V2.68431V2.68889V2.69347V2.69805V2.70262V2.70719V2.71177V2.71634V2.72091V2.72548V2.73005V2.73462V2.73918V2.74375V2.74832V2.75288V2.75744V2.76201V2.76657V2.77113V2.77569V2.78025V2.78481V2.78937V2.79392V2.79848V2.80304V2.80759V2.81215V2.8167V2.82125V2.82581V2.83036V2.83491V2.83946V2.84401V2.84856V2.85311V2.85766V2.86221V2.86675V2.8713V2.87585V2.88039V2.88494V2.88949V2.89403V2.89858V2.90312V2.90767V2.91221V2.91675V2.9213V2.92584V2.93038V2.93492V2.93947V2.94401V2.94855V2.95309V2.95763V2.96217V2.96672V2.97126V2.9758V2.98034V2.98488V2.98942V2.99396V2.9985V3.00304V3.00758V3.01212V3.01667V3.02121V3.02575V3.03029V3.03483V3.03937V3.04391V3.04845V3.053V3.05754V3.06208V3.06662V3.07116V3.07571V3.08025V3.08479V3.08934V3.09388V3.09843V3.10297V3.10752V3.11206V3.11661V3.12115V3.1257V3.13025V3.13479V3.13934V3.14389V3.14844V3.15299V3.15754V3.16209V3.16664V3.17119V3.17574V3.1803V3.18485V3.1894V3.19396V3.19851V3.20307V3.20763V3.21219V3.21674V3.2213V3.22586V3.23042V3.23498V3.23955V3.24411V3.24867V3.25324V3.2578V3.26237V3.26694V3.27151V3.27608V3.28065V3.28522V3.28979V3.29436V3.29894V3.30351V3.30809V3.31267V3.31724V3.32182V3.3264V3.33099V3.33557V3.34015V3.34474V3.34933V3.35391V3.3585V3.36309V3.36768V3.37228V3.37687V3.38147V3.38606V3.39066V3.39526V3.39986V3.40446V3.40907V3.41367V3.41828V3.42288V3.42749V3.4321V3.43672V3.44133V3.44595V3.45056V3.45518V3.4598V3.46442V3.46904V3.47367V3.4783V3.48292V3.48755V3.49218V3.49682V3.50145V3.50609V3.51073V3.51537V3.52001V3.52465V3.5293V3.53394V3.53859V3.54324V3.5479V3.55255V3.55721V3.56187V3.56653V3.57119V3.57585V3.58052V3.58519V3.58986V3.59453V3.5992V3.60388V3.60856V3.61324V3.61792V3.62261V3.62729V3.63198V3.63667V3.64137V3.64606V3.65076V3.65546V3.66016V3.66487V3.66958V3.67428V3.679V3.68371V3.68843V3.69315V3.69787V3.70259V3.70731V3.71204V3.71677V3.72151V3.72624V3.73098V3.73572V3.74046V3.74521V3.74996V3.75471V3.75946V3.76422V3.76898V3.77374V3.7785V3.78327V3.78804V3.79281V3.79758V3.80236V3.80714V3.81192V3.81671V3.8215V3.82629V3.83108V3.83588V3.84068V3.84548V3.85028V3.85509V3.8599V3.86472V3.86953V3.87435V3.87918V3.884V3.88883V3.89366V3.8985V3.90334V3.90818V3.91302V3.91787V3.92272V3.92757V3.93243V3.93729V3.94215V3.94702V3.95189V3.95676V3.96164V3.96652V3.9714V3.97628V3.98117V3.98606V3.99096V3.99586V4.00076V4.00567V4.01058V4.01549V4.02041V4.02532V4.03025V4.03517V4.0401V4.04504V4.04997V4.05491V4.05986V4.06481V4.06976V4.07471V4.07967V4.08463V4.0896V4.09457V4.09954V4.10452V4.1095V4.11448V4.11947V4.12446V4.12946V4.13446V4.13946V4.14447V4.14948V4.15449V4.15951V4.16453V4.16956V4.17459V4.17962V4.18466V4.1897V4.19475V4.1998V4.20485V4.20991V4.21497V4.22004V4.22511V4.23019V4.23526V4.24035V4.24543V4.25052V4.25562V4.26072V4.26582V4.27093V4.27604V4.28116V4.28628V4.2914V4.29653V4.30167V4.3068V4.31194V4.31709V4.32224V4.3274V4.33256V4.33772V4.34289V4.34806V4.35324V4.35842V4.36361V4.3688V4.37399V4.37919V4.3844V4.38961V4.39482V4.40004V4.40526V4.41049V4.41572V4.42096V4.4262V4.43145V4.4367V4.44195V4.44721V4.45248V4.45775V4.46303V4.46831V4.47359V4.47888V4.48417V4.48947V4.49478V4.50009V4.5054V4.51072V4.51604V4.52137V4.5267V4.53204V4.53739V4.54274V4.54809V4.55345V4.55881V4.56418V4.56956V4.57494V4.58032V4.58571V4.59111V4.59651V4.60191V4.60732V4.61274V4.61816V4.62359V4.62902V4.63445V4.6399V4.64534V4.6508V4.65626V4.66172V4.66719V4.67266V4.67814V4.68363V4.68912V4.69462V4.70012V4.70563V4.71114V4.71666V4.72218V4.72771V4.73325V4.73879V4.74433V4.74989V4.75544V4.76101V4.76658V4.77215V4.77773V4.78332V4.78891V4.79451V4.80011V4.80572V4.81133V4.81696V4.82258V4.82822V4.83385V4.8395V4.84515V4.85081V4.85647V4.86214V4.86781V4.87349V4.87918V4.88487V4.89057V4.89627V4.90198V4.9077V4.91342V4.91915V4.92488V4.93062V4.93637V4.94212V4.94788V4.95365V4.95942V4.9652V4.97098V4.97677V4.98257V4.98837V4.99418V5C13 5.27614 12.7761 5.5 12.5 5.5C12.2239 5.5 12 5.27614 12 5V4.99418V4.98837V4.98257V4.97677V4.97098V4.9652V4.95942V4.95365V4.94788V4.94212V4.93637V4.93062V4.92488V4.91915V4.91342V4.9077V4.90198V4.89627V4.89057V4.88487V4.87918V4.87349V4.86781V4.86214V4.85647V4.85081V4.84515V4.8395V4.83385V4.82822V4.82258V4.81696V4.81133V4.80572V4.80011V4.79451V4.78891V4.78332V4.77773V4.77215V4.76658V4.76101V4.75544V4.74989V4.74433V4.73879V4.73325V4.72771V4.72218V4.71666V4.71114V4.70563V4.70012V4.69462V4.68912V4.68363V4.67814V4.67266V4.66719V4.66172V4.65626V4.6508V4.64534V4.6399V4.63445V4.62902V4.62359V4.61816V4.61274V4.60732V4.60191V4.59651V4.59111V4.58571V4.58032V4.57494V4.56956V4.56418V4.55881V4.55345V4.54809V4.54274V4.53739V4.53204V4.5267V4.52137V4.51604V4.51072V4.5054V4.50009V4.49478V4.48947V4.48417V4.47888V4.47359V4.46831V4.46303V4.45775V4.45248V4.44721V4.44195V4.4367V4.43145V4.4262V4.42096V4.41572V4.41049V4.40526V4.40004V4.39482V4.38961V4.3844V4.37919V4.37399V4.3688V4.36361V4.35842V4.35324V4.34806V4.34289V4.33772V4.33256V4.3274V4.32224V4.31709V4.31194V4.3068V4.30167V4.29653V4.2914V4.28628V4.28116V4.27604V4.27093V4.26582V4.26072V4.25562V4.25052V4.24543V4.24035V4.23526V4.23019V4.22511V4.22004V4.21497V4.20991V4.20485V4.1998V4.19475V4.1897V4.18466V4.17962V4.17459V4.16956V4.16453V4.15951V4.15449V4.14948V4.14447V4.13946V4.13446V4.12946V4.12446V4.11947V4.11448V4.1095V4.10452V4.09954V4.09457V4.0896V4.08463V4.07967V4.07471V4.06976V4.06481V4.05986V4.05491V4.04997V4.04504V4.0401V4.03517V4.03025V4.02532V4.02041V4.01549V4.01058V4.00567V4.00076V3.99586V3.99096V3.98606V3.98117V3.97628V3.9714V3.96652V3.96164V3.95676V3.95189V3.94702V3.94215V3.93729V3.93243V3.92757V3.92272V3.91787V3.91302V3.90818V3.90334V3.8985V3.89366V3.88883V3.884V3.87918V3.87435V3.86953V3.86472V3.8599V3.85509V3.85028V3.84548V3.84068V3.83588V3.83108V3.82629V3.8215V3.81671V3.81192V3.80714V3.80236V3.79758V3.79281V3.78804V3.78327V3.7785V3.77374V3.76898V3.76422V3.75946V3.75471V3.74996V3.74521V3.74046V3.73572V3.73098V3.72624V3.72151V3.71677V3.71204V3.70731V3.70259V3.69787V3.69315V3.68843V3.68371V3.679V3.67428V3.66958V3.66487V3.66016V3.65546V3.65076V3.64606V3.64137V3.63667V3.63198V3.62729V3.62261V3.61792V3.61324V3.60856V3.60388V3.5992V3.59453V3.58986V3.58519V3.58052V3.57585V3.57119V3.56653V3.56187V3.55721V3.55255V3.5479V3.54324V3.53859V3.53394V3.5293V3.52465V3.52001V3.51537V3.51073V3.50609V3.50145V3.49682V3.49218V3.48755V3.48292V3.4783V3.47367V3.46904V3.46442V3.4598V3.45518V3.45056V3.44595V3.44133V3.43672V3.4321V3.42749V3.42288V3.41828V3.41367V3.40907V3.40446V3.39986V3.39526V3.39066V3.38606V3.38147V3.37687V3.37228V3.36768V3.36309V3.3585V3.35391V3.34933V3.34474V3.34015V3.33557V3.33099V3.3264V3.32182V3.31724V3.31267V3.30809V3.30351V3.29894V3.29436V3.28979V3.28522V3.28065V3.27608V3.27151V3.26694V3.26237V3.2578V3.25324V3.24867V3.24411V3.23955V3.23498V3.23042V3.22586V3.2213V3.21674V3.21219V3.20763V3.20307V3.19851V3.19396V3.1894V3.18485V3.1803V3.17574V3.17119V3.16664V3.16209V3.15754V3.15299V3.14844V3.14389V3.13934V3.13479V3.13025V3.1257V3.12115V3.11661V3.11206V3.10752V3.10297V3.09843V3.09388V3.08934V3.08479V3.08025V3.07571V3.07116V3.06662V3.06208V3.05754V3.053V3.04845V3.04391V3.03937V3.03483V3.03029V3.02575V3.02121V3.01667V3.01212V3.00758V3.00304V2.9985V2.99396V2.98942V2.98488V2.98034V2.9758V2.97126V2.96672V2.96217V2.95763V2.95309V2.94855V2.94401V2.93947V2.93492V2.93038V2.92584V2.9213V2.91675V2.91221V2.90767V2.90312V2.89858V2.89403V2.88949V2.88494V2.88039V2.87585V2.8713V2.86675V2.86221V2.85766V2.85311V2.84856V2.84401V2.83946V2.83491V2.83036V2.82581V2.82125V2.8167V2.81215V2.80759V2.80304V2.79848V2.79392V2.78937V2.78481V2.78025V2.77569V2.77113V2.76657V2.76201V2.75744V2.75288V2.74832V2.74375V2.73918V2.73462V2.73005V2.72548V2.72091V2.71634V2.71177V2.70719V2.70262V2.69805V2.69347V2.68889V2.68431V2.67974V2.67516V2.67057V2.66599V2.66141V2.65682V2.65224V2.64765V2.64306V2.63847V2.63388V2.62929V2.62469V2.6201V2.6155V2.61091V2.60631V2.60171V2.59711V2.5925V2.5879V2.58329V2.57868V2.57408V2.56947V2.56485V2.56024V2.55563V2.55101V2.54639V2.54177V2.53715V2.53253V2.52791V2.52328V2.51865V2.51402V2.50939V2.50476V2.50013C12 2.39075 11.9824 2.28547 11.95 2.18695L7.13324 6.12793C6.76487 6.42932 6.23513 6.42932 5.86676 6.12793L1.04999 2.18693C1.01755 2.28541 1 2.39066 1 2.5V8.5C1 9.05229 1.44772 9.5 2 9.5H5C5.27614 9.5 5.5 9.72386 5.5 10C5.5 10.2761 5.27614 10.5 5 10.5H2C0.89543 10.5 0 9.60457 0 8.5V2.5ZM11 1.5C11.0645 1.5 11.1276 1.50611 11.1887 1.51778L6.5 5.35397L1.81132 1.51777C1.87242 1.50611 1.9355 1.5 2 1.5H11ZM8 11.5C8 9.567 9.567 8 11.5 8C13.433 8 15 9.567 15 11.5C15 11.8228 14.9564 12.1346 14.8751 12.4303C14.7568 12.8606 14.3378 13.1925 13.9401 13.279C13.7455 13.3214 13.6294 13.2888 13.5827 13.2597C13.5635 13.2478 13.5 13.2082 13.5 13.0136V11.5V11.4848L13.4991 11.4696L13.4422 10.5374L13.4422 10.5373C13.4218 10.2019 13.2861 9.8034 12.9308 9.5506C11.9682 8.86567 10.6252 8.94096 9.74511 9.79203C8.75259 10.7519 8.72608 12.3345 9.6859 13.3271C10.4929 14.1616 11.7402 14.3132 12.7069 13.7698C12.795 13.9048 12.9111 14.0198 13.0548 14.1091C13.395 14.3205 13.8022 14.3325 14.1528 14.2562C14.8456 14.1054 15.6052 13.5471 15.8394 12.6954C15.9442 12.3142 16 11.9132 16 11.5C16 9.01472 13.9853 7 11.5 7C9.01472 7 7 9.01472 7 11.5C7 13.9853 9.01472 16 11.5 16C11.7761 16 12 15.7761 12 15.5C12 15.2239 11.7761 15 11.5 15C9.567 15 8 13.433 8 11.5ZM12.5 11.5152V12.6918C11.9032 13.2428 10.9724 13.2189 10.4047 12.6319C9.82886 12.0364 9.84476 11.0868 10.4403 10.5109C10.9677 10.0008 11.7739 9.9547 12.351 10.3654C12.3844 10.3891 12.4355 10.4573 12.444 10.598L12.4441 10.5982L12.5 11.5152Z" fill="black"/>
</svg>
