<!--
 * Copyright (c) 2023, WSO2 LLC. (https://www.wso2.com).
 *
 * WSO2 LLC. licenses this file to you under the Apache License,
 * Version 2.0 (the "License"); you may not use this file except
 * in compliance with the License.
 * You may obtain a copy of the License at
 *
 *     http://www.apache.org/licenses/LICENSE-2.0
 *
 * Unless required by applicable law or agreed to in writing,
 * software distributed under the License is distributed on an
 * "AS IS" BASIS, WITHOUT WARRANTIES OR CONDITIONS OF ANY
 * KIND, either express or implied. See the License for the
 * specific language governing permissions and limitations
 * under the License.
-->

<svg width="16" height="16" viewBox="0 0 16 16" fill="none" xmlns="http://www.w3.org/2000/svg">
<path fill-rule="evenodd" clip-rule="evenodd" d="M0 3.5C0 2.39543 0.89543 1.5 2 1.5H11C12.1046 1.5 13 2.39561 13 3.50013V3.50476V3.50939V3.51402V3.51865V3.52328V3.52791V3.53253V3.53715V3.54177V3.54639V3.55101V3.55563V3.56024V3.56485V3.56947V3.57408V3.57868V3.58329V3.5879V3.5925V3.59711V3.60171V3.60631V3.61091V3.6155V3.6201V3.62469V3.62929V3.63388V3.63847V3.64306V3.64765V3.65224V3.65682V3.66141V3.66599V3.67057V3.67516V3.67974V3.68431V3.68889V3.69347V3.69805V3.70262V3.70719V3.71177V3.71634V3.72091V3.72548V3.73005V3.73462V3.73918V3.74375V3.74832V3.75288V3.75744V3.76201V3.76657V3.77113V3.77569V3.78025V3.78481V3.78937V3.79392V3.79848V3.80304V3.80759V3.81215V3.8167V3.82125V3.82581V3.83036V3.83491V3.83946V3.84401V3.84856V3.85311V3.85766V3.86221V3.86675V3.8713V3.87585V3.88039V3.88494V3.88949V3.89403V3.89858V3.90312V3.90767V3.91221V3.91675V3.9213V3.92584V3.93038V3.93492V3.93947V3.94401V3.94855V3.95309V3.95763V3.96217V3.96672V3.97126V3.9758V3.98034V3.98488V3.98942V3.99396V3.9985V4.00304V4.00758V4.01212V4.01667V4.02121V4.02575V4.03029V4.03483V4.03937V4.04391V4.04845V4.053V4.05754V4.06208V4.06662V4.07116V4.07571V4.08025V4.08479V4.08934V4.09388V4.09843V4.10297V4.10752V4.11206V4.11661V4.12115V4.1257V4.13025V4.13479V4.13934V4.14389V4.14844V4.15299V4.15754V4.16209V4.16664V4.17119V4.17574V4.1803V4.18485V4.1894V4.19396V4.19851V4.20307V4.20763V4.21219V4.21674V4.2213V4.22586V4.23042V4.23498V4.23955V4.24411V4.24867V4.25324V4.2578V4.26237V4.26694V4.27151V4.27608V4.28065V4.28522V4.28979V4.29436V4.29894V4.30351V4.30809V4.31267V4.31724V4.32182V4.3264V4.33099V4.33557V4.34015V4.34474V4.34933V4.35391V4.3585V4.36309V4.36768V4.37228V4.37687V4.38147V4.38606V4.39066V4.39526V4.39986V4.40446V4.40907V4.41367V4.41828V4.42288V4.42749V4.4321V4.43672V4.44133V4.44595V4.45056V4.45518V4.4598V4.46442V4.46904V4.47367V4.4783V4.48292V4.48755V4.49218V4.49682V4.5H14C15.1046 4.5 16 5.39561 16 6.50013V6.50476V6.50939V6.51402V6.51865V6.52328V6.52791V6.53253V6.53715V6.54177V6.54639V6.55101V6.55563V6.56024V6.56485V6.56947V6.57408V6.57868V6.58329V6.5879V6.5925V6.59711V6.60171V6.60631V6.61091V6.6155V6.6201V6.62469V6.62929V6.63388V6.63847V6.64306V6.64765V6.65224V6.65682V6.66141V6.66599V6.67057V6.67516V6.67974V6.68431V6.68889V6.69347V6.69805V6.70262V6.70719V6.71177V6.71634V6.72091V6.72548V6.73005V6.73462V6.73918V6.74375V6.74832V6.75288V6.75744V6.76201V6.76657V6.77113V6.77569V6.78025V6.78481V6.78937V6.79392V6.79848V6.80304V6.80759V6.81215V6.8167V6.82125V6.82581V6.83036V6.83491V6.83946V6.84401V6.84856V6.85311V6.85766V6.86221V6.86675V6.8713V6.87585V6.88039V6.88494V6.88949V6.89403V6.89858V6.90312V6.90767V6.91221V6.91675V6.9213V6.92584V6.93038V6.93492V6.93947V6.94401V6.94855V6.95309V6.95763V6.96217V6.96672V6.97126V6.9758V6.98034V6.98488V6.98942V6.99396V6.9985V7.00304V7.00758V7.01213V7.01667V7.02121V7.02575V7.03029V7.03483V7.03937V7.04391V7.04845V7.053V7.05754V7.06208V7.06662V7.07117V7.07571V7.08025V7.08479V7.08934V7.09388V7.09843V7.10297V7.10752V7.11206V7.11661V7.12115V7.1257V7.13025V7.13479V7.13934V7.14389V7.14844V7.15299V7.15754V7.16209V7.16664V7.17119V7.17574V7.1803V7.18485V7.1894V7.19396V7.19851V7.20307V7.20763V7.21218V7.21674V7.2213V7.22586V7.23042V7.23498V7.23955V7.24411V7.24867V7.25324V7.2578V7.26237V7.26694V7.27151V7.27608V7.28065V7.28522V7.28979V7.29436V7.29894V7.30351V7.30809V7.31267V7.31724V7.32182V7.3264V7.33099V7.33557V7.34015V7.34474V7.34933V7.35391V7.3585V7.36309V7.36768V7.37228V7.37687V7.38146V7.38606V7.39066V7.39526V7.39986V7.40446V7.40907V7.41367V7.41828V7.42288V7.42749V7.4321V7.43672V7.44133V7.44594V7.45056V7.45518V7.4598V7.46442V7.46904V7.47367V7.4783V7.48292V7.48755V7.49218V7.49682V7.50145V7.50609V7.51073V7.51537V7.52001V7.52465V7.5293V7.53394V7.53859V7.54324V7.5479V7.55255V7.55721V7.56187V7.56653V7.57119V7.57585V7.58052V7.58519V7.58986V7.59453V7.59921V7.60388V7.60856V7.61324V7.61792V7.62261V7.62729V7.63198V7.63667V7.64137V7.64606V7.65076V7.65546V7.66016V7.66487V7.66958V7.67428V7.679V7.68371V7.68843V7.69314V7.69787V7.70259V7.70731V7.71204V7.71677V7.72151V7.72624V7.73098V7.73572V7.74046V7.74521V7.74996V7.75471V7.75946V7.76422V7.76898V7.77374V7.7785V7.78327V7.78804V7.79281V7.79758V7.80236V7.80714V7.81192V7.81671V7.8215V7.82629V7.83108V7.83588V7.84068V7.84548V7.85028V7.85509V7.8599V7.86472V7.86953V7.87435V7.87918V7.884V7.88883V7.89366V7.8985V7.90334V7.90818V7.91302V7.91787V7.92272V7.92757V7.93243V7.93729V7.94215V7.94702V7.95189V7.95676V7.96164V7.96652V7.9714V7.97628V7.98117V7.98606V7.99096V7.99586V8.00076V8.00567V8.01058V8.01549V8.0204V8.02532V8.03025V8.03517V8.0401V8.04504V8.04997V8.05491V8.05986V8.06481V8.06976V8.07471V8.07967V8.08463V8.0896V8.09457V8.09954V8.10452V8.1095V8.11448V8.11947V8.12446V8.12946V8.13446V8.13946V8.14447V8.14948V8.15449V8.15951V8.16453V8.16956V8.17459V8.17962V8.18466V8.1897V8.19475V8.1998V8.20485V8.20991V8.21497V8.22004V8.22511V8.23019V8.23526V8.24035V8.24543V8.25052V8.25562V8.26072V8.26582V8.27093V8.27604V8.28116V8.28628V8.2914V8.29653V8.30167V8.3068V8.31194V8.31709V8.32224V8.3274V8.33256V8.33772V8.34289V8.34806V8.35324V8.35842V8.36361V8.3688V8.37399V8.37919V8.3844V8.38961V8.39482V8.40004V8.40526V8.41049V8.41572V8.42096V8.4262V8.43145V8.4367V8.44195V8.44722V8.45248V8.45775V8.46303V8.46831V8.47359V8.47888V8.48417V8.48947V8.49478V8.50009V8.5054V8.51072V8.51604V8.52137V8.5267V8.53204V8.53739V8.54274V8.54809V8.55345V8.55881V8.56418V8.56956V8.57494V8.58032V8.58571V8.59111V8.59651V8.60191V8.60732V8.61274V8.61816V8.62359V8.62902V8.63445V8.6399V8.64534V8.6508V8.65626V8.66172V8.66719V8.67266V8.67814V8.68363V8.68912V8.69462V8.70012V8.70563V8.71114V8.71666V8.72218V8.72771V8.73325V8.73879V8.74433V8.74989V8.75544V8.76101V8.76658V8.77215V8.77773V8.78332V8.78891V8.79451V8.80011V8.80572V8.81133V8.81696V8.82258V8.82822V8.83385V8.8395V8.84515V8.85081V8.85647V8.86214V8.86781V8.87349V8.87918V8.88487V8.89057V8.89627V8.90198V8.9077V8.91342V8.91915V8.92488V8.93062V8.93637V8.94212V8.94788V8.95365V8.95942V8.9652V8.97098V8.97677V8.98257V8.98837V8.99418V9V12.5C16 13.6046 15.1046 14.5 14 14.5H5C3.89543 14.5 3 13.6046 3 12.5V11.5H2C0.895431 11.5 0 10.6046 0 9.5V3.5ZM13 5.50009V5.5H14C14.5522 5.5 15 5.94779 15 6.50013V6.50476V6.50939V6.51402V6.51865V6.52328V6.52791V6.53253V6.53715V6.54177V6.54639V6.55101V6.55563V6.56024V6.56485V6.56947V6.57408V6.57868V6.58329V6.5879V6.5925V6.59711V6.60171V6.60631V6.61091V6.6155V6.6201V6.62469V6.62929V6.63388V6.63847V6.64306V6.64765V6.65224V6.65682V6.66141V6.66599V6.67057V6.67516V6.67974V6.68431V6.68889V6.69347V6.69805V6.70262V6.70719V6.71177V6.71634V6.72091V6.72548V6.73005V6.73462V6.73918V6.74375V6.74832V6.75288V6.75744V6.76201V6.76657V6.77113V6.77569V6.78025V6.78481V6.78937V6.79392V6.79848V6.80304V6.80759V6.81215V6.8167V6.82125V6.82581V6.83036V6.83491V6.83946V6.84401V6.84856V6.85311V6.85766V6.86221V6.86675V6.8713V6.87585V6.88039V6.88494V6.88949V6.89403V6.89858V6.90312V6.90767V6.91221V6.91675V6.9213V6.92584V6.93038V6.93492V6.93947V6.94401V6.94855V6.95309V6.95763V6.96217V6.96672V6.97126V6.9758V6.98034V6.98488V6.98942V6.99396V6.9985V7.00304V7.00758V7.01213V7.01667V7.02121V7.02575V7.03029V7.03483V7.03937V7.04391V7.04845V7.053V7.05754V7.06208V7.06662V7.07117V7.07571V7.08025V7.08479V7.08934V7.09388V7.09843V7.10297V7.10752V7.11206V7.11661V7.12115V7.1257V7.13025V7.13479V7.13934V7.14389V7.14844V7.15299V7.15754V7.16209V7.16664V7.17119V7.17574V7.1803V7.18485V7.1894V7.19396V7.19851V7.20307V7.20763V7.21218V7.21674V7.2213V7.22586V7.23042V7.23498V7.23955V7.24411V7.24867V7.25324V7.2578V7.26237V7.26694V7.27151V7.27608V7.28065V7.28522V7.28979V7.29436V7.29894V7.30351V7.30809V7.31267V7.31724V7.32182V7.3264V7.33099V7.33557V7.34015V7.34474V7.34933V7.35391V7.3585V7.36309V7.36768V7.37228V7.37687V7.38146V7.38606V7.39066V7.39526V7.39986V7.40446V7.40907V7.41367V7.41828V7.42288V7.42749V7.4321V7.43672V7.44133V7.44594V7.45056V7.45518V7.4598V7.46442V7.46904V7.47367V7.4783V7.48292V7.48755V7.49218V7.49682V7.50145V7.50609V7.51073V7.51537V7.52001V7.52465V7.5293V7.53394V7.53859V7.54324V7.5479V7.55255V7.55721V7.56187V7.56653V7.57119V7.57585V7.58052V7.58519V7.58986V7.59453V7.59921V7.60388V7.60856V7.61324V7.61792V7.62261V7.62729V7.63198V7.63667V7.64137V7.64606V7.65076V7.65546V7.66016V7.66487V7.66958V7.67428V7.679V7.68371V7.68843V7.69314V7.69787V7.70259V7.70731V7.71204V7.71677V7.72151V7.72624V7.73098V7.73572V7.74046V7.74521V7.74996V7.75471V7.75946V7.76422V7.76898V7.77374V7.7785V7.78327V7.78804V7.79281V7.79758V7.80236V7.80714V7.81192V7.81671V7.8215V7.82629V7.83108V7.83588V7.84068V7.84548V7.85028V7.85509V7.8599V7.86472V7.86953V7.87435V7.87918V7.884V7.88883V7.89366V7.8985V7.90334V7.90818V7.91302V7.91787V7.92272V7.92757V7.93243V7.93729V7.94215V7.94702V7.95189V7.95676V7.96164V7.96652V7.9714V7.97628V7.98117V7.98606V7.99096V7.99586V8.00076V8.00567V8.01058V8.01549V8.0204V8.02532V8.03025V8.03517V8.0401V8.04504V8.04997V8.05491V8.05986V8.06481V8.06976V8.07471V8.07967V8.08463V8.0896V8.09457V8.09954V8.10452V8.1095V8.11448V8.11947V8.12446V8.12946V8.13446V8.13946V8.14447V8.14948V8.15449V8.15951V8.16453V8.16956V8.17459V8.17962V8.18466V8.1897V8.19475V8.1998V8.20485V8.20991V8.21497V8.22004V8.22511V8.23019V8.23526V8.24035V8.24543V8.25052V8.25562V8.26072V8.26582V8.27093V8.27604V8.28116V8.28628V8.2914V8.29653V8.30167V8.3068V8.31194V8.31709V8.32224V8.3274V8.33256V8.33772V8.34289V8.34806V8.35324V8.35842V8.36361V8.3688V8.37399V8.37919V8.3844V8.38961V8.39482V8.40004V8.40526V8.41049V8.41572V8.42096V8.4262V8.43145V8.4367V8.44195V8.44722V8.45248V8.45775V8.46303V8.46831V8.47359V8.47888V8.48417V8.48947V8.49478V8.50009V8.5054V8.51072V8.51604V8.52137V8.5267V8.53204V8.53739V8.54274V8.54809V8.55345V8.55881V8.56418V8.56956V8.57494V8.58032V8.58571V8.59111V8.59651V8.60191V8.60732V8.61274V8.61816V8.62359V8.62902V8.63445V8.6399V8.64534V8.6508V8.65626V8.66172V8.66719V8.67266V8.67814V8.68363V8.68912V8.69462V8.70012V8.70563V8.71114V8.71666V8.72218V8.72771V8.73325V8.73879V8.74433V8.74989V8.75544V8.76101V8.76658V8.77215V8.77773V8.78332V8.78891V8.79451V8.80011V8.80572V8.81133V8.81696V8.82258V8.82822V8.83385V8.8395V8.84515V8.85081V8.85647V8.86214V8.86781V8.87349V8.87918V8.88487V8.89057V8.89627V8.90198V8.9077V8.91342V8.91915V8.92488V8.93062V8.93637V8.94212V8.94788V8.95365V8.95942V8.9652V8.97098V8.97677V8.98257V8.98837V8.99418V9V12.5C15 13.0523 14.5523 13.5 14 13.5H5C4.44772 13.5 4 13.0523 4 12.5V11.5H11C12.1046 11.5 13 10.6046 13 9.5V6V5.99418V5.98837V5.98257V5.97677V5.97098V5.9652V5.95942V5.95365V5.94788V5.94212V5.93637V5.93062V5.92488V5.91915V5.91342V5.9077V5.90198V5.89627V5.89057V5.88487V5.87918V5.87349V5.86781V5.86214V5.85647V5.85081V5.84515V5.8395V5.83385V5.82822V5.82258V5.81696V5.81133V5.80572V5.80011V5.79451V5.78891V5.78332V5.77773V5.77215V5.76658V5.76101V5.75544V5.74989V5.74433V5.73879V5.73325V5.72771V5.72218V5.71666V5.71114V5.70563V5.70012V5.69462V5.68912V5.68363V5.67814V5.67266V5.66719V5.66172V5.65626V5.6508V5.64534V5.6399V5.63445V5.62902V5.62359V5.61816V5.61274V5.60732V5.60191V5.59651V5.59111V5.58571V5.58032V5.57494V5.56956V5.56418V5.55881V5.55345V5.54809V5.54274V5.53739V5.53204V5.5267V5.52137V5.51604V5.51072V5.5054V5.50009ZM1.04999 3.18693C1.01755 3.28541 1 3.39066 1 3.5V9.5C1 10.0523 1.44772 10.5 2 10.5H11C11.5523 10.5 12 10.0523 12 9.5V6V5.99418V5.98837V5.98257V5.97677V5.97098V5.9652V5.95942V5.95365V5.94788V5.94212V5.93637V5.93062V5.92488V5.91915V5.91342V5.9077V5.90198V5.89627V5.89057V5.88487V5.87918V5.87349V5.86781V5.86214V5.85647V5.85081V5.84515V5.8395V5.83385V5.82822V5.82258V5.81696V5.81133V5.80572V5.80011V5.79451V5.78891V5.78332V5.77773V5.77215V5.76658V5.76101V5.75544V5.74989V5.74433V5.73879V5.73325V5.72771V5.72218V5.71666V5.71114V5.70563V5.70012V5.69462V5.68912V5.68363V5.67814V5.67266V5.66719V5.66172V5.65626V5.6508V5.64534V5.6399V5.63445V5.62902V5.62359V5.61816V5.61274V5.60732V5.60191V5.59651V5.59111V5.58571V5.58032V5.57494V5.56956V5.56418V5.55881V5.55345V5.54809V5.54274V5.53739V5.53204V5.5267V5.52137V5.51604V5.51072V5.5054V5.50009V5.49478V5.48947V5.48417V5.47888V5.47359V5.46831V5.46303V5.45775V5.45248V5.44721V5.44195V5.4367V5.43145V5.4262V5.42096V5.41572V5.41049V5.40526V5.40004V5.39482V5.38961V5.3844V5.37919V5.37399V5.3688V5.36361V5.35842V5.35324V5.34806V5.34289V5.33772V5.33256V5.3274V5.32224V5.31709V5.31194V5.3068V5.30167V5.29653V5.2914V5.28628V5.28116V5.27604V5.27093V5.26582V5.26072V5.25562V5.25052V5.24543V5.24035V5.23526V5.23019V5.22511V5.22004V5.21497V5.20991V5.20485V5.1998V5.19475V5.1897V5.18466V5.17962V5.17459V5.16956V5.16453V5.15951V5.15449V5.14948V5.14447V5.13946V5.13446V5.12946V5.12446V5.11947V5.11448V5.1095V5.10452V5.09954V5.09457V5.0896V5.08463V5.07967V5.07471V5.06976V5.06481V5.05986V5.05491V5.04997V5.04504V5.0401V5.03517V5.03025V5.02532V5.02041V5.01549V5.01058V5.00567V5.00076V4.99586V4.99096V4.98606V4.98117V4.97628V4.9714V4.96652V4.96164V4.95676V4.95189V4.94702V4.94215V4.93729V4.93243V4.92757V4.92272V4.91787V4.91302V4.90818V4.90334V4.8985V4.89366V4.88883V4.884V4.87918V4.87435V4.86953V4.86472V4.8599V4.85509V4.85028V4.84548V4.84068V4.83588V4.83108V4.82629V4.8215V4.81671V4.81192V4.80714V4.80236V4.79758V4.79281V4.78804V4.78327V4.7785V4.77374V4.76898V4.76422V4.75946V4.75471V4.74996V4.74521V4.74046V4.73572V4.73098V4.72624V4.72151V4.71677V4.71204V4.70731V4.70259V4.69787V4.69315V4.68843V4.68371V4.679V4.67428V4.66958V4.66487V4.66016V4.65546V4.65076V4.64606V4.64137V4.63667V4.63198V4.62729V4.62261V4.61792V4.61324V4.60856V4.60388V4.5992V4.59453V4.58986V4.58519V4.58052V4.57585V4.57119V4.56653V4.56187V4.55721V4.55255V4.5479V4.54324V4.53859V4.53394V4.5293V4.52465V4.52001V4.51537V4.51073V4.50609V4.50145V4.49682V4.49218V4.48755V4.48292V4.4783V4.47367V4.46904V4.46442V4.4598V4.45518V4.45056V4.44595V4.44133V4.43672V4.4321V4.42749V4.42288V4.41828V4.41367V4.40907V4.40446V4.39986V4.39526V4.39066V4.38606V4.38147V4.37687V4.37228V4.36768V4.36309V4.3585V4.35391V4.34933V4.34474V4.34015V4.33557V4.33099V4.3264V4.32182V4.31724V4.31267V4.30809V4.30351V4.29894V4.29436V4.28979V4.28522V4.28065V4.27608V4.27151V4.26694V4.26237V4.2578V4.25324V4.24867V4.24411V4.23955V4.23498V4.23042V4.22586V4.2213V4.21674V4.21219V4.20763V4.20307V4.19851V4.19396V4.1894V4.18485V4.1803V4.17574V4.17119V4.16664V4.16209V4.15754V4.15299V4.14844V4.14389V4.13934V4.13479V4.13025V4.1257V4.12115V4.11661V4.11206V4.10752V4.10297V4.09843V4.09388V4.08934V4.08479V4.08025V4.07571V4.07116V4.06662V4.06208V4.05754V4.053V4.04845V4.04391V4.03937V4.03483V4.03029V4.02575V4.02121V4.01667V4.01212V4.00758V4.00304V3.9985V3.99396V3.98942V3.98488V3.98034V3.9758V3.97126V3.96672V3.96217V3.95763V3.95309V3.94855V3.94401V3.93947V3.93492V3.93038V3.92584V3.9213V3.91675V3.91221V3.90767V3.90312V3.89858V3.89403V3.88949V3.88494V3.88039V3.87585V3.8713V3.86675V3.86221V3.85766V3.85311V3.84856V3.84401V3.83946V3.83491V3.83036V3.82581V3.82125V3.8167V3.81215V3.80759V3.80304V3.79848V3.79392V3.78937V3.78481V3.78025V3.77569V3.77113V3.76657V3.76201V3.75744V3.75288V3.74832V3.74375V3.73918V3.73462V3.73005V3.72548V3.72091V3.71634V3.71177V3.70719V3.70262V3.69805V3.69347V3.68889V3.68431V3.67974V3.67516V3.67057V3.66599V3.66141V3.65682V3.65224V3.64765V3.64306V3.63847V3.63388V3.62929V3.62469V3.6201V3.6155V3.61091V3.60631V3.60171V3.59711V3.5925V3.5879V3.58329V3.57868V3.57408V3.56947V3.56485V3.56024V3.55563V3.55101V3.54639V3.54177V3.53715V3.53253V3.52791V3.52328V3.51865V3.51402V3.50939V3.50476V3.50013C12 3.39075 11.9824 3.28547 11.95 3.18695L7.13324 7.12793C6.76487 7.42932 6.23513 7.42932 5.86676 7.12793L1.04999 3.18693ZM1.81132 2.51777L6.5 6.35397L11.1887 2.51778C11.1276 2.50611 11.0645 2.5 11 2.5H2C1.9355 2.5 1.87242 2.50611 1.81132 2.51777Z" fill="black"/>
</svg>
