<!--
 * Copyright (c) 2023, WSO2 LLC. (https://www.wso2.com). All Rights Reserved.
 *
 * WSO2 LLC. licenses this file to you under the Apache License,
 * Version 2.0 (the "License"); you may not use this file except
 * in compliance with the License.
 * You may obtain a copy of the License at
 *
 *     http://www.apache.org/licenses/LICENSE-2.0
 *
 * Unless required by applicable law or agreed to in writing,
 * software distributed under the License is distributed on an
 * "AS IS" BASIS, WITHOUT WARRANTIES OR CONDITIONS OF ANY
 * KIND, either express or implied. See the License for the
 * specific language governing permissions and limitations
 * under the License.
-->

<svg width="16" height="16" viewBox="0 0 16 16" fill="none" xmlns="http://www.w3.org/2000/svg">
    <path fill-rule="evenodd" clip-rule="evenodd" d="M7.99969 2C5.38552 2 2.88413 3.04002 0.456376 7.21515L0 8L0.456376 8.78485L0.677111 9.15847C3.03624 13.0871 5.46521 14 7.99969 14C10.6138 14 13.1152 12.96 15.543 8.78485L16 7.99892L15.3234 6.84341C12.9631 2.91293 10.5342 2 7.99969 2ZM8.21026 3.09654C10.3162 3.20912 12.4309 3.92049 14.5603 7.46652L14.8724 8.00109L14.7751 8.16996C12.503 12.0775 10.2462 12.9091 7.99969 12.9091C5.82409 12.9091 3.63943 12.1977 1.43904 8.53348L1.12513 7.99891L1.22426 7.83004C3.49642 3.9225 5.75314 3.09091 7.99969 3.09091L8.21026 3.09654ZM8 5C9.65685 5 11 6.34315 11 8C11 9.65685 9.65685 11 8 11C6.34315 11 5 9.65685 5 8C5 6.34315 6.34315 5 8 5ZM8 6C6.89543 6 6 6.89543 6 8C6 9.10457 6.89543 10 8 10C9.10457 10 10 9.10457 10 8C10 6.89543 9.10457 6 8 6Z" fill="#40404B"/>
        <mask id="mask0_421_1547" maskUnits="userSpaceOnUse" x="0" y="2" width="16" height="12">
    <path fill-rule="evenodd" clip-rule="evenodd" d="M7.99969 2C5.38552 2 2.88413 3.04002 0.456376 7.21515L0 8L0.456376 8.78485L0.677111 9.15847C3.03624 13.0871 5.46521 14 7.99969 14C10.6138 14 13.1152 12.96 15.543 8.78485L16 7.99892L15.3234 6.84341C12.9631 2.91293 10.5342 2 7.99969 2ZM8.21026 3.09654C10.3162 3.20912 12.4309 3.92049 14.5603 7.46652L14.8724 8.00109L14.7751 8.16996C12.503 12.0775 10.2462 12.9091 7.99969 12.9091C5.82409 12.9091 3.63943 12.1977 1.43904 8.53348L1.12513 7.99891L1.22426 7.83004C3.49642 3.9225 5.75314 3.09091 7.99969 3.09091L8.21026 3.09654ZM8 5C9.65685 5 11 6.34315 11 8C11 9.65685 9.65685 11 8 11C6.34315 11 5 9.65685 5 8C5 6.34315 6.34315 5 8 5ZM8 6C6.89543 6 6 6.89543 6 8C6 9.10457 6.89543 10 8 10C9.10457 10 10 9.10457 10 8C10 6.89543 9.10457 6 8 6Z" fill="white"/>
        </mask>
    <g mask="url(#mask0_421_1547)">
    </g>
</svg>
