<!--
 * Copyright (c) 2023, WSO2 LLC. (https://www.wso2.com). All Rights Reserved.
 *
 * WSO2 LLC. licenses this file to you under the Apache License,
 * Version 2.0 (the "License"); you may not use this file except
 * in compliance with the License.
 * You may obtain a copy of the License at
 *
 *     http://www.apache.org/licenses/LICENSE-2.0
 *
 * Unless required by applicable law or agreed to in writing,
 * software distributed under the License is distributed on an
 * "AS IS" BASIS, WITHOUT WARRANTIES OR CONDITIONS OF ANY
 * KIND, either express or implied. See the License for the
 * specific language governing permissions and limitations
 * under the License.
-->

<svg width="16" height="16" viewBox="0 0 16 16" fill="none" xmlns="http://www.w3.org/2000/svg">
    <path fill-rule="evenodd" clip-rule="evenodd" d="M1.14645 1.14645C1.32001 0.97288 1.58944 0.953595 1.78431 1.08859L1.85355 1.14645L3.91036 3.20325L4.67167 3.96457L6.26173 5.55463L6.98402 6.27691L9.72309 9.01598L10.4454 9.73827L12.1536 11.4465L12.8849 12.1778L14.8536 14.1464C15.0488 14.3417 15.0488 14.6583 14.8536 14.8536C14.68 15.0271 14.4106 15.0464 14.2157 14.9114L14.1464 14.8536L12.0894 12.7965L12.0894 12.7965C11.7922 12.9986 11.4938 13.1704 11.1939 13.3153L11.194 13.3153C10.1467 13.8214 9.08288 14 7.99969 14C6.09654 14 4.25288 13.4852 2.45361 11.5654C1.85674 10.9285 1.26476 10.1371 0.677111 9.15847C0.67711 9.15847 0.677113 9.15846 0.677111 9.15846L0.456376 8.78485V8.78484L0 8V7.99999L0.456376 7.21515V7.21514C1.33232 5.70874 2.21785 4.61046 3.1148 3.82191L1.14645 1.85355C0.951184 1.65829 0.951184 1.34171 1.14645 1.14645ZM3.84608 4.55319C3.60264 4.75444 3.35904 4.9813 3.11528 5.2366L3.11529 5.23661C2.48606 5.89561 1.85576 6.74402 1.22426 7.83004L1.12513 7.9989V7.99891L1.43904 8.53346C1.53581 8.69463 1.63256 8.85008 1.72928 9.00001C2.18232 9.70229 2.6347 10.2834 3.08649 10.763C4.73119 12.5089 6.36799 12.9091 7.99969 12.9091C9.10647 12.9091 10.2157 12.7072 11.3281 12.0352L9.73827 10.4454L9.73826 10.4454C9.45126 10.6497 9.12675 10.8049 8.77706 10.8984L8.77706 10.8984C8.52922 10.9647 8.26874 11 8 11C7.09699 11 6.28716 10.601 5.73718 9.96974C5.27804 9.44274 5 8.75384 5 7.99999C5 7.73126 5.03534 7.47078 5.10161 7.22294C5.19513 6.87325 5.35024 6.54873 5.55462 6.26173L3.84609 4.5532L3.84608 4.55319ZM6.27691 6.98401C6.10096 7.28177 6 7.62909 6 7.99999C6 8.04203 6.0013 8.08377 6.00385 8.12517C6.01161 8.25078 6.03096 8.37325 6.06085 8.49153C6.27991 9.35843 7.06504 9.99999 8 9.99999C8.3709 9.99999 8.71822 9.89903 9.01598 9.72308L6.27691 6.98402L6.27691 6.98401ZM13.6002 11.4788L12.8844 10.7631C13.5135 10.1041 14.1437 9.2558 14.7751 8.16996L14.8724 8.00109L14.5603 7.46652C12.4309 3.92049 10.3162 3.20912 8.21026 3.09654L7.99969 3.09091C7.20792 3.09091 6.41489 3.1942 5.62036 3.49904L4.80584 2.68452C5.85296 2.17851 6.91664 2 7.99969 2C10.5342 2 12.9631 2.91293 15.3234 6.84341L16 7.99892L15.543 8.78485C14.9008 9.8893 14.2534 10.7744 13.6002 11.4788ZM7.22294 5.10161C7.47078 5.03534 7.73126 5 8 5C9.65685 5 11 6.34315 11 8C11 8.26874 10.9647 8.52922 10.8984 8.77706L7.22294 5.10161Z" fill="#40404B"/>
</svg>
