<!--
 * Copyright (c) 2023, WSO2 LLC. (https://www.wso2.com). All Rights Reserved.
 *
 * WSO2 LLC. licenses this file to you under the Apache License,
 * Version 2.0 (the "License"); you may not use this file except
 * in compliance with the License.
 * You may obtain a copy of the License at
 *
 *     http://www.apache.org/licenses/LICENSE-2.0
 *
 * Unless required by applicable law or agreed to in writing,
 * software distributed under the License is distributed on an
 * "AS IS" BASIS, WITHOUT WARRANTIES OR CONDITIONS OF ANY
 * KIND, either express or implied. See the License for the
 * specific language governing permissions and limitations
 * under the License.
-->

<svg width="16" height="16" viewBox="0 0 16 16" fill="none" xmlns="http://www.w3.org/2000/svg">
    <path fill-rule="evenodd" clip-rule="evenodd" d="M14.1384 4.50945L13.8267 4.82043L13.8981 4.95099C14.0694 5.28182 14.2127 5.62687 14.3261 5.98285L14.3687 6.12698L14.8085 6.12766C15.3812 6.12766 15.8658 6.53358 15.9786 7.10739L15.9946 7.21034L16 7.31915V8.68085C16 9.28727 15.5449 9.79488 14.9173 9.86691L14.8085 9.87234L14.3687 9.87166L14.3263 10.0166C14.2129 10.3727 14.0696 10.7179 13.8982 11.0488L13.8267 11.1782L14.1383 11.4904C14.5762 11.9283 14.602 12.6224 14.2156 13.0904L14.1383 13.1754L13.1754 14.1383C12.7101 14.6036 11.9557 14.6036 11.4906 14.1384L11.1782 13.8267L11.0488 13.8982C10.7179 14.0696 10.3727 14.2129 10.0166 14.3263L9.87166 14.3687L9.87234 14.8085C9.87234 15.4337 9.3909 15.9463 8.77857 15.9961L8.68085 16H7.31915C6.66111 16 6.12766 15.4666 6.12766 14.8089L6.12698 14.3687L5.98285 14.3261C5.62687 14.2127 5.28182 14.0694 4.95099 13.8981L4.82043 13.8267L4.5096 14.1383C4.07167 14.5762 3.37764 14.602 2.90958 14.2156L2.82458 14.1383L1.86171 13.1754C1.39641 12.7101 1.39641 11.9557 1.86156 11.4906L2.1726 11.1782L2.10182 11.0488C1.93043 10.7179 1.78712 10.3727 1.6737 10.0166L1.63064 9.87166L1.19149 9.87234C0.56635 9.87234 0.0536559 9.3909 0.00394971 8.77857L0 8.68085V7.31915C0 6.66111 0.533448 6.12766 1.19111 6.12766L1.63064 6.12698L1.67387 5.98285C1.78728 5.62687 1.93056 5.28182 2.10191 4.95099L2.1726 4.82043L1.86171 4.5096C1.46073 4.10863 1.402 3.48697 1.71944 3.0012L1.78338 2.9118L1.86171 2.82458L2.82458 1.86171C3.25062 1.43567 3.92578 1.39599 4.42238 1.78338L4.50945 1.86156L4.82111 2.1726L4.95116 2.10182C5.2821 1.93043 5.62727 1.78712 5.98339 1.6737L6.12766 1.63064V1.19149C6.12766 0.618759 6.53358 0.134164 7.10739 0.0214085L7.21034 0.00542797L7.31915 0H8.68085C9.28727 0 9.79488 0.455083 9.86691 1.08268L9.87234 1.19111V1.63064L10.0172 1.67387C10.3731 1.78728 10.7182 1.93056 11.049 2.10191L11.1789 2.1726L11.4904 1.86171C11.8914 1.46073 12.513 1.402 12.9988 1.71944L13.0882 1.78338L13.1754 1.86171L14.1383 2.82458C14.5643 3.25062 14.604 3.92578 14.2166 4.42238L14.1384 4.50945ZM12.9493 5.30008L13.015 5.42042C13.1568 5.6953 13.2756 5.98157 13.3702 6.27665L13.4096 6.41012L13.6209 7.12582L14.3671 7.12698L14.807 7.12766H14.8085C14.8854 7.12766 14.9677 7.17673 14.9946 7.28754L14.9984 7.31222L15 7.34407V8.68085C15 8.72892 14.9833 8.76944 14.9536 8.80207C14.9271 8.83135 14.8853 8.85901 14.8242 8.87031L14.7843 8.8723L14.3702 8.87166L13.6195 8.8705L13.4089 9.59105L13.37 9.72404C13.2756 10.0182 13.1572 10.3035 13.0161 10.5776L12.9514 10.6947L12.588 11.3526L13.1189 11.8846L13.4305 12.1968L13.4312 12.1975C13.4979 12.2642 13.5052 12.3689 13.4527 12.443L13.4144 12.4851L12.4683 13.4312C12.3935 13.506 12.2722 13.5059 12.1977 13.4313L12.197 13.4306L11.8846 13.1189L11.3526 12.588L10.6947 12.9514L10.5776 13.0161C10.3035 13.1572 10.0182 13.2756 9.72404 13.37L9.59105 13.4089L8.8705 13.6195L8.87166 14.3702L8.87234 14.8085L8.87234 14.809C8.87209 14.9048 8.80088 14.9848 8.70915 14.998L8.66065 15H7.31915C7.21319 15 7.12766 14.9141 7.12766 14.8089L7.12766 14.8073L7.12698 14.3671L7.12582 13.6209L6.41012 13.4096L6.27665 13.3702C5.98157 13.2756 5.6953 13.1568 5.42042 13.015L5.30008 12.9493L4.64209 12.5896L4.11248 13.1205L3.80249 13.4312L3.80239 13.4313C3.73571 13.4979 3.63104 13.5052 3.55699 13.4527L3.51489 13.4144L2.56882 12.4683C2.49396 12.3935 2.49412 12.2722 2.56867 12.1977L2.57015 12.1962L2.88118 11.8838L3.4087 11.3541L3.04989 10.6983L2.98479 10.5793C2.84295 10.3041 2.72403 10.0175 2.62939 9.72208L2.58924 9.58691L2.37643 8.8705L1.62909 8.87166L1.19149 8.87234L1.19098 8.87234C1.09519 8.87209 1.01515 8.80088 1.00196 8.70913L1 8.66065V7.31915C1 7.21319 1.08594 7.12766 1.19111 7.12766L1.19266 7.12766L1.63219 7.12698L2.37506 7.12582L2.58848 6.41427L2.62916 6.27863C2.72407 5.98224 2.84342 5.69473 2.98583 5.41872L3.05198 5.29654L3.40711 4.64062L2.87963 4.11325L2.56882 3.80249L2.56875 3.80243C2.5368 3.77045 2.52053 3.73331 2.51675 3.69325C2.51319 3.65558 2.52039 3.60903 2.5494 3.55975L2.56448 3.53867L2.58779 3.51271L3.53169 2.56882C3.5654 2.53511 3.60535 2.51843 3.64887 2.51617C3.68765 2.51415 3.73673 2.52356 3.78878 2.55843L3.82173 2.58801L4.11471 2.88041L4.64324 3.40789L5.29912 3.05095L5.41979 2.98528C5.69544 2.84314 5.98254 2.72399 6.2785 2.62921L6.41364 2.58887L7.12766 2.37578V1.63064V1.19149C7.12766 1.11462 7.17673 1.03232 7.28754 1.00542L7.31222 1.00159L7.34408 1H8.68085C8.72892 1 8.76943 1.01672 8.80207 1.04635C8.83136 1.07294 8.85903 1.1147 8.87033 1.17583L8.87234 1.21611V1.63064V2.37573L9.5863 2.58885L9.72196 2.62935C10.0178 2.72413 10.3048 2.84325 10.5804 2.98535L10.7009 3.05093L11.3567 3.4079L11.8853 2.88041L12.1968 2.56953L12.1975 2.56882C12.2295 2.53682 12.2667 2.52053 12.3068 2.51675C12.3444 2.51319 12.391 2.52039 12.4402 2.5494L12.4613 2.56448L12.4873 2.5878L13.4312 3.53169C13.4649 3.5654 13.4816 3.60535 13.4838 3.64887C13.4858 3.68765 13.4764 3.73673 13.4416 3.78878L13.4127 3.82092L13.1205 4.11248L12.5896 4.64209L12.9493 5.30008ZM11 8C11 9.65685 9.65685 11 8 11C6.34315 11 5 9.65685 5 8C5 6.34315 6.34315 5 8 5C9.65685 5 11 6.34315 11 8ZM12 8C12 10.2091 10.2091 12 8 12C5.79086 12 4 10.2091 4 8C4 5.79086 5.79086 4 8 4C10.2091 4 12 5.79086 12 8Z" fill="black"/>
</svg>
