<!--
 * Copyright (c) 2023, WSO2 LLC. (https://www.wso2.com).
 *
 * WSO2 LLC. licenses this file to you under the Apache License,
 * Version 2.0 (the "License"); you may not use this file except
 * in compliance with the License.
 * You may obtain a copy of the License at
 *
 *     http://www.apache.org/licenses/LICENSE-2.0
 *
 * Unless required by applicable law or agreed to in writing,
 * software distributed under the License is distributed on an
 * "AS IS" BASIS, WITHOUT WARRANTIES OR CONDITIONS OF ANY
 * KIND, either express or implied. See the License for the
 * specific language governing permissions and limitations
 * under the License.
-->

<svg width="16" height="16" viewBox="0 0 16 16" fill="none" xmlns="http://www.w3.org/2000/svg">
  <path fill-rule="evenodd" clip-rule="evenodd" d="M8.5974 1.15317L13.9323 4.11294C14.2966 4.31501 14.5 4.67398 14.5 5.04023V10.9598C14.5 11.326 14.2966 11.685 13.9323 11.8871L8.5974 14.8468C8.22928 15.0511 7.77072 15.0511 7.4026 14.8468L2.06766 11.8871C1.70343 11.685 1.5 11.326 1.5 10.9598V5.04023C1.5 4.67398 1.70343 4.31501 2.06766 4.11294L7.4026 1.15317C7.77072 0.948943 8.22928 0.948943 8.5974 1.15317ZM6.91747 0.278729C7.58734 -0.0929097 8.41266 -0.0929096 9.08253 0.278729L14.4175 3.2385C15.0873 3.61014 15.5 4.29695 15.5 5.04023V10.9598C15.5 11.703 15.0873 12.3899 14.4175 12.7615L9.08253 15.7213C8.41266 16.0929 7.58734 16.0929 6.91747 15.7213L1.58253 12.7615C0.912659 12.3899 0.5 11.703 0.5 10.9598V5.04023C0.5 4.29695 0.912659 3.61014 1.58253 3.2385L6.91747 0.278729ZM5.69948 10.7046V11.5001H10.4864V10.559H7.21227V10.5058L8.65758 8.99299C9.10029 8.54318 9.44593 8.16084 9.69451 7.84597C9.94309 7.52873 10.1171 7.24109 10.2165 6.98304C10.3183 6.72499 10.3692 6.46103 10.3692 6.19114C10.3692 5.80052 10.271 5.45014 10.0745 5.14C9.87799 4.8275 9.60455 4.58129 9.25417 4.40137C8.90616 4.21908 8.5037 4.12793 8.04679 4.12793C7.59461 4.12793 7.19096 4.22026 6.83585 4.40492C6.48073 4.58721 6.20138 4.84408 5.99778 5.17552C5.79418 5.50695 5.69238 5.89403 5.69238 6.33674H6.73997C6.73997 6.07632 6.79205 5.84905 6.89622 5.65492C7.00038 5.46079 7.14953 5.31046 7.34366 5.20392C7.53779 5.09739 7.76506 5.04412 8.02548 5.04412C8.27169 5.04412 8.49305 5.09266 8.68954 5.18972C8.88604 5.28442 9.0411 5.42054 9.15474 5.5981C9.26838 5.77329 9.3252 5.98162 9.3252 6.2231C9.3252 6.43617 9.28258 6.6374 9.19736 6.82679C9.11213 7.01619 8.9831 7.21624 8.81028 7.42694C8.63983 7.63527 8.42321 7.87793 8.16042 8.15492L5.69948 10.7046Z" fill="black"/>
</svg>
