<!--
 * Copyright (c) 2023, WSO2 LLC. (https://www.wso2.com). All Rights Reserved.
 *
 * WSO2 LLC. licenses this file to you under the Apache License,
 * Version 2.0 (the "License"); you may not use this file except
 * in compliance with the License.
 * You may obtain a copy of the License at
 *
 *     http://www.apache.org/licenses/LICENSE-2.0
 *
 * Unless required by applicable law or agreed to in writing,
 * software distributed under the License is distributed on an
 * "AS IS" BASIS, WITHOUT WARRANTIES OR CONDITIONS OF ANY
 * KIND, either express or implied. See the License for the
 * specific language governing permissions and limitations
 * under the License.
-->

<svg width="16" height="16" viewBox="0 0 16 16" fill="none" xmlns="http://www.w3.org/2000/svg">
<path fill-rule="evenodd" clip-rule="evenodd" d="M5.33333 0C4.59695 0 4 0.596954 4 1.33333V3.66667C4 4.40305 4.59695 5 5.33333 5H10.6667C11.403 5 12 4.40305 12 3.66667V1.33333C12 0.596954 11.403 0 10.6667 0H5.33333ZM10.6667 1H5.33333C5.14924 1 5 1.14924 5 1.33333V3.66667C5 3.85076 5.14924 4 5.33333 4H10.6667C10.8508 4 11 3.85076 11 3.66667V1.33333C11 1.14924 10.8508 1 10.6667 1Z" fill="black"/>
<path fill-rule="evenodd" clip-rule="evenodd" d="M0 11.3C0 10.582 0.582025 10 1.3 10H2.7C3.41798 10 4 10.582 4 11.3V14.7C4 15.418 3.41797 16 2.7 16H1.3C0.582033 16 0 15.418 0 14.7V11.3ZM1.3 11C1.13431 11 1 11.1343 1 11.3V14.7C1 14.8657 1.13431 15 1.3 15H2.7C2.86569 15 3 14.8657 3 14.7V11.3C3 11.1343 2.86569 11 2.7 11H1.3Z" fill="black"/>
<path fill-rule="evenodd" clip-rule="evenodd" d="M6 11.3C6 10.582 6.58203 10 7.3 10H8.7C9.41797 10 10 10.582 10 11.3V14.7C10 15.418 9.41797 16 8.7 16H7.3C6.58203 16 6 15.418 6 14.7V11.3ZM9 11.3C9 11.1343 8.86569 11 8.7 11H7.3C7.13431 11 7 11.1343 7 11.3V14.7C7 14.8657 7.13431 15 7.3 15H8.7C8.86569 15 9 14.8657 9 14.7V11.3Z" fill="black"/>
<path fill-rule="evenodd" clip-rule="evenodd" d="M12 11.3C12 10.582 12.582 10 13.3 10H14.7C15.418 10 16 10.582 16 11.3V14.7C16 15.418 15.418 16 14.7 16H13.3C12.582 16 12 15.418 12 14.7V11.3ZM13.3 11C13.1343 11 13 11.1343 13 11.3V14.7C13 14.8657 13.1343 15 13.3 15H14.7C14.8657 15 15 14.8657 15 14.7V11.3C15 11.1343 14.8657 11 14.7 11H13.3Z" fill="black"/>
<path d="M7.5 5.66667H8.5V7H13.8333C14.2015 7 14.5 7.29848 14.5 7.66667V9H13.5V8H2.5V9H1.5V7.66667C1.5 7.29848 1.79848 7 2.16667 7H7.5V5.66667Z" fill="black"/>
</svg>
