<!--
 * Copyright (c) 2023, WSO2 LLC. (https://www.wso2.com). All Rights Reserved.
 *
 * WSO2 LLC. licenses this file to you under the Apache License,
 * Version 2.0 (the "License"); you may not use this file except
 * in compliance with the License.
 * You may obtain a copy of the License at
 *
 *     http://www.apache.org/licenses/LICENSE-2.0
 *
 * Unless required by applicable law or agreed to in writing,
 * software distributed under the License is distributed on an
 * "AS IS" BASIS, WITHOUT WARRANTIES OR CONDITIONS OF ANY
 * KIND, either express or implied. See the License for the
 * specific language governing permissions and limitations
 * under the License.
-->

<svg width="16" height="16" viewBox="0 0 16 16" fill="none" xmlns="http://www.w3.org/2000/svg">
    <path fill-rule="evenodd" clip-rule="evenodd" d="M5.00013 0C5.27627 0 5.50013 0.223858 5.50013 0.5V1H7.49497H7.50425H9.50013C9.77627 1 10.0001 1.22386 10.0001 1.5C10.0001 1.77614 9.77627 2 9.50013 2H7.95538C7.78802 3.45848 7.25446 5.67729 5.84346 7.75992C6.08727 7.87233 6.33942 7.95796 6.59818 8.00971C6.86896 8.06387 7.04457 8.32728 6.99042 8.59806C6.93626 8.86884 6.67285 9.04445 6.40207 8.99029C5.98941 8.90776 5.60002 8.7629 5.23676 8.57659C4.16654 9.8924 2.69966 11.1013 0.697086 11.9596C0.443271 12.0684 0.149332 11.9508 0.040554 11.697C-0.0682238 11.4431 0.049352 11.1492 0.303167 11.0404C2.08777 10.2756 3.40928 9.20581 4.38402 8.03603C4.09136 7.81409 3.82291 7.57176 3.5809 7.32535C2.85391 6.58514 2.32435 5.76648 2.05291 5.22361C1.92942 4.97662 2.02953 4.67628 2.27652 4.55279C2.52351 4.42929 2.82385 4.5294 2.94734 4.77639C3.17591 5.23352 3.64635 5.96486 4.29435 6.62465C4.51082 6.84505 4.74258 7.0529 4.98725 7.23852C6.27043 5.36652 6.77852 3.36369 6.9485 2H5.00013H0.500127C0.223984 2 0.000126539 1.77614 0.000126539 1.5C0.000126539 1.22386 0.223984 1 0.500127 1H4.50013V0.5C4.50013 0.223858 4.72398 0 5.00013 0ZM7.09126 15.2811C6.96968 15.5291 7.07216 15.8286 7.32014 15.9502C7.56807 16.0718 7.86763 15.9693 7.98915 15.7214L9.44795 12.7458C9.47188 12.7493 9.49629 12.7511 9.52119 12.7511H13.5212C13.546 12.7511 13.5704 12.7493 13.5943 12.7458L15.0531 15.7214C15.1746 15.9693 15.4741 16.0718 15.7221 15.9502C15.97 15.8286 16.0725 15.5291 15.9509 15.2811L11.9892 7.2C11.8994 7.01684 11.7127 6.91308 11.5213 6.92034C11.3298 6.91308 11.1428 7.01684 11.053 7.2L7.09126 15.2811ZM13.1066 11.7511H9.93556L11.5211 8.51696L13.1066 11.7511Z" fill="#40404B"/>
</svg>
