<!--
 * Copyright (c) 2023, WSO2 LLC. (https://www.wso2.com).
 *
 * WSO2 LLC. licenses this file to you under the Apache License,
 * Version 2.0 (the "License"); you may not use this file except
 * in compliance with the License.
 * You may obtain a copy of the License at
 *
 *     http://www.apache.org/licenses/LICENSE-2.0
 *
 * Unless required by applicable law or agreed to in writing,
 * software distributed under the License is distributed on an
 * "AS IS" BASIS, WITHOUT WARRANTIES OR CONDITIONS OF ANY
 * KIND, either express or implied. See the License for the
 * specific language governing permissions and limitations
 * under the License.
-->

<svg width="16" height="16" viewBox="0 0 16 16" fill="none" xmlns="http://www.w3.org/2000/svg">
  <path fill-rule="evenodd" clip-rule="evenodd" d="M8.5 0.5C8.5 0.223858 8.27614 0 8 0C7.72386 0 7.5 0.223858 7.5 0.5V1.5C7.5 1.77614 7.72386 2 8 2C8.27614 2 8.5 1.77614 8.5 1.5V0.5ZM4.68301 1.25488C4.54494 1.01574 4.23915 0.933799 4 1.07187C3.76085 1.20994 3.67892 1.51574 3.81699 1.75488L4.31699 2.62091C4.45506 2.86005 4.76085 2.94199 5 2.80392C5.23915 2.66585 5.32108 2.36005 5.18301 2.12091L4.68301 1.25488ZM12 8C12 10.2091 10.2091 12 8 12C5.79086 12 4 10.2091 4 8C4 5.79086 5.79086 4 8 4C10.2091 4 12 5.79086 12 8ZM9.5 12.7711C9.02648 12.9198 8.5226 13 8 13C7.4774 13 6.97352 12.9198 6.5 12.7711V14C6.5 14.2761 6.72386 14.5 7 14.5H8H9C9.27614 14.5 9.5 14.2761 9.5 14V12.7711ZM8 16C7.72386 16 7.5 15.7761 7.5 15.5H7C6.17157 15.5 5.5 14.8284 5.5 14V12.3311C4.0055 11.4666 3 9.85071 3 8C3 5.23858 5.23858 3 8 3C10.7614 3 13 5.23858 13 8C13 9.85071 11.9945 11.4666 10.5 12.3311V14C10.5 14.8284 9.82843 15.5 9 15.5H8.5C8.5 15.7761 8.27614 16 8 16ZM0.5 7.5C0.223858 7.5 0 7.72386 0 8C0 8.27614 0.223858 8.5 0.5 8.5H1.5C1.77614 8.5 2 8.27614 2 8C2 7.72386 1.77614 7.5 1.5 7.5H0.5ZM14 8C14 7.72386 14.2239 7.5 14.5 7.5H15.5C15.7761 7.5 16 7.72386 16 8C16 8.27614 15.7761 8.5 15.5 8.5H14.5C14.2239 8.5 14 8.27614 14 8ZM12 1.07187C12.2391 1.20994 12.3211 1.51574 12.183 1.75488L11.683 2.62091C11.5449 2.86005 11.2391 2.94199 11 2.80392C10.7609 2.66585 10.6789 2.36005 10.817 2.12091L11.317 1.25488C11.4551 1.01574 11.7609 0.933799 12 1.07187ZM1.07187 12C0.933799 11.7609 1.01574 11.4551 1.25488 11.317L2.12091 10.817C2.36005 10.6789 2.66585 10.7609 2.80392 11C2.94199 11.2391 2.86005 11.5449 2.62091 11.683L1.75488 12.183C1.51574 12.3211 1.20994 12.2391 1.07187 12ZM13.3789 4.31699C13.1398 4.45506 13.0578 4.76085 13.1959 5C13.334 5.23915 13.6398 5.32108 13.8789 5.18301L14.7449 4.68301C14.9841 4.54494 15.066 4.23915 14.9279 4C14.7899 3.76085 14.4841 3.67892 14.2449 3.81699L13.3789 4.31699ZM1.07187 4C1.20994 3.76085 1.51574 3.67892 1.75488 3.81699L2.62091 4.31699C2.86005 4.45506 2.94199 4.76085 2.80392 5C2.66585 5.23915 2.36005 5.32108 2.12091 5.18301L1.25488 4.68301C1.01574 4.54494 0.933799 4.23915 1.07187 4ZM13.8789 10.817C13.6398 10.6789 13.334 10.7609 13.1959 11C13.0578 11.2391 13.1398 11.5449 13.3789 11.683L14.2449 12.183C14.4841 12.3211 14.7899 12.2391 14.9279 12C15.066 11.7609 14.9841 11.4551 14.7449 11.317L13.8789 10.817Z" fill="black"/>
</svg>
