<!--
 * Copyright (c) 2023, WSO2 LLC. (https://www.wso2.com).
 *
 * WSO2 LLC. licenses this file to you under the Apache License,
 * Version 2.0 (the "License"); you may not use this file except
 * in compliance with the License.
 * You may obtain a copy of the License at
 *
 *     http://www.apache.org/licenses/LICENSE-2.0
 *
 * Unless required by applicable law or agreed to in writing,
 * software distributed under the License is distributed on an
 * "AS IS" BASIS, WITHOUT WARRANTIES OR CONDITIONS OF ANY
 * KIND, either express or implied. See the License for the
 * specific language governing permissions and limitations
 * under the License.
-->

<svg width="16" height="16" viewBox="0 0 16 16" fill="none" xmlns="http://www.w3.org/2000/svg">
<path fill-rule="evenodd" clip-rule="evenodd" d="M3 0C2.17157 0 1.5 0.671573 1.5 1.5V5C1.5 5.27614 1.72386 5.5 2 5.5C2.27614 5.5 2.5 5.27614 2.5 5V1.5C2.5 1.22386 2.72386 1 3 1H13C13.2761 1 13.5 1.22386 13.5 1.5V5C13.5 5.27614 13.7239 5.5 14 5.5C14.2761 5.5 14.5 5.27614 14.5 5V1.5C14.5 0.671573 13.8284 0 13 0H3ZM2.5 14C2.5 13.7239 2.27614 13.5 2 13.5C1.72386 13.5 1.5 13.7239 1.5 14V14.5C1.5 15.3284 2.17157 16 3 16H13C13.8284 16 14.5 15.3284 14.5 14.5V14C14.5 13.7239 14.2761 13.5 14 13.5C13.7239 13.5 13.5 13.7239 13.5 14V14.5C13.5 14.7761 13.2761 15 13 15H3C2.72386 15 2.5 14.7761 2.5 14.5V14ZM7.15743 11.8042C6.80917 11.8042 6.48645 11.7419 6.18927 11.6172C5.89209 11.4926 5.63206 11.3194 5.40917 11.0978C5.19093 10.8716 5.02145 10.6061 4.90072 10.3014C4.77999 9.99672 4.71962 9.66431 4.71962 9.3042C4.71962 8.94409 4.77999 8.61168 4.90072 8.30697C5.02145 8.00226 5.19093 7.7391 5.40917 7.5175C5.63206 7.29127 5.89209 7.11583 6.18927 6.99118C6.48645 6.86653 6.80917 6.8042 7.15743 6.8042C7.51033 6.8042 7.83538 6.86653 8.13256 6.99118C8.42974 7.11583 8.68745 7.29127 8.90569 7.5175C9.12393 7.74372 9.29342 8.00919 9.41415 8.31389C9.53488 8.61399 9.59524 8.94409 9.59524 9.3042C9.59524 9.65969 9.53488 9.98979 9.41415 10.2945C9.29342 10.5992 9.12393 10.8647 8.90569 11.0909C8.68745 11.3171 8.42974 11.4926 8.13256 11.6172C7.83538 11.7419 7.51033 11.8042 7.15743 11.8042ZM7.15743 10.9455C7.38032 10.9455 7.58231 10.9062 7.7634 10.8277C7.94914 10.7446 8.10934 10.6292 8.244 10.4815C8.37866 10.3291 8.48314 10.1537 8.55743 9.95517C8.63637 9.75665 8.67584 9.53966 8.67584 9.3042C8.67584 9.06874 8.63637 8.85175 8.55743 8.65323C8.48314 8.45471 8.37866 8.28158 8.244 8.13384C8.10934 7.98148 7.94914 7.86606 7.7634 7.78758C7.58231 7.70448 7.38032 7.66293 7.15743 7.66293C6.93919 7.66293 6.7372 7.70448 6.55146 7.78758C6.36572 7.86606 6.20552 7.97918 6.07086 8.12691C5.9362 8.27465 5.83173 8.44778 5.75743 8.64631C5.68314 8.84483 5.64599 9.06413 5.64599 9.3042C5.64599 9.53966 5.68314 9.75895 5.75743 9.96209C5.83173 10.1606 5.9362 10.3337 6.07086 10.4815C6.20552 10.6292 6.36572 10.7446 6.55146 10.8277C6.7372 10.9062 6.93919 10.9455 7.15743 10.9455ZM1 11.7349V6.8873H1.90547V10.9039H4.15522V11.7349H1ZM11.7751 11.6172C12.0862 11.7419 12.4252 11.8042 12.792 11.8042C13.1032 11.8042 13.391 11.7534 13.6557 11.6518C13.925 11.5457 14.1595 11.3979 14.3592 11.2086C14.5635 11.0193 14.7214 10.7954 14.8328 10.5369C14.9443 10.2737 15 9.98287 15 9.66431C15 9.62276 14.9977 9.57428 14.993 9.51888C14.993 9.45886 14.9907 9.39884 14.9861 9.33883C14.9814 9.27419 14.9745 9.21648 14.9652 9.1657H12.7572V9.96902H14.0736V9.97594C14.0736 10.1144 14.0411 10.2437 13.9761 10.3638C13.9158 10.4838 13.8275 10.59 13.7114 10.6823C13.5954 10.77 13.463 10.8393 13.3144 10.8901C13.1658 10.9409 13.0056 10.9662 12.8338 10.9662C12.6063 10.9662 12.3904 10.9247 12.1861 10.8416C11.9864 10.7539 11.81 10.6338 11.6567 10.4815C11.5035 10.3291 11.3828 10.1514 11.2945 9.94824C11.2109 9.7451 11.1692 9.53042 11.1692 9.3042C11.1692 9.06874 11.2109 8.85175 11.2945 8.65323C11.3781 8.45471 11.4919 8.28158 11.6358 8.13384C11.7844 7.9861 11.9562 7.87068 12.1512 7.78758C12.3509 7.70448 12.5668 7.66293 12.799 7.66293C12.9569 7.66293 13.1101 7.68601 13.2587 7.73218C13.4073 7.77835 13.5489 7.84298 13.6836 7.92608C13.8229 8.00919 13.9575 8.11306 14.0876 8.23772L14.6587 7.64215C14.5333 7.48518 14.3755 7.34437 14.1851 7.21971C13.9947 7.09506 13.7811 6.99811 13.5443 6.92885C13.3075 6.8596 13.0614 6.82497 12.806 6.82497C12.4438 6.82497 12.1048 6.8873 11.7891 7.01196C11.4779 7.13661 11.2063 7.31205 10.9741 7.53827C10.742 7.75988 10.5609 8.02304 10.4308 8.32775C10.3055 8.62784 10.2428 8.95332 10.2428 9.3042C10.2428 9.65969 10.3055 9.98979 10.4308 10.2945C10.5562 10.5946 10.7327 10.8578 10.9602 11.084C11.1924 11.3102 11.464 11.4879 11.7751 11.6172Z" fill="black"/>
</svg>
