<!--
 * Copyright (c) 2023, WSO2 LLC. (https://www.wso2.com).
 *
 * WSO2 LLC. licenses this file to you under the Apache License,
 * Version 2.0 (the "License"); you may not use this file except
 * in compliance with the License.
 * You may obtain a copy of the License at
 *
 *     http://www.apache.org/licenses/LICENSE-2.0
 *
 * Unless required by applicable law or agreed to in writing,
 * software distributed under the License is distributed on an
 * "AS IS" BASIS, WITHOUT WARRANTIES OR CONDITIONS OF ANY
 * KIND, either express or implied. See the License for the
 * specific language governing permissions and limitations
 * under the License.
-->

<svg width="16" height="16" viewBox="0 0 16 16" fill="none" xmlns="http://www.w3.org/2000/svg">
    <path fill-rule="evenodd" clip-rule="evenodd" d="M3 2C3 2.55228 2.55228 3 2 3C1.44772 3 1 2.55228 1 2C1 1.44772 1.44772 1 2 1C2.55228 1 3 1.44772 3 2ZM3.01568 3.72327C2.71799 3.8991 2.37078 4 2 4C0.895431 4 0 3.10457 0 2C0 0.895431 0.895431 0 2 0C3.10457 0 4 0.895431 4 2C4 2.37103 3.89897 2.71847 3.72291 3.01629L5.40364 4.69702C5.98797 4.25928 6.71371 4 7.5 4C8.28614 4 9.01174 4.25918 9.59602 4.69676L11.2769 3.01591C11.1009 2.71817 11 2.37087 11 2C11 0.895431 11.8954 0 13 0C14.1046 0 15 0.895431 15 2C15 3.10457 14.1046 4 13 4C12.6291 4 12.2817 3.89902 11.9839 3.72305L10.3031 5.40385C10.7408 5.98815 11 6.7138 11 7.5C11 8.28629 10.7407 9.01203 10.303 9.59636L12.9837 12.2771C13.2815 12.101 13.629 12 14 12C15.1046 12 16 12.8954 16 14C16 15.1046 15.1046 16 14 16C12.8954 16 12 15.1046 12 14C12 13.6292 12.1009 13.282 12.2767 12.9843L9.59581 10.3034C9.01157 10.7409 8.28604 11 7.5 11C6.8388 11 6.22043 10.8167 5.69294 10.498L4.61325 11.8177C4.85639 12.1488 5 12.5576 5 13C5 14.1046 4.10457 15 3 15C1.89543 15 1 14.1046 1 13C1 11.8954 1.89543 11 3 11C3.29981 11 3.58421 11.066 3.83949 11.1842L4.91933 9.86438C4.34842 9.24157 4 8.41148 4 7.5C4 6.71396 4.25912 5.98844 4.6966 5.40419L3.01568 3.72327ZM14 2C14 2.55228 13.5523 3 13 3C12.4477 3 12 2.55228 12 2C12 1.44772 12.4477 1 13 1C13.5523 1 14 1.44772 14 2ZM14 15C14.5523 15 15 14.5523 15 14C15 13.4477 14.5523 13 14 13C13.4477 13 13 13.4477 13 14C13 14.5523 13.4477 15 14 15ZM4 13C4 13.5523 3.55228 14 3 14C2.44772 14 2 13.5523 2 13C2 12.4477 2.44772 12 3 12C3.55228 12 4 12.4477 4 13ZM7.5 10C8.88071 10 10 8.88071 10 7.5C10 6.11929 8.88071 5 7.5 5C6.11929 5 5 6.11929 5 7.5C5 8.88071 6.11929 10 7.5 10Z" fill="black"/>
</svg>
