<!--
 * Copyright (c) 2023, WSO2 LLC. (https://www.wso2.com).
 *
 * WSO2 LLC. licenses this file to you under the Apache License,
 * Version 2.0 (the "License"); you may not use this file except
 * in compliance with the License.
 * You may obtain a copy of the License at
 *
 *     http://www.apache.org/licenses/LICENSE-2.0
 *
 * Unless required by applicable law or agreed to in writing,
 * software distributed under the License is distributed on an
 * "AS IS" BASIS, WITHOUT WARRANTIES OR CONDITIONS OF ANY
 * KIND, either express or implied. See the License for the
 * specific language governing permissions and limitations
 * under the License.
-->

<svg width="16" height="16" viewBox="0 0 16 16" fill="none" xmlns="http://www.w3.org/2000/svg">
<path fill-rule="evenodd" clip-rule="evenodd" d="M11.8354 0.979235C10.274 0.126294 8.47283 -0.181812 6.7167 0.103638C4.96056 0.389088 3.3497 1.2518 2.13882 2.55536C0.927944 3.85892 0.186164 5.52893 0.0307778 7.30132C-0.124609 9.0737 0.315267 10.8473 1.28085 12.3417C2.24642 13.8361 3.6826 14.9659 5.36228 15.5526C6.80348 16.056 8.42771 16.134 9.92146 15.7896C10.5948 15.6344 11 15.0208 11 14.389L11 11C11 10.7239 11.2239 10.5 11.5 10.5L14.4888 10.5C15.1603 10.5 15.8046 10.041 15.9117 9.31264C16.1327 7.81015 15.9393 6.19755 15.3381 4.8132C14.6293 3.18128 13.3968 1.83218 11.8354 0.979235ZM6.87714 1.09068C8.41375 0.840915 9.98979 1.11051 11.356 1.85683C12.7222 2.60315 13.8007 3.78362 14.4208 5.21155C14.944 6.4161 15.1176 7.83939 14.9223 9.16713C14.8966 9.34197 14.7304 9.5 14.4888 9.5L11.5 9.5C10.6716 9.50001 10 10.1716 10 11L10 14.389C10 14.6155 9.85992 14.7776 9.6968 14.8152C8.38185 15.1184 6.95006 15.0479 5.69202 14.6085C4.2223 14.0952 2.96565 13.1065 2.12077 11.799C1.27588 10.4914 0.890994 8.93949 1.02696 7.38865C1.16292 5.83782 1.81198 4.37656 2.87149 3.23594C3.93101 2.09533 5.34052 1.34045 6.87714 1.09068ZM11.5 5.5C11.5 6.05228 11.0523 6.5 10.5 6.5C9.94772 6.5 9.5 6.05228 9.5 5.5C9.5 4.94772 9.94772 4.5 10.5 4.5C11.0523 4.5 11.5 4.94772 11.5 5.5ZM12.5 5.5C12.5 6.60457 11.6046 7.5 10.5 7.5C9.39543 7.5 8.5 6.60457 8.5 5.5C8.5 4.39543 9.39543 3.5 10.5 3.5C11.6046 3.5 12.5 4.39543 12.5 5.5ZM5.5 6.5C6.05228 6.5 6.5 6.05228 6.5 5.5C6.5 4.94772 6.05228 4.5 5.5 4.5C4.94772 4.5 4.5 4.94772 4.5 5.5C4.5 6.05228 4.94772 6.5 5.5 6.5ZM5.5 7.5C6.60457 7.5 7.5 6.60457 7.5 5.5C7.5 4.39543 6.60457 3.5 5.5 3.5C4.39543 3.5 3.5 4.39543 3.5 5.5C3.5 6.60457 4.39543 7.5 5.5 7.5ZM6.5 10.5C6.5 11.0523 6.05228 11.5 5.5 11.5C4.94772 11.5 4.5 11.0523 4.5 10.5C4.5 9.94772 4.94772 9.5 5.5 9.5C6.05228 9.5 6.5 9.94772 6.5 10.5ZM7.5 10.5C7.5 11.6046 6.60457 12.5 5.5 12.5C4.39543 12.5 3.5 11.6046 3.5 10.5C3.5 9.39543 4.39543 8.5 5.5 8.5C6.60457 8.5 7.5 9.39543 7.5 10.5Z" fill="black"/>
</svg>
