<!--
 * Copyright (c) 2023, WSO2 LLC. (https://www.wso2.com). All Rights Reserved.
 *
 * WSO2 LLC. licenses this file to you under the Apache License,
 * Version 2.0 (the "License"); you may not use this file except
 * in compliance with the License.
 * You may obtain a copy of the License at
 *
 *     http://www.apache.org/licenses/LICENSE-2.0
 *
 * Unless required by applicable law or agreed to in writing,
 * software distributed under the License is distributed on an
 * "AS IS" BASIS, WITHOUT WARRANTIES OR CONDITIONS OF ANY
 * KIND, either express or implied. See the License for the
 * specific language governing permissions and limitations
 * under the License.
-->

<svg width="16" height="16" viewBox="0 0 16 16" fill="none" xmlns="http://www.w3.org/2000/svg">
  <path fill-rule="evenodd" clip-rule="evenodd" d="M2.33264 2.94382C5.68081 0.394379 10.3192 0.394379 13.6674 2.94382C13.877 3.10342 14 3.35175 14 3.6152V8.74258C14 10.3156 13.1786 11.7745 11.8335 12.5903L8.25928 14.758C8.09994 14.8546 7.90006 14.8546 7.74072 14.758L4.16645 12.5903C2.82143 11.7745 2 10.3156 2 8.74258V3.6152C2 3.35175 2.12304 3.10342 2.33264 2.94382ZM14.2732 2.14821C10.5671 -0.673751 5.4329 -0.673751 1.72683 2.14821C1.26884 2.49694 1 3.03956 1 3.6152V8.74258C1 10.6652 2.00397 12.4483 3.64789 13.4453L7.22215 15.613C7.70019 15.9029 8.29981 15.9029 8.77785 15.613L12.3521 13.4453C13.996 12.4483 15 10.6652 15 8.74258V3.6152C15 3.03956 14.7312 2.49694 14.2732 2.14821ZM11.3293 5.12372C11.5371 5.30556 11.5581 5.62144 11.3763 5.82926L7.87629 9.82926L7.52435 10.2315L7.14645 9.85356L5.14645 7.85356C4.95118 7.6583 4.95118 7.34172 5.14645 7.14646C5.34171 6.95119 5.65829 6.95119 5.85355 7.14646L7.47565 8.76855L10.6237 5.17076C10.8056 4.96294 11.1214 4.94188 11.3293 5.12372Z" fill="black"/>
</svg>
