<!--
 * Copyright (c) 2023, WSO2 LLC. (https://www.wso2.com). All Rights Reserved.
 *
 * WSO2 LLC. licenses this file to you under the Apache License,
 * Version 2.0 (the "License"); you may not use this file except
 * in compliance with the License.
 * You may obtain a copy of the License at
 *
 *     http://www.apache.org/licenses/LICENSE-2.0
 *
 * Unless required by applicable law or agreed to in writing,
 * software distributed under the License is distributed on an
 * "AS IS" BASIS, WITHOUT WARRANTIES OR CONDITIONS OF ANY
 * KIND, either express or implied. See the License for the
 * specific language governing permissions and limitations
 * under the License.
-->

<svg width="16" height="16" viewBox="0 0 16 16" fill="none" xmlns="http://www.w3.org/2000/svg">
<path fill-rule="evenodd" clip-rule="evenodd" d="M13.6674 2.94382C10.3192 0.394379 5.68081 0.394379 2.33264 2.94382C2.12304 3.10342 2 3.35175 2 3.6152V9.3327C2 11.0999 3.03439 12.7036 4.64437 13.4323L4.95618 13.5734C5.20775 13.6873 5.31938 13.9835 5.20551 14.2351C5.09164 14.4867 4.79539 14.5983 4.54382 14.4844L4.23201 14.3433C2.26426 13.4526 1 11.4926 1 9.3327V3.6152C1 3.03956 1.26884 2.49694 1.72683 2.14821C5.4329 -0.673751 10.5671 -0.673751 14.2732 2.14821C14.7312 2.49694 15 3.03956 15 3.6152V5.3515C15 5.62764 14.7761 5.8515 14.5 5.8515C14.2239 5.8515 14 5.62764 14 5.3515V3.6152C14 3.35175 13.877 3.10342 13.6674 2.94382ZM8.99989 4.25049C8.99989 4.80278 8.55218 5.25049 7.99989 5.25049C7.44761 5.25049 6.99989 4.80278 6.99989 4.25049C6.99989 3.69821 7.44761 3.25049 7.99989 3.25049C8.55218 3.25049 8.99989 3.69821 8.99989 4.25049ZM9.99989 4.25049C9.99989 5.35506 9.10446 6.25049 7.99989 6.25049C6.89532 6.25049 5.99989 5.35506 5.99989 4.25049C5.99989 3.14592 6.89532 2.25049 7.99989 2.25049C9.10446 2.25049 9.99989 3.14592 9.99989 4.25049ZM8.00012 7C5.80293 7 3.8706 8.31521 3.54629 10.3981C3.44609 11.0417 3.98494 11.5 4.52689 11.5L6.99985 11.4999C7.27599 11.4999 7.49984 11.276 7.49983 10.9998C7.49982 10.7237 7.27595 10.4999 6.99981 10.4999L4.54299 10.5C4.79766 9.04815 6.18861 8 8.00012 8C8.65764 8 9.26591 8.1409 9.78279 8.38995C10.0316 8.50982 10.3304 8.40532 10.4503 8.15655C10.5701 7.90778 10.4656 7.60894 10.2169 7.48907C9.55724 7.17125 8.79958 7 8.00012 7ZM14.2846 8.56002C14.0894 8.36476 13.7728 8.36476 13.5775 8.56002L13.1543 8.98326L14.4258 10.2548L14.8491 9.83157C15.0443 9.63631 15.0443 9.31973 14.8491 9.12446L14.2846 8.56002ZM7.64156 13.0818L12.0874 8.63596L12.0936 8.62965L12.0999 8.62345L12.8704 7.85292C13.4562 7.26713 14.406 7.26713 14.9917 7.85292L15.5562 8.41736C16.142 9.00314 16.142 9.95289 15.5562 10.5387L10.3273 15.7675L10.1809 15.914H9.97377H7.99512H7.49512V15.414V13.4353V13.2282L7.64156 13.0818ZM13.7187 10.9619L12.4472 9.69037L8.49512 13.6424V14.914H9.76666L13.7187 10.9619Z" fill="black"/>
</svg>
