<!--
 * Copyright (c) 2023, WSO2 LLC. (https://www.wso2.com).
 *
 * WSO2 LLC. licenses this file to you under the Apache License,
 * Version 2.0 (the "License"); you may not use this file except
 * in compliance with the License.
 * You may obtain a copy of the License at
 *
 *     http://www.apache.org/licenses/LICENSE-2.0
 *
 * Unless required by applicable law or agreed to in writing,
 * software distributed under the License is distributed on an
 * "AS IS" BASIS, WITHOUT WARRANTIES OR CONDITIONS OF ANY
 * KIND, either express or implied. See the License for the
 * specific language governing permissions and limitations
 * under the License.
-->

<svg width="16" height="16" viewBox="0 0 16 16" fill="none" xmlns="http://www.w3.org/2000/svg">
<path fill-rule="evenodd" clip-rule="evenodd" d="M2.33264 2.94382C5.68081 0.394379 10.3192 0.394379 13.6674 2.94382C13.877 3.10342 14 3.35175 14 3.6152V8.74258C14 10.3156 13.1786 11.7745 11.8335 12.5903L8.25928 14.758C8.09994 14.8546 7.90006 14.8546 7.74072 14.758L4.16645 12.5903C2.82143 11.7745 2 10.3156 2 8.74258V3.6152C2 3.35175 2.12304 3.10342 2.33264 2.94382ZM14.2732 2.14821C10.5671 -0.673751 5.4329 -0.673751 1.72683 2.14821C1.26884 2.49694 1 3.03956 1 3.6152V8.74258C1 10.6652 2.00397 12.4483 3.64789 13.4453L7.22215 15.613C7.70019 15.9029 8.29981 15.9029 8.77785 15.613L12.3521 13.4453C13.996 12.4483 15 10.6652 15 8.74258V3.6152C15 3.03956 14.7312 2.49694 14.2732 2.14821ZM8.00004 5.25007C8.55233 5.25007 9.00004 4.80236 9.00004 4.25007C9.00004 3.69779 8.55233 3.25007 8.00004 3.25007C7.44776 3.25007 7.00004 3.69779 7.00004 4.25007C7.00004 4.80236 7.44776 5.25007 8.00004 5.25007ZM8.00004 6.25007C9.10461 6.25007 10 5.35464 10 4.25007C10 3.1455 9.10461 2.25007 8.00004 2.25007C6.89547 2.25007 6.00004 3.1455 6.00004 4.25007C6.00004 5.35464 6.89547 6.25007 8.00004 6.25007ZM3.54644 10.3977C3.87075 8.31479 5.80309 6.99958 8.00028 6.99958C10.1976 6.99958 12.1292 8.31487 12.4535 10.3977C12.5537 11.0411 12.0151 11.4993 11.4732 11.4993L4.52704 11.4996C3.98508 11.4996 3.44624 11.0413 3.54644 10.3977ZM4.54314 10.4996L11.4568 10.4993C11.202 9.04754 9.8116 7.99958 8.00028 7.99958C6.18876 7.99958 4.79781 9.04773 4.54314 10.4996Z" fill="black"/>
</svg>
