<!--
 * Copyright (c) 2023, WSO2 LLC. (https://www.wso2.com).
 *
 * WSO2 LLC. licenses this file to you under the Apache License,
 * Version 2.0 (the "License"); you may not use this file except
 * in compliance with the License.
 * You may obtain a copy of the License at
 *
 *     http://www.apache.org/licenses/LICENSE-2.0
 *
 * Unless required by applicable law or agreed to in writing,
 * software distributed under the License is distributed on an
 * "AS IS" BASIS, WITHOUT WARRANTIES OR CONDITIONS OF ANY
 * KIND, either express or implied. See the License for the
 * specific language governing permissions and limitations
 * under the License.
-->

<svg width="16" height="16" viewBox="0 0 16 16" fill="none" xmlns="http://www.w3.org/2000/svg">
<path fill-rule="evenodd" clip-rule="evenodd" d="M5 2H11C12.6569 2 14 3.34315 14 5V11C14 12.6569 12.6569 14 11 14H5C3.34315 14 2 12.6569 2 11V5C2 3.34315 3.34315 2 5 2ZM1 5C1 2.79086 2.79086 1 5 1H11C13.2091 1 15 2.79086 15 5V11C15 13.2091 13.2091 15 11 15H5C2.79086 15 1 13.2091 1 11V5ZM8.0002 6C8.55248 6 9.0002 5.55228 9.0002 5C9.0002 4.44772 8.55248 4 8.0002 4C7.44791 4 7.0002 4.44772 7.0002 5C7.0002 5.55228 7.44791 6 8.0002 6ZM8.0002 7C9.10477 7 10.0002 6.10457 10.0002 5C10.0002 3.89543 9.10477 3 8.0002 3C6.89563 3 6.0002 3.89543 6.0002 5C6.0002 6.10457 6.89563 7 8.0002 7ZM3.54629 11.3981C3.8706 9.31521 5.80293 8 8.00012 8C10.1974 8 12.1291 9.31529 12.4534 11.3981C12.5535 12.0415 12.0149 12.4997 11.4731 12.4998L4.52689 12.5C3.98493 12.5 3.44609 12.0417 3.54629 11.3981ZM4.54299 11.5L11.4566 11.4998C11.2019 10.048 9.81145 9 8.00012 9C6.18861 9 4.79766 10.0481 4.54299 11.5Z" fill="black"/>
</svg>
