<!--
 * Copyright (c) 2023, WSO2 LLC. (https://www.wso2.com). All Rights Reserved.
 *
 * WSO2 LLC. licenses this file to you under the Apache License,
 * Version 2.0 (the "License"); you may not use this file except
 * in compliance with the License.
 * You may obtain a copy of the License at
 *
 *     http://www.apache.org/licenses/LICENSE-2.0
 *
 * Unless required by applicable law or agreed to in writing,
 * software distributed under the License is distributed on an
 * "AS IS" BASIS, WITHOUT WARRANTIES OR CONDITIONS OF ANY
 * KIND, either express or implied. See the License for the
 * specific language governing permissions and limitations
 * under the License.
-->

<svg width="16" height="16" viewBox="0 0 16 16" fill="none" xmlns="http://www.w3.org/2000/svg">
  <path d="M8.5 0.5C8.5 0.223858 8.27614 0 8 0C7.72386 0 7.5 0.223858 7.5 0.5V1.5C7.5 1.77614 7.72386 2 8 2C8.27614 2 8.5 1.77614 8.5 1.5V0.5Z" fill="#40404B"/>
  <path d="M8.5 14.5C8.5 14.2239 8.27614 14 8 14C7.72386 14 7.5 14.2239 7.5 14.5V15.5C7.5 15.7761 7.72386 16 8 16C8.27614 16 8.5 15.7761 8.5 15.5V14.5Z" fill="#40404B"/>
  <path d="M2 8C2 8.27614 1.77614 8.5 1.5 8.5H0.5C0.223858 8.5 0 8.27614 0 8C0 7.72386 0.223858 7.5 0.5 7.5H1.5C1.77614 7.5 2 7.72386 2 8Z" fill="#40404B"/>
  <path d="M15.5 8.5C15.7761 8.5 16 8.27614 16 8C16 7.72386 15.7761 7.5 15.5 7.5H14.5C14.2239 7.5 14 7.72386 14 8C14 8.27614 14.2239 8.5 14.5 8.5H15.5Z" fill="#40404B"/>
  <path d="M12.4464 3.54647C12.2512 3.35121 12.2512 3.03463 12.4464 2.83936L13.1535 2.13226C13.3488 1.937 13.6654 1.937 13.8606 2.13226C14.0559 2.32752 14.0559 2.6441 13.8606 2.83936L13.1535 3.54647C12.9583 3.74173 12.6417 3.74173 12.4464 3.54647Z" fill="#40404B"/>
  <path d="M2.14645 2.86065C1.95118 2.66539 1.95118 2.3488 2.14645 2.15354C2.34171 1.95828 2.65829 1.95828 2.85355 2.15354L3.56066 2.86065C3.75592 3.05591 3.75592 3.37249 3.56066 3.56775C3.3654 3.76302 3.04882 3.76302 2.85355 3.56775L2.14645 2.86065Z" fill="#40404B"/>
  <path d="M2.14645 13.8465C1.95118 13.6512 1.95118 13.3346 2.14645 13.1394L2.85355 12.4322C3.04882 12.237 3.3654 12.237 3.56066 12.4322C3.75592 12.6275 3.75592 12.9441 3.56066 13.1394L2.85355 13.8465C2.65829 14.0417 2.34171 14.0417 2.14645 13.8465Z" fill="#40404B"/>
  <path d="M12.4464 13.1606C12.2512 12.9654 12.2512 12.6488 12.4464 12.4535C12.6417 12.2583 12.9583 12.2583 13.1535 12.4535L13.8606 13.1606C14.0559 13.3559 14.0559 13.6725 13.8606 13.8677C13.6654 14.063 13.3488 14.063 13.1535 13.8677L12.4464 13.1606Z" fill="#40404B"/>
  <path fill-rule="evenodd" clip-rule="evenodd" d="M4 8C4 5.96019 5.52684 4.277 7.5 4.03095V11.9691C5.52684 11.723 4 10.0398 4 8ZM13 8C13 5.23858 10.7614 3 8 3C5.23858 3 3 5.23858 3 8C3 10.7614 5.23858 13 8 13C10.7614 13 13 10.7614 13 8ZM8.5 8.5H11.9691C11.9209 8.88649 11.8175 9.25585 11.6672 9.59998H8.5V8.5ZM8.5 10.6V11.9691C9.51298 11.8427 10.4083 11.3376 11.0399 10.6H8.5ZM11.6218 6.29999C11.7968 6.6722 11.9162 7.07579 11.9691 7.5H8.5V6.29999H11.6218ZM10.9513 5.29999C10.3259 4.61681 9.46651 4.15147 8.5 4.03095V5.29999H10.9513Z" fill="#40404B"/>
</svg>
