<!--
 * Copyright (c) 2023, WSO2 LLC. (https://www.wso2.com).
 *
 * WSO2 LLC. licenses this file to you under the Apache License,
 * Version 2.0 (the "License"); you may not use this file except
 * in compliance with the License.
 * You may obtain a copy of the License at
 *
 *     http://www.apache.org/licenses/LICENSE-2.0
 *
 * Unless required by applicable law or agreed to in writing,
 * software distributed under the License is distributed on an
 * "AS IS" BASIS, WITHOUT WARRANTIES OR CONDITIONS OF ANY
 * KIND, either express or implied. See the License for the
 * specific language governing permissions and limitations
 * under the License.
-->

<svg width="16" height="16" viewBox="0 0 16 16" fill="none" xmlns="http://www.w3.org/2000/svg">
<path fill-rule="evenodd" clip-rule="evenodd" d="M7.75607 5.95567C7.75607 6.92519 6.97011 7.71115 6.00059 7.71115C5.03107 7.71115 4.24512 6.92519 4.24512 5.95567C4.24512 4.98615 5.03107 4.2002 6.00059 4.2002C6.97011 4.2002 7.75607 4.98615 7.75607 5.95567ZM8.75607 5.95567C8.75607 7.47748 7.5224 8.71115 6.00059 8.71115C4.47879 8.71115 3.24512 7.47748 3.24512 5.95567C3.24512 4.43386 4.47879 3.2002 6.00059 3.2002C7.5224 3.2002 8.75607 4.43386 8.75607 5.95567ZM6.00085 9.57772C3.04247 9.57772 0.480303 11.344 0.0512571 14.0996C-0.0658599 14.8518 0.563735 15.3998 1.21564 15.3998L10.7857 15.3995C11.4374 15.3994 12.0667 14.8516 11.9496 14.0996C11.5206 11.3441 8.95933 9.57772 6.00085 9.57772ZM1.03935 14.2535C1.37433 12.1021 3.4066 10.5777 6.00085 10.5777C8.59501 10.5777 10.6266 12.102 10.9615 14.2535C10.9666 14.2861 10.9586 14.3138 10.9321 14.3415C10.9023 14.3728 10.8506 14.3995 10.7856 14.3995L1.21561 14.3998C1.15058 14.3998 1.09876 14.3731 1.06883 14.3417C1.04234 14.3139 1.03426 14.2862 1.03935 14.2535Z" fill="black"/>
<path fill-rule="evenodd" clip-rule="evenodd" d="M9.77049 2.116C9.77049 2.73235 10.2701 3.232 10.8865 3.232C11.5028 3.232 12.0025 2.73235 12.0025 2.116C12.0025 1.49965 11.5028 1 10.8865 1C10.2701 1 9.77049 1.49965 9.77049 2.116ZM8.77049 2.116C8.77049 3.28463 9.71786 4.232 10.8865 4.232C12.0551 4.232 13.0025 3.28463 13.0025 2.116C13.0025 0.947365 12.0551 0 10.8865 0C9.71786 0 8.77049 0.947365 8.77049 2.116ZM10.8859 5.00146C13.5031 5.00146 15.6391 6.94215 15.9905 9.7562C16.0853 10.5153 15.4561 11.0799 14.7778 11.0798L12.693 11.0797C12.4168 11.0797 12.193 10.8558 12.193 10.5797C12.193 10.3035 12.4169 10.0797 12.693 10.0797L14.7779 10.0798C14.8529 10.0798 14.915 10.0493 14.9536 10.0092C14.9896 9.97181 15.0043 9.92891 14.9982 9.88012C14.7042 7.52634 12.9592 6.00146 10.8859 6.00146C10.6098 6.00146 10.3859 5.77761 10.3859 5.50146C10.3859 5.22532 10.6098 5.00146 10.8859 5.00146Z" fill="black"/>
</svg>
