<!--
 * Copyright (c) 2023, WSO2 LLC. (https://www.wso2.com).
 *
 * WSO2 LLC. licenses this file to you under the Apache License,
 * Version 2.0 (the "License"); you may not use this file except
 * in compliance with the License.
 * You may obtain a copy of the License at
 *
 *     http://www.apache.org/licenses/LICENSE-2.0
 *
 * Unless required by applicable law or agreed to in writing,
 * software distributed under the License is distributed on an
 * "AS IS" BASIS, WITHOUT WARRANTIES OR CONDITIONS OF ANY
 * KIND, either express or implied. See the License for the
 * specific language governing permissions and limitations
 * under the License.
-->

<svg width="16" height="16" viewBox="0 0 16 16" fill="none" xmlns="http://www.w3.org/2000/svg">
    <path fill-rule="evenodd" clip-rule="evenodd" d="M5.9535 4C6.78192 4 7.4535 3.32843 7.4535 2.5C7.4535 1.67157 6.78192 1 5.9535 1C5.12507 1 4.4535 1.67157 4.4535 2.5C4.4535 3.32843 5.12507 4 5.9535 4ZM5.9535 5C7.33421 5 8.4535 3.88071 8.4535 2.5C8.4535 1.11929 7.33421 0 5.9535 0C4.57278 0 3.4535 1.11929 3.4535 2.5C3.4535 3.88071 4.57278 5 5.9535 5ZM5.95326 6C2.91053 6 0.422402 8.25514 0.0124101 11.5381C-0.0918734 12.3731 0.600267 13 1.35511 13L4.99975 12.9998C5.2759 12.9998 5.49974 12.7759 5.49973 12.4998C5.49972 12.2236 5.27585 11.9998 4.99971 11.9998L1.35507 12C1.11336 12 0.985492 11.8159 1.0047 11.662C1.35721 8.83933 3.4544 7 5.95326 7C5.96103 7 5.96875 6.99982 5.97643 6.99947C5.98411 6.99982 5.99183 7 5.99959 7C7.00629 7 7.93888 7.29661 8.71876 7.82716C8.94708 7.98248 9.25808 7.92331 9.41341 7.69499C9.56873 7.46667 9.50956 7.15567 9.28124 7.00034C8.3353 6.35683 7.2067 6 5.99959 6C5.99183 6 5.98411 6.00018 5.97643 6.00053C5.96875 6.00018 5.96103 6 5.95326 6ZM14.253 8.56051C14.0577 8.36525 13.7411 8.36525 13.5459 8.56051L13.1065 8.99985L14.3994 10.2927L14.8388 9.8534C15.034 9.65814 15.034 9.34156 14.8388 9.1463L14.253 8.56051ZM12.8388 7.8534L12.0459 8.6463L7.54586 13.1463L7.39941 13.2927V13.4998V15.4998V15.9998H7.89941H9.89941H10.1065L10.253 15.8534L14.7528 11.3535L14.753 11.3534L14.7531 11.3533L15.5459 10.5605C16.1316 9.97472 16.1316 9.02498 15.5459 8.43919L14.9601 7.8534C14.3743 7.26762 13.4245 7.26762 12.8388 7.8534ZM9.69231 14.9998L13.6923 10.9998L12.3994 9.70696L8.39941 13.707V14.9998H9.69231Z" fill="black"/>
</svg>
