<!--
 * Copyright (c) 2023, WSO2 LLC. (https://www.wso2.com).
 *
 * WSO2 LLC. licenses this file to you under the Apache License,
 * Version 2.0 (the "License"); you may not use this file except
 * in compliance with the License.
 * You may obtain a copy of the License at
 *
 *     http://www.apache.org/licenses/LICENSE-2.0
 *
 * Unless required by applicable law or agreed to in writing,
 * software distributed under the License is distributed on an
 * "AS IS" BASIS, WITHOUT WARRANTIES OR CONDITIONS OF ANY
 * KIND, either express or implied. See the License for the
 * specific language governing permissions and limitations
 * under the License.
-->

<svg width="16" height="16" viewBox="0 0 16 16" fill="none" xmlns="http://www.w3.org/2000/svg">
<path fill-rule="evenodd" clip-rule="evenodd" d="M5.95351 4C6.78194 4 7.45351 3.32843 7.45351 2.5C7.45351 1.67157 6.78194 1 5.95351 1C5.12509 1 4.45351 1.67157 4.45351 2.5C4.45351 3.32843 5.12509 4 5.95351 4ZM5.95351 5C7.33423 5 8.45351 3.88071 8.45351 2.5C8.45351 1.11929 7.33423 0 5.95351 0C4.5728 0 3.45351 1.11929 3.45351 2.5C3.45351 3.88071 4.5728 5 5.95351 5ZM5.95328 6C2.91055 6 0.42242 8.25514 0.0124285 11.5381C-0.091855 12.3731 0.600285 13 1.35513 13L4.99977 12.9998C5.27591 12.9998 5.49976 12.7759 5.49975 12.4998C5.49974 12.2236 5.27587 11.9998 4.99973 11.9998L1.35509 12C1.11338 12 0.98551 11.8159 1.00472 11.662C1.35723 8.83933 3.45442 7 5.95328 7C5.96105 7 5.96877 6.99982 5.97645 6.99947C5.98413 6.99982 5.99185 7 5.99961 7C7.00631 7 7.9389 7.29661 8.71878 7.82716C8.9471 7.98248 9.2581 7.92331 9.41343 7.69499C9.56875 7.46667 9.50957 7.15567 9.28126 7.00034C8.33532 6.35683 7.20672 6 5.99961 6C5.99185 6 5.98413 6.00018 5.97645 6.00053C5.96877 6.00018 5.96105 6 5.95328 6ZM6.69995 10H5.9615L6.23569 10.6857L6.96125 12.5L6.23569 14.3143L5.9615 15H6.69995H8.49975C8.49975 15.5523 8.94747 16 9.49975 16H12.4998C13.052 16 13.4998 15.5523 13.4998 15H15.2498H15.9882L15.714 14.3143L14.9884 12.5L15.714 10.6857L15.9882 10H15.2498H13.4998C13.4998 9.44772 13.052 9 12.4998 9H9.49975C8.94747 9 8.49975 9.44771 8.49975 10H6.69995ZM8.49975 11H7.4384L7.964 12.3143L8.03825 12.5L7.964 12.6857L7.4384 14H8.49975V11ZM13.4998 11V14H14.5113L13.9857 12.6857L13.9114 12.5L13.9857 12.3143L14.5113 11H13.4998ZM9.49975 10H12.4998V15H9.49975V10Z" fill="black"/>
</svg>
