<!--
 * Copyright (c) 2023, WSO2 LLC. (https://www.wso2.com).
 *
 * WSO2 LLC. licenses this file to you under the Apache License,
 * Version 2.0 (the "License"); you may not use this file except
 * in compliance with the License.
 * You may obtain a copy of the License at
 *
 *     http://www.apache.org/licenses/LICENSE-2.0
 *
 * Unless required by applicable law or agreed to in writing,
 * software distributed under the License is distributed on an
 * "AS IS" BASIS, WITHOUT WARRANTIES OR CONDITIONS OF ANY
 * KIND, either express or implied. See the License for the
 * specific language governing permissions and limitations
 * under the License.
-->

<svg width="16" height="16" viewBox="0 0 16 16" fill="none" xmlns="http://www.w3.org/2000/svg">
<path fill-rule="evenodd" clip-rule="evenodd" d="M5.95376 4C6.78219 4 7.45376 3.32843 7.45376 2.5C7.45376 1.67157 6.78219 1 5.95376 1C5.12534 1 4.45376 1.67157 4.45376 2.5C4.45376 3.32843 5.12534 4 5.95376 4ZM5.95376 5C7.33447 5 8.45376 3.88071 8.45376 2.5C8.45376 1.11929 7.33447 0 5.95376 0C4.57305 0 3.45376 1.11929 3.45376 2.5C3.45376 3.88071 4.57305 5 5.95376 5ZM0.01241 11.5381C0.422402 8.25514 2.91053 6 5.95326 6C6.22941 6 6.45326 6.22386 6.45326 6.5C6.45326 6.77614 6.22941 7 5.95326 7C3.4544 7 1.35721 8.83933 1.0047 11.662C0.985492 11.8159 1.11336 12 1.35506 12L4.99971 11.9998C5.27585 11.9998 5.49972 12.2236 5.49973 12.4997C5.49975 12.7759 5.2759 12.9998 4.99976 12.9998L1.35511 13C0.600271 13 -0.0918736 12.3731 0.01241 11.5381ZM9.5 6.5C8.39543 6.5 7.5 7.39543 7.5 8.5V14C7.5 15.1046 8.39543 16 9.5 16H12.4159C12.762 16 13.0975 15.8803 13.3655 15.6612L14.9496 14.3657C15.2979 14.0808 15.5 13.6546 15.5 13.2045V8.5C15.5 7.39543 14.6046 6.5 13.5 6.5H9.5ZM8.5 8.5C8.5 7.94772 8.94771 7.5 9.5 7.5H13.5C14.0523 7.5 14.5 7.94772 14.5 8.5V13.2045C14.5 13.3546 14.4326 13.4966 14.3165 13.5916L12.7324 14.8871C12.6431 14.9601 12.5313 15 12.4159 15H9.5C8.94772 15 8.5 14.5523 8.5 14V8.5ZM10 10C10 9.72386 10.2239 9.5 10.5 9.5H12.5C12.7761 9.5 13 9.72386 13 10C13 10.2761 12.7761 10.5 12.5 10.5H10.5C10.2239 10.5 10 10.2761 10 10ZM10.5 12C10.2239 12 10 12.2239 10 12.5C10 12.7761 10.2239 13 10.5 13H11.5C11.7761 13 12 12.7761 12 12.5C12 12.2239 11.7761 12 11.5 12H10.5Z" fill="black"/>
</svg>
