<!--
 * Copyright (c) 2023, WSO2 LLC. (https://www.wso2.com).
 *
 * WSO2 LLC. licenses this file to you under the Apache License,
 * Version 2.0 (the "License"); you may not use this file except
 * in compliance with the License.
 * You may obtain a copy of the License at
 *
 *     http://www.apache.org/licenses/LICENSE-2.0
 *
 * Unless required by applicable law or agreed to in writing,
 * software distributed under the License is distributed on an
 * "AS IS" BASIS, WITHOUT WARRANTIES OR CONDITIONS OF ANY
 * KIND, either express or implied. See the License for the
 * specific language governing permissions and limitations
 * under the License.
-->

<svg width="16" height="16" viewBox="0 0 16 16" fill="none" xmlns="http://www.w3.org/2000/svg">
<path fill-rule="evenodd" clip-rule="evenodd" d="M10.6889 4.16667C10.6889 5.63943 9.49253 6.83333 8.0167 6.83333C6.54086 6.83333 5.34447 5.63943 5.34447 4.16667C5.34447 2.69391 6.54086 1.5 8.0167 1.5C9.49253 1.5 10.6889 2.69391 10.6889 4.16667ZM9.68684 4.16667C9.68684 5.08714 8.93909 5.83333 8.0167 5.83333C7.0943 5.83333 6.34655 5.08714 6.34655 4.16667C6.34655 3.24619 7.0943 2.5 8.0167 2.5C8.93909 2.5 9.68684 3.24619 9.68684 4.16667ZM14.8309 5.5C14.8309 6.60457 13.9336 7.5 12.8267 7.5C11.7198 7.5 10.8226 6.60457 10.8226 5.5C10.8226 4.39543 11.7198 3.5 12.8267 3.5C13.9336 3.5 14.8309 4.39543 14.8309 5.5ZM13.8288 5.5C13.8288 6.05228 13.3802 6.5 12.8267 6.5C12.2733 6.5 11.8246 6.05228 11.8246 5.5C11.8246 4.94772 12.2733 4.5 12.8267 4.5C13.3802 4.5 13.8288 4.94772 13.8288 5.5ZM12.3257 8.83333C12.3257 8.55719 12.55 8.33333 12.8267 8.33333C14.6778 8.33333 16 10.1595 16 12.1667V12.6667H14C13.7233 12.6667 13.499 12.4428 13.499 12.1667C13.499 11.8905 13.7233 11.6667 14 11.6667H14.965C14.7772 10.2657 13.814 9.33333 12.8267 9.33333C12.55 9.33333 12.3257 9.10948 12.3257 8.83333ZM3.17328 7.5C2.0664 7.5 1.1691 6.60457 1.1691 5.5C1.1691 4.39543 2.0664 3.5 3.17328 3.5C4.28015 3.5 5.17745 4.39543 5.17745 5.5C5.17745 6.60457 4.28015 7.5 3.17328 7.5ZM3.17328 6.5C2.61984 6.5 2.17119 6.05228 2.17119 5.5C2.17119 4.94772 2.61984 4.5 3.17328 4.5C3.72671 4.5 4.17536 4.94772 4.17536 5.5C4.17536 6.05228 3.72671 6.5 3.17328 6.5ZM3.17328 8.33333C3.45 8.33333 3.67432 8.55719 3.67432 8.83333C3.67432 9.10948 3.45 9.33333 3.17328 9.33333C2.18599 9.33333 1.22279 10.2657 1.03498 11.6667H1.99896C2.27568 11.6667 2.5 11.8905 2.5 12.1667C2.5 12.4428 2.27568 12.6667 1.99896 12.6667H0V12.1667C0 10.1595 1.32217 8.33333 3.17328 8.33333ZM11.9527 13.4995L4.0472 13.4999C4.36752 10.1344 6.20326 8.5 7.99583 8.5C9.79005 8.5 11.6322 10.1365 11.9527 13.4995ZM7.99583 7.5C5.66253 7.5 3.70598 9.4418 3.15494 12.6325C3.09991 12.9511 3.0589 13.2822 3.03292 13.625C2.99639 14.1073 3.39214 14.5 3.87583 14.4999L12.1248 14.4994C12.6082 14.4994 13.0036 14.107 12.9671 13.625C12.681 9.84899 10.5621 7.5 7.99583 7.5Z" fill="black"/>
</svg>
