<!--
 * Copyright (c) 2023, WSO2 LLC. (https://www.wso2.com).
 *
 * WSO2 LLC. licenses this file to you under the Apache License,
 * Version 2.0 (the "License"); you may not use this file except
 * in compliance with the License.
 * You may obtain a copy of the License at
 *
 *     http://www.apache.org/licenses/LICENSE-2.0
 *
 * Unless required by applicable law or agreed to in writing,
 * software distributed under the License is distributed on an
 * "AS IS" BASIS, WITHOUT WARRANTIES OR CONDITIONS OF ANY
 * KIND, either express or implied. See the License for the
 * specific language governing permissions and limitations
 * under the License.
-->

<svg width="16" height="16" viewBox="0 0 16 16" fill="none" xmlns="http://www.w3.org/2000/svg">
<path fill-rule="evenodd" clip-rule="evenodd" d="M5.95376 4C6.78219 4 7.45376 3.32843 7.45376 2.5C7.45376 1.67157 6.78219 1 5.95376 1C5.12534 1 4.45376 1.67157 4.45376 2.5C4.45376 3.32843 5.12534 4 5.95376 4ZM5.95376 5C7.33447 5 8.45376 3.88071 8.45376 2.5C8.45376 1.11929 7.33447 0 5.95376 0C4.57305 0 3.45376 1.11929 3.45376 2.5C3.45376 3.88071 4.57305 5 5.95376 5ZM0.01241 11.5381C0.422402 8.25514 2.91053 6 5.95326 6C6.22941 6 6.45326 6.22386 6.45326 6.5C6.45326 6.77614 6.22941 7 5.95326 7C3.4544 7 1.35721 8.83933 1.0047 11.662C0.985492 11.8159 1.11336 12 1.35506 12L4.99971 11.9998C5.27585 11.9998 5.49972 12.2236 5.49973 12.4997C5.49975 12.7759 5.2759 12.9998 4.99976 12.9998L1.35511 13C0.600271 13 -0.0918736 12.3731 0.01241 11.5381ZM8 9C8 8.98723 8.00511 8.91521 8.14604 8.79026C8.28639 8.66583 8.51801 8.53093 8.84713 8.4075C9.5017 8.16204 10.4395 8 11.5 8C12.5605 8 13.4983 8.16204 14.1529 8.4075C14.482 8.53093 14.7136 8.66583 14.854 8.79026C14.9949 8.91521 15 8.98723 15 9C15 9.01277 14.9949 9.08479 14.854 9.20974C14.7136 9.33417 14.482 9.46907 14.1529 9.59249C13.4983 9.83796 12.5605 10 11.5 10C10.4395 10 9.5017 9.83796 8.84713 9.59249C8.51801 9.46907 8.28639 9.33417 8.14604 9.20974C8.00511 9.08479 8 9.01277 8 9ZM14.504 10.5288C14.6787 10.4633 14.8454 10.3899 15 10.3081V11.5C15 11.5128 14.9949 11.5848 14.854 11.7097C14.7136 11.8342 14.482 11.9691 14.1529 12.0925C13.4983 12.338 12.5605 12.5 11.5 12.5C10.4395 12.5 9.5017 12.338 8.84713 12.0925C8.51801 11.9691 8.28639 11.8342 8.14604 11.7097C8.00511 11.5848 8 11.5128 8 11.5V10.3081C8.15455 10.3899 8.32131 10.4633 8.49601 10.5288C9.28916 10.8263 10.3513 11 11.5 11C12.6487 11 13.7108 10.8263 14.504 10.5288ZM7.48264 8.042C7.21875 8.27597 7 8.59855 7 9V11.5V14C7 14.4014 7.21875 14.724 7.48264 14.958C7.74711 15.1925 8.10128 15.3808 8.49601 15.5288C9.28916 15.8263 10.3513 16 11.5 16C12.6487 16 13.7108 15.8263 14.504 15.5288C14.8987 15.3808 15.2529 15.1925 15.5174 14.958C15.7813 14.724 16 14.4014 16 14V11.5V9C16 8.59855 15.7813 8.27597 15.5174 8.042C15.2529 7.80752 14.8987 7.6192 14.504 7.47118C13.7108 7.17374 12.6487 7 11.5 7C10.3513 7 9.28916 7.17374 8.49601 7.47118C8.10128 7.6192 7.74711 7.80752 7.48264 8.042ZM8 12.8081C8.15455 12.8899 8.32131 12.9633 8.49601 13.0288C9.28916 13.3263 10.3513 13.5 11.5 13.5C12.6487 13.5 13.7108 13.3263 14.504 13.0288C14.6787 12.9633 14.8454 12.8899 15 12.8081V14C15 14.0128 14.9949 14.0848 14.854 14.2097C14.7136 14.3342 14.482 14.4691 14.1529 14.5925C13.4983 14.838 12.5605 15 11.5 15C10.4395 15 9.5017 14.838 8.84713 14.5925C8.51801 14.4691 8.28639 14.3342 8.14604 14.2097C8.00511 14.0848 8 14.0128 8 14V12.8081Z" fill="black"/>
</svg>
