<!--
 * Copyright (c) 2023, WSO2 LLC. (https://www.wso2.com).
 *
 * WSO2 LLC. licenses this file to you under the Apache License,
 * Version 2.0 (the "License"); you may not use this file except
 * in compliance with the License.
 * You may obtain a copy of the License at
 *
 *     http://www.apache.org/licenses/LICENSE-2.0
 *
 * Unless required by applicable law or agreed to in writing,
 * software distributed under the License is distributed on an
 * "AS IS" BASIS, WITHOUT WARRANTIES OR CONDITIONS OF ANY
 * KIND, either express or implied. See the License for the
 * specific language governing permissions and limitations
 * under the License.
-->

<svg width="16" height="16" viewBox="0 0 16 16" fill="none" xmlns="http://www.w3.org/2000/svg">
  <path fill-rule="evenodd" clip-rule="evenodd" d="M5.95376 4C6.78219 4 7.45376 3.32843 7.45376 2.5C7.45376 1.67157 6.78219 1 5.95376 1C5.12534 1 4.45376 1.67157 4.45376 2.5C4.45376 3.32843 5.12534 4 5.95376 4ZM5.95376 5C7.33447 5 8.45376 3.88071 8.45376 2.5C8.45376 1.11929 7.33447 0 5.95376 0C4.57305 0 3.45376 1.11929 3.45376 2.5C3.45376 3.88071 4.57305 5 5.95376 5ZM0.01241 11.5381C0.422402 8.25514 2.91053 6 5.95326 6C6.22941 6 6.45326 6.22386 6.45326 6.5C6.45326 6.77614 6.22941 7 5.95326 7C3.4544 7 1.35721 8.83933 1.0047 11.662C0.985492 11.8159 1.11336 12 1.35506 12L4.99971 11.9998C5.27585 11.9998 5.49972 12.2236 5.49973 12.4997C5.49975 12.7759 5.2759 12.9998 4.99976 12.9998L1.35511 13C0.600271 13 -0.0918736 12.3731 0.01241 11.5381ZM11.1969 6.94097C11.4731 6.94096 11.6969 7.16481 11.697 7.44095L11.6971 10.6664L14.9235 10.6666C15.1997 10.6666 15.4235 10.8904 15.4235 11.1666C15.4235 11.4427 15.1996 11.6666 14.9235 11.6666L11.6971 11.6664L11.6973 14.893C11.6973 15.1691 11.4734 15.393 11.1973 15.393C10.9211 15.393 10.6973 15.1692 10.6973 14.893L10.6971 11.6664L7.47147 11.6662C7.19533 11.6662 6.97148 11.4424 6.97149 11.1662C6.9715 10.8901 7.19537 10.6662 7.47151 10.6662L10.6971 10.6664L10.697 7.44099C10.6969 7.16485 10.9208 6.94098 11.1969 6.94097Z" fill="black"/>
</svg>
