<?xml version="1.0" encoding="UTF-8"?>
<svg width="132px" height="121px" viewBox="0 0 132 121" version="1.1" xmlns="http://www.w3.org/2000/svg" xmlns:xlink="http://www.w3.org/1999/xlink">
    <title>F1A0D09C-FEEE-4A54-85E1-A855E3EA6101</title>
    <defs>
        <filter x="-12.2%" y="-54.2%" width="124.4%" height="207.4%" filterUnits="objectBoundingBox" id="filter-1">
            <feGaussianBlur stdDeviation="5.625" in="SourceGraphic"></feGaussianBlur>
        </filter>
        <path d="M70.5951616,52.5559785 L107.327572,65.8530754 C108.885491,66.4170403 109.691249,68.1371665 109.127284,69.6950849 C108.827131,70.524239 108.177386,71.1793478 107.350727,71.4863069 L70.6993591,85.0958794 C67.6675812,86.2216546 64.3324026,86.2216546 61.3006246,85.0958794 L24.6492565,71.4863069 C23.096027,70.9095538 22.3044365,69.1828617 22.8811895,67.6296322 C23.1881486,66.8029736 23.8432574,66.1532284 24.6724115,65.8530754 L61.4048222,52.5559785 C64.3739898,51.4811427 67.6259939,51.4811427 70.5951616,52.5559785 Z" id="path-2"></path>
        <mask id="mask-3" maskContentUnits="userSpaceOnUse" maskUnits="objectBoundingBox" x="0" y="0" width="94.5" height="35.4701012" fill="white">
            <use xlink:href="#path-2"></use>
        </mask>
        <mask id="mask-5" maskContentUnits="userSpaceOnUse" maskUnits="objectBoundingBox" x="0" y="0" width="94.5" height="35.4701012" fill="white">
            <use xlink:href="#path-2"></use>
        </mask>
        <linearGradient x1="100%" y1="47.7521284%" x2="0%" y2="52.7017076%" id="linearGradient-6">
            <stop stop-color="#CFD6FF" offset="0%"></stop>
            <stop stop-color="#8B99F0" offset="51.9717525%"></stop>
            <stop stop-color="#8B99F0" offset="100%"></stop>
        </linearGradient>
        <path d="M70.5951583,19.4643552 L126.780379,39.8033503 C128.338297,40.3673152 129.144056,42.0874415 128.580091,43.6453598 C128.279938,44.474514 127.630193,45.1296227 126.803534,45.4365818 L70.6993559,66.2694706 C67.6675779,67.3952459 64.3323993,67.3952459 61.3006214,66.2694706 L5.19644337,45.4365818 C3.64321387,44.8598287 2.85162332,43.1331367 3.4283764,41.5799072 C3.7353355,40.7532485 4.39044422,40.1035033 5.21959838,39.8033503 L61.4048189,19.4643552 C64.3739866,18.3895194 67.6259907,18.3895194 70.5951583,19.4643552 Z" id="path-7"></path>
        <filter x="-11.9%" y="-55.4%" width="123.9%" height="209.9%" filterUnits="objectBoundingBox" id="filter-9">
            <feGaussianBlur stdDeviation="5.625" in="SourceGraphic"></feGaussianBlur>
        </filter>
        <path d="M70.9701627,1.52989031 L101.088618,12.4327418 C102.646536,12.9967067 103.452295,14.716833 102.88833,16.2747513 C102.588177,17.1039055 101.938432,17.7590142 101.111773,18.0659733 L71.0743602,29.2196182 C68.0425823,30.3453934 64.7074037,30.3453934 61.6756257,29.2196182 L31.638213,18.0659733 C30.0849835,17.4892202 29.2933929,15.7625281 29.870146,14.2092986 C30.1771051,13.38264 30.8322138,12.7328948 31.661368,12.4327418 L61.7798232,1.52989031 C64.7489909,0.455054499 68.000995,0.455054499 70.9701627,1.52989031 Z" id="path-10"></path>
    </defs>
    <g id="Home" stroke="none" stroke-width="1" fill="none" fill-rule="evenodd">
        <g id="new-home-page-" transform="translate(-1188.000000, -291.000000)">
            <g id="API" transform="translate(1188.000000, 293.000000)">
                <path d="M67.643769,71.7717239 L97.8463462,82.6308375 C99.7952718,83.3315593 100.807141,85.4795229 100.106419,87.4284484 C99.740187,88.4470537 98.9516701,89.2577216 97.9435992,89.6520258 L69.1070442,100.931368 C67.3504781,101.618444 65.3995219,101.618444 63.6429558,100.931368 L34.8064008,89.6520258 C32.8776311,88.8975927 31.9256432,86.722427 32.6800764,84.7936573 C33.0743806,83.7855865 33.8850485,82.9970695 34.9036538,82.6308375 L65.106231,71.7717239 C65.9263771,71.4768464 66.8236229,71.4768464 67.643769,71.7717239 Z" id="Polygon-Copy-15" fill="#CCD1F2" opacity="0.302275" style="mix-blend-mode: multiply;" filter="url(#filter-1)"></path>
                <mask id="mask-4" fill="white">
                    <use xlink:href="#path-2"></use>
                </mask>
                <g id="Mask-Copy-8" stroke="#5567D5" mask="url(#mask-3)" stroke-width="1.5" fill-opacity="0.8" fill="#FFFFFF" opacity="0.599999964" stroke-dasharray="1.5,3">
                    <use mask="url(#mask-5)" xlink:href="#path-2"></use>
                </g>
                <mask id="mask-8" fill="white">
                    <use xlink:href="#path-7"></use>
                </mask>
                <g id="Mask-Copy-9" opacity="0.850714">
                    <use fill="url(#linearGradient-6)" xlink:href="#path-7"></use>
                    <use fill-opacity="0.6" fill="#FFFFFF" xlink:href="#path-7"></use>
                </g>
                <path d="M67.6196298,15.4517175 L97.6173393,26.0062911 C99.5710068,26.6936811 100.597528,28.8346813 99.9101374,30.7883489 C99.5447382,31.8268694 98.7414409,32.6523607 97.713262,33.0459211 L69.056105,44.0151406 C67.3297748,44.6759352 65.4202252,44.6759352 63.693895,44.0151406 L35.036738,33.0459211 C33.1025253,32.3055544 32.1347218,30.1373793 32.8750885,28.2031666 C33.2686488,27.1749876 34.0941401,26.3716904 35.1326607,26.0062911 L65.1303702,15.4517175 C65.9359197,15.1682881 66.8140803,15.1682881 67.6196298,15.4517175 Z" id="Polygon-Copy-15" fill-opacity="0.523579097" fill="#747FBE" opacity="0.70128014" style="mix-blend-mode: multiply;" filter="url(#filter-9)"></path>
                <mask id="mask-11" fill="white">
                    <use xlink:href="#path-10"></use>
                </mask>
                <use id="Mask-Copy-11" fill="#5567D5" opacity="0.690581549" xlink:href="#path-10"></use>
            </g>
        </g>
    </g>
</svg>
