<svg version="1.1" id="Layer_1" xmlns:x="ns_extend;" xmlns:i="ns_ai;" xmlns:graph="ns_graphs;" xmlns="http://www.w3.org/2000/svg" xmlns:xlink="http://www.w3.org/1999/xlink" x="0px" y="0px" viewBox="0 0 75.6 75" style="enable-background:new 0 0 75.6 75;" xml:space="preserve">
 <style type="text/css">
  .st0{fill-rule:evenodd;clip-rule:evenodd;fill:#3640F5;}
	.st1{opacity:0.5;fill-rule:evenodd;clip-rule:evenodd;fill:#3640F5;enable-background:new    ;}
 </style>
 <metadata>
  <sfw xmlns="ns_sfw;">
   <slices>
   </slices>
   <sliceSourceBounds bottomLeftOrigin="true" height="75" width="75.6" x="-327.5" y="-146">
   </sliceSourceBounds>
  </sfw>
 </metadata>
 <g>
  <path class="st0" d="M51.9,37.1c0,7.4-6,13.4-13.4,13.4c0,0,0,0,0,0c-7.4,0-13.4-6-13.4-13.4c0,0,0,0,0,0c0-7.4,6-13.4,13.4-13.4
		c0,0,0,0,0,0C45.9,23.7,51.9,29.7,51.9,37.1C51.9,37.1,51.9,37.1,51.9,37.1L51.9,37.1z M18.8,64.9c0.7-0.5,1.5-1,2.2-1.5
		c11.4-6.8,25.6-6.8,36.9,0.1c0.4,0.2,0.4,0.9,0,1.1l-0.3,0.2c-0.6,0.4-1.2,0.8-1.8,1.2c-4,2.4-8.3,4.4-12.8,6c-3,1.1-6.1,2-9.4,2.7
		c-3.1,0.7-6.2-0.1-8.6-2.2c-2.3-1.9-4.4-4-6.4-6.2c-0.4-0.4-0.4-1,0-1.4C18.7,65,18.8,65,18.8,64.9z">
  </path>
  <path class="st1" d="M55.2,11.5c0.8-0.5,1.5-1,2.2-1.5c0.5-0.3,0.6-0.9,0.3-1.4c0,0-0.1-0.1-0.1-0.1c-2-2.2-4.2-4.2-6.4-6.2
		c-2.4-2-5.6-2.8-8.6-2.1c-3.2,0.7-6.4,1.6-9.4,2.7c-4.4,1.6-8.7,3.6-12.8,6c-0.6,0.4-1.2,0.8-1.8,1.2l-0.3,0.2
		c-0.4,0.3-0.4,0.9,0,1.1C29.7,18.4,43.9,18.4,55.2,11.5z M11.5,20.4c-0.5-0.8-1-1.5-1.5-2.3c-0.3-0.5-0.9-0.6-1.4-0.3
		c0,0-0.1,0.1-0.1,0.1c-2.2,2-4.2,4.2-6.2,6.4c-2,2.4-2.8,5.6-2.1,8.6c0.7,3.2,1.6,6.3,2.7,9.4c1.6,4.4,3.6,8.7,6,12.8
		c0.4,0.6,0.8,1.2,1.2,1.9l0.2,0.3c0.3,0.4,0.9,0.4,1.1,0C18.3,46.1,18.3,31.8,11.5,20.4z M65.6,57.6c-8.2-11.6-8.8-27.1-1.4-39.3
		c0.2-0.3,0.6-0.4,0.9-0.2c0.1,0.1,0.2,0.1,0.2,0.2l0.2,0.3c0.4,0.6,0.8,1.2,1.2,1.9c2.4,4.1,4.4,8.3,6,12.8c1.1,3.1,2,6.2,2.7,9.4
		c0.7,3.1-0.1,6.3-2.1,8.6c-1.9,2.3-4,4.4-6.1,6.4c-0.4,0.4-1,0.4-1.4,0C65.6,57.7,65.6,57.7,65.6,57.6z">
  </path>
 </g>
</svg>