<?xml version="1.0" encoding="UTF-8"?>
<svg width="104px" height="135px" viewBox="0 0 104 135" version="1.1" xmlns="http://www.w3.org/2000/svg" xmlns:xlink="http://www.w3.org/1999/xlink">
    <title>22DF9AED-2B69-4219-9962-05EE2516A253</title>
    <defs>
        <path d="M57.2061541,5.50436946 L101.616831,31.5723032 C102.99336,32.3802908 103.838877,33.8569993 103.838877,35.4531438 L103.838877,117.558432 C103.838877,118.386859 103.167304,119.058432 102.338877,119.058432 C102.071914,119.058432 101.809789,118.987185 101.579559,118.852045 L57.1688816,92.7841116 C55.7923522,91.976124 54.9468359,90.4994155 54.9468359,88.903271 L54.9468359,6.797983 C54.9468359,5.96955587 55.6184088,5.297983 56.4468359,5.297983 C56.7137981,5.297983 56.9759235,5.36922997 57.2061541,5.50436946 Z" id="path-1"></path>
        <mask id="mask-2" maskContentUnits="userSpaceOnUse" maskUnits="objectBoundingBox" x="0" y="0" width="48.8920407" height="116" fill="white">
            <use xlink:href="#path-1"></use>
        </mask>
        <linearGradient x1="58.9180433%" y1="34.0445055%" x2="41.0819567%" y2="69.1768428%" id="linearGradient-3">
            <stop stop-color="#CFD6FF" offset="0%"></stop>
            <stop stop-color="#8B99F0" offset="51.9717525%"></stop>
            <stop stop-color="#8B99F0" offset="100%"></stop>
        </linearGradient>
        <path d="M30.1981054,1.763796 L80.8118793,31.4133609 C82.649807,32.4900195 83.779129,34.4604029 83.779129,36.5904668 L83.779129,130.510502 C83.779129,131.615072 82.8836985,132.510502 81.779129,132.510502 C81.4237722,132.510502 81.0748322,132.415822 80.7682122,132.236204 L30.1544383,102.586639 C28.3165106,101.509981 27.1871886,99.5395971 27.1871886,97.4095332 L27.1871886,3.48949797 C27.1871886,2.38492847 28.0826191,1.48949797 29.1871886,1.48949797 C29.5425454,1.48949797 29.8914855,1.58417795 30.1981054,1.763796 Z" id="path-4"></path>
        <filter x="-60.8%" y="-23.9%" width="221.6%" height="147.8%" filterUnits="objectBoundingBox" id="filter-5">
            <feGaussianBlur stdDeviation="5.625" in="SourceGraphic"></feGaussianBlur>
        </filter>
        <linearGradient x1="50%" y1="93.35016%" x2="37.4068486%" y2="-23.8116296%" id="linearGradient-6">
            <stop stop-color="#CFD6FF" offset="0%"></stop>
            <stop stop-color="#8B99F0" offset="44.9882027%"></stop>
            <stop stop-color="#2A3DB2" offset="52.247801%"></stop>
            <stop stop-color="#8B99F0" offset="57.3848271%"></stop>
            <stop stop-color="#8B99F0" offset="100%"></stop>
        </linearGradient>
        <path d="M14.2084112,28.4973012 L14.2107114,28.6061114 C14.2241453,28.605356 14.2376285,28.6047763 14.251159,28.6043746 C14.5414615,28.5957556 14.8280232,28.6715988 15.0760543,28.8226963 L36.0790814,41.6174866 C37.4197898,42.4342299 38.2379399,43.8906451 38.2379399,45.4605396 L38.2379399,90.5009717 C38.2379399,91.3293988 37.566367,92.0009717 36.7379399,92.0009717 L36.7355354,92.0003012 L36.7349727,92.1490484 L26.2850673,92.1490484 L26.2849921,92.1384197 C27.1106187,92.1351388 27.7789036,91.4648285 27.7789036,90.6384318 L27.7789036,90.6384318 L27.7789036,46.2577651 C27.7789036,44.6616206 26.9333874,43.1849121 25.5568579,42.3769244 L25.5568579,42.3769244 L2.2733229,28.7100837 C2.0430923,28.5749443 1.78096697,28.5036973 1.51400478,28.5036973 C1.49505383,28.5036973 1.47618497,28.5040487 1.45740435,28.5047454 L1.45853538,28.4973012 L14.2084112,28.4973012 Z" id="path-7"></path>
    </defs>
    <g id="Home" stroke="none" stroke-width="1" fill="none" fill-rule="evenodd">
        <g id="new-home-page-" transform="translate(-805.000000, -274.000000)">
            <g id="services" transform="translate(805.000000, 274.821793)">
                <use id="Rectangle-Copy-23" stroke="#5567D5" mask="url(#mask-2)" stroke-width="1.5" fill-opacity="0.8" fill="#FFFFFF" opacity="0.599999964" stroke-dasharray="1.5,3" xlink:href="#path-1"></use>
                <g id="Rectangle" opacity="0.850714">
                    <use fill="url(#linearGradient-3)" xlink:href="#path-4"></use>
                    <use fill-opacity="0.6" fill="#FFFFFF" xlink:href="#path-4"></use>
                </g>
                <path d="M23.1773908,28.7100837 L46.4609258,42.3769244 C47.8374552,43.1849121 48.6829715,44.6616206 48.6829715,46.2577651 L48.6829715,90.6384318 C48.6829715,91.4668589 48.0113986,92.1384318 47.1829715,92.1384318 C46.9160093,92.1384318 46.6538839,92.0671848 46.4236533,91.9320453 L23.1401183,78.2652046 C21.7635889,77.457217 20.9180727,75.9805085 20.9180727,74.384364 L20.9180727,30.0036973 C20.9180727,29.1752702 21.5896455,28.5036973 22.4180727,28.5036973 C22.6850349,28.5036973 22.9471602,28.5749443 23.1773908,28.7100837 Z" id="Rectangle-Copy-25" fill-opacity="0.523579097" fill="#747FBE" opacity="0.714278448" style="mix-blend-mode: multiply;" filter="url(#filter-5)"></path>
                <g id="Combined-Shape" opacity="0.904082">
                    <use fill="url(#linearGradient-6)" xlink:href="#path-7"></use>
                    <use fill-opacity="0.8" fill="#FFFFFF" xlink:href="#path-7"></use>
                </g>
                <path d="M2.25931812,28.7100837 L25.5428532,42.3769244 C26.9193826,43.1849121 27.7648988,44.6616206 27.7648988,46.2577651 L27.7648988,90.6384318 C27.7648988,91.4668589 27.0933259,92.1384318 26.2648988,92.1384318 C25.9979366,92.1384318 25.7358113,92.0671848 25.5055807,91.9320453 L2.22204563,78.2652046 C0.845516227,77.457217 -1.58088552e-15,75.9805085 0,74.384364 L0,30.0036973 C5.64680752e-16,29.1752702 0.671572875,28.5036973 1.5,28.5036973 C1.76696219,28.5036973 2.02908752,28.5749443 2.25931812,28.7100837 Z" id="Rectangle-Copy-24" fill="#5567D5" opacity="0.690581549"></path>
            </g>
        </g>
    </g>
</svg>
