<svg xmlns="http://www.w3.org/2000/svg" viewBox="0 0 200 200">
  <defs>
    <linearGradient id="lockGrad" x1="0" y1="35" x2="0" y2="158" gradientUnits="userSpaceOnUse">
      <stop offset="0%" stop-color="#F47840"/>
      <stop offset="100%" stop-color="#CC3010"/>
    </linearGradient>
    <clipPath id="bgClip">
      <rect width="200" height="200" rx="28"/>
    </clipPath>
  </defs>
  <rect width="200" height="200" rx="28" fill="#F0622A"/>
  <g clip-path="url(#bgClip)" fill="none" stroke="#D85020" stroke-width="2.5" opacity="0.4">
    <circle cx="10" cy="10" r="32"/>
    <circle cx="10" cy="10" r="55"/>
    <circle cx="10" cy="10" r="78"/>
    <circle cx="10" cy="10" r="101"/>
    <circle cx="10" cy="10" r="124"/>
    <circle cx="10" cy="10" r="147"/>
    <circle cx="190" cy="190" r="32"/>
    <circle cx="190" cy="190" r="55"/>
    <circle cx="190" cy="190" r="78"/>
    <circle cx="190" cy="190" r="101"/>
    <circle cx="190" cy="190" r="124"/>
    <circle cx="190" cy="190" r="147"/>
    <circle cx="190" cy="10" r="42"/>
    <circle cx="190" cy="10" r="65"/>
    <circle cx="190" cy="10" r="88"/>
    <circle cx="10" cy="190" r="42"/>
    <circle cx="10" cy="190" r="65"/>
    <circle cx="10" cy="190" r="88"/>
  </g>
  <rect x="16" y="16" width="168" height="168" rx="10" fill="white"/>
  <rect x="8"   y="90" width="14" height="20" fill="#F0622A"/>
  <rect x="178" y="90" width="14" height="20" fill="#F0622A"/>
  <path d="M 78 100 L 78 66 A 22 22 0 0 1 122 66 L 122 100"
        fill="none" stroke="url(#lockGrad)" stroke-width="22" stroke-linecap="butt"/>
  <rect x="52" y="88" width="96" height="70" rx="12" fill="url(#lockGrad)"/>
  <circle cx="100" cy="117" r="10" fill="white"/>
  <rect x="95.5" y="117" width="9" height="16" rx="4.5" fill="white"/>
  <rect x="30" y="148" width="140" height="30" rx="7" fill="white" stroke="#E04020" stroke-width="1.5"/>
  <text x="58"  y="163" text-anchor="middle" dominant-baseline="central" font-family="Arial, Helvetica, sans-serif" font-size="24" font-weight="900" fill="#E04020">*</text>
  <text x="86"  y="163" text-anchor="middle" dominant-baseline="central" font-family="Arial, Helvetica, sans-serif" font-size="24" font-weight="900" fill="#E04020">*</text>
  <text x="114" y="163" text-anchor="middle" dominant-baseline="central" font-family="Arial, Helvetica, sans-serif" font-size="24" font-weight="900" fill="#E04020">*</text>
  <text x="142" y="163" text-anchor="middle" dominant-baseline="central" font-family="Arial, Helvetica, sans-serif" font-size="24" font-weight="900" fill="#E04020">*</text>
</svg>
