<svg xmlns="http://www.w3.org/2000/svg" width="80.929" height="72.926" viewBox="0 0 80.929 72.926">
  <g id="authentication" transform="translate(-173.999 -516)">
    <path id="Subtraction_6" data-name="Subtraction 6" d="M-31.893,32h-.679l.679-.679V32ZM-57,32h-45.894V22.617A41.768,41.768,0,0,1-87.563,10.555,47.735,47.735,0,0,1-77.64,7.189,50.682,50.682,0,0,1-66.684,6,50.842,50.842,0,0,1-56.344,7.056c.934.194,1.874.419,2.793.668L-67.414,21.586-57,32ZM-66.893-2A17.882,17.882,0,0,1-79.621-7.272,17.885,17.885,0,0,1-84.893-20a17.882,17.882,0,0,1,5.272-12.728A17.882,17.882,0,0,1-66.893-38a17.879,17.879,0,0,1,12.728,5.272A17.879,17.879,0,0,1-48.893-20,17.882,17.882,0,0,1-54.166-7.272,17.879,17.879,0,0,1-66.893-2Z" transform="translate(276.893 554)" fill="#ed5d2b"/>
    <path id="Path_2541" data-name="Path 2541" d="M218.276,573.657l12.44,12.44,22.8-22.8" fill="none" stroke="#ed5d2b" stroke-width="4"/>
  </g>
</svg>
