<svg xmlns="http://www.w3.org/2000/svg" width="84.001" height="45.085" viewBox="0 0 84.001 45.085">
  <g id="identity-federation" transform="translate(-72 -189)">
    <path id="XMLID_4_" d="M34.586,118.5a21.624,21.624,0,0,0-21.574,20.8h-.771a12.141,12.141,0,0,0,0,24.281h64.1a7.76,7.76,0,1,0,0-15.52,3.536,3.536,0,0,0-1.165.131v-.263A14.732,14.732,0,0,0,60.443,133.2a13.03,13.03,0,0,0-5.037.9,21.585,21.585,0,0,0-20.82-15.6Z" transform="translate(71.9 70.5)" fill="#ed5d2b"/>
    <g id="Group_721" data-name="Group 721" transform="translate(-3)">
      <rect id="Rectangle_33" data-name="Rectangle 33" width="8" height="19" transform="translate(106 205)" fill="#fff"/>
      <path id="Polygon_3" data-name="Polygon 3" d="M8,0l8,11H0Z" transform="translate(118 230) rotate(180)" fill="#fff"/>
    </g>
  </g>
</svg>
