<!--
 * Copyright (c) 2021, WSO2 Inc. (http://www.wso2.org) All Rights Reserved.
 *
 * WSO2 Inc. licenses this file to you under the Apache License,
 * Version 2.0 (the "License"); you may not use this file except
 * in compliance with the License.
 * You may obtain a copy of the License at
 *
 * http://www.apache.org/licenses/LICENSE-2.0
 *
 * Unless required by applicable law or agreed to in writing,
 * software distributed under the License is distributed on an
 * "AS IS" BASIS, WITHOUT WARRANTIES OR CONDITIONS OF ANY
 * KIND, either express or implied. See the License for the
 * specific language governing permissions and limitations
 * under the License.
-->

<svg xmlns="http://www.w3.org/2000/svg" width="24" height="23.999" viewBox="0 0 24 23.999">
  <g id="admin" transform="translate(0 -0.001)">
    <g id="Group_575" data-name="Group 575">
      <path id="Path_1865" data-name="Path 1865" d="M8.5,1.05v9H.85V4.2a.451.451,0,0,1,.288-.423l7.2-2.7A.51.51,0,0,1,8.5,1.05Z" fill="#9d9d9d"/>
    </g>
    <g id="Group_576" data-name="Group 576">
      <path id="Path_1866" data-name="Path 1866" d="M16.15,4.2v5.85H8.5v-9a.51.51,0,0,1,.162.027l7.2,2.7a.451.451,0,0,1,.288.423Z" fill="#fff"/>
    </g>
    <g id="Group_577" data-name="Group 577">
      <path id="Path_1867" data-name="Path 1867" d="M16.15,10.05A10.052,10.052,0,0,1,8.6,19.941a.369.369,0,0,1-.1.009v-9.9Z" fill="#9d9d9d"/>
    </g>
    <g id="Group_578" data-name="Group 578">
      <path id="Path_1868" data-name="Path 1868" d="M8.5,10.05v9.9a.369.369,0,0,1-.1-.009A10.052,10.052,0,0,1,.85,10.05Z" fill="#fff"/>
    </g>
    <g id="Group_581" data-name="Group 581">
      <path id="Path_1871" data-name="Path 1871" d="M20,19a2,2,0,1,1,2-2A2,2,0,0,1,20,19Zm0-2.5a.5.5,0,1,0,.5.5A.5.5,0,0,0,20,16.5Z"/>
    </g>
    <g id="Group_582" data-name="Group 582">
      <path id="Path_1872" data-name="Path 1872" d="M23.25,24a.75.75,0,0,1-.75-.75v-.5a1.252,1.252,0,0,0-1.25-1.25h-2.5a1.252,1.252,0,0,0-1.25,1.25v.5a.75.75,0,0,1-1.5,0v-.5A2.752,2.752,0,0,1,18.75,20h2.5A2.752,2.752,0,0,1,24,22.75v.5A.75.75,0,0,1,23.25,24Z"/>
    </g>
    <g id="Group_583" data-name="Group 583">
      <path id="Path_1873" data-name="Path 1873" d="M8.5,21a.762.762,0,0,1-.143-.014A10.891,10.891,0,0,1,0,9.929V3.75a.749.749,0,0,1,.479-.7l7.75-3a.753.753,0,0,1,.541,0l7.75,3a.748.748,0,0,1,.48.7V9.929A10.894,10.894,0,0,1,8.643,20.987.855.855,0,0,1,8.5,21ZM1.5,4.264V9.929c0,7.563,5.959,9.307,7,9.554,1.035-.251,7-2.021,7-9.554V4.264l-7-2.709Z"/>
    </g>
  </g>
</svg>
