<!--
 * Copyright (c) 2021, WSO2 Inc. (http://www.wso2.org) All Rights Reserved.
 *
 * WSO2 Inc. licenses this file to you under the Apache License,
 * Version 2.0 (the "License"); you may not use this file except
 * in compliance with the License.
 * You may obtain a copy of the License at
 *
 * http://www.apache.org/licenses/LICENSE-2.0
 *
 * Unless required by applicable law or agreed to in writing,
 * software distributed under the License is distributed on an
 * "AS IS" BASIS, WITHOUT WARRANTIES OR CONDITIONS OF ANY
 * KIND, either express or implied. See the License for the
 * specific language governing permissions and limitations
 * under the License.
-->

<svg xmlns="http://www.w3.org/2000/svg" width="22.319" height="22.319" viewBox="0 0 22.319 22.319">
  <g id="Outline" transform="translate(-2 -1.999)">
    <path id="Path_1878" data-name="Path 1878" d="M23.575,9.067a1.116,1.116,0,0,0-1.116-1.116H19.111a5.954,5.954,0,0,0-.037-.65c-.009-.08-.025-.157-.037-.237-.02-.131-.04-.26-.068-.39-.021-.1-.048-.191-.074-.286s-.059-.212-.094-.316-.071-.2-.112-.3-.077-.186-.119-.28-.09-.2-.141-.292-.1-.186-.158-.277-.1-.172-.155-.255c-.1-.146-.2-.286-.311-.423-.019-.023-.034-.048-.053-.071a6.032,6.032,0,0,0-.446-.484l-.062-.056q-.214-.2-.446-.384c-.012-.009-.023-.02-.035-.03l-.218-.166-.005,0A5.934,5.934,0,0,0,7.835,5.3l-.006,0-.074.156c0,.009-.007.019-.011.028q-.117.256-.209.523c-.008.023-.017.046-.025.069-.057.17-.1.343-.145.521-.008.032-.018.064-.025.1-.037.166-.062.335-.083.506,0,.04-.014.079-.018.119a6.052,6.052,0,0,0-.03.628H3.86A1.116,1.116,0,0,0,2.744,9.067V22.086H2V23.2a1.116,1.116,0,0,0,1.116,1.116H23.2A1.116,1.116,0,0,0,24.319,23.2V22.086h-.744ZM7.978,7.43a5.155,5.155,0,0,1,.383-1.494,2.31,2.31,0,0,1,2.332.914l.175.245A2.3,2.3,0,0,1,11.3,8.439a3.058,3.058,0,0,0,1.815,2.792h0a2.907,2.907,0,0,1,1.559,1.7c-.114.037-.229.065-.344.092l-.034.009c-.082.019-.165.032-.247.047s-.161.027-.243.037c-.062.008-.123.015-.186.021-.152.013-.305.023-.461.023A5.213,5.213,0,0,1,7.952,7.951C7.952,7.775,7.961,7.6,7.978,7.43ZM13.159,13.9c.188,0,.375-.01.561-.028.107-.01.211-.028.315-.044.074-.011.146-.02.219-.034.14-.026.276-.06.413-.1l.1-.027c.149-.042.3-.091.44-.144l.048-.016.174-.066.045-.017.082-.031,0-.008a5.98,5.98,0,0,0,2.96-2.87l.008,0,.054-.121c0-.008.006-.016.009-.024.029-.064.057-.128.083-.192h2.67V20.6H4.976V10.183h2.67a5.958,5.958,0,0,0,5.513,3.72Zm4.8-3.929-.513.256a1.148,1.148,0,0,1-1.085-.03l-.166-.094a1.151,1.151,0,0,1-.243-1.813,1.9,1.9,0,0,0,.305-2.279l-.23-.4a1.148,1.148,0,0,1,.33-1.507l.17-.122a5.3,5.3,0,0,1,.387.365c.032.033.062.068.093.1q.128.139.245.287.068.086.131.176c.058.079.112.16.165.242s.093.149.137.223.081.149.119.223.085.169.123.256.062.149.091.227.069.177.1.268.048.169.071.254.048.171.067.26c.022.106.037.213.053.321.01.071.025.14.032.212a5.3,5.3,0,0,1,.031.551,5.175,5.175,0,0,1-.412,2.022Zm-4.8-7.23a5.167,5.167,0,0,1,2.733.783,1.887,1.887,0,0,0-.514,2.455l.228.4a1.153,1.153,0,0,1-.186,1.384,1.895,1.895,0,0,0,.4,2.984l.166.095a1.875,1.875,0,0,0,1.348.2,5.23,5.23,0,0,1-1.969,1.611,3.654,3.654,0,0,0-1.95-2.109h0a2.314,2.314,0,0,1-1.373-2.112,3.038,3.038,0,0,0-.569-1.776L11.3,6.418A3.05,3.05,0,0,0,8.773,5.156a5.2,5.2,0,0,1,4.386-2.412ZM3.488,9.067a.372.372,0,0,1,.372-.372h3.4a5.855,5.855,0,0,0,.144.744H4.232v11.9H22.087V9.439H18.915c.016-.06.033-.119.046-.18.005-.023.013-.045.018-.068.035-.163.059-.328.08-.5h3.4a.372.372,0,0,1,.372.372V22.086H3.488ZM23.575,23.2a.372.372,0,0,1-.372.372H3.116a.372.372,0,0,1-.372-.372V22.83H23.575Z" transform="translate(0 0)"/>
    <path id="Path_1879" data-name="Path 1879" d="M25.379,41.5h2.976V40.011h1.553l-3.041-3.548-3.041,3.548h1.553Zm1.488-3.892,1.423,1.66h-.679v1.488H26.123V39.267h-.679Z" transform="translate(-13.707 -21.644)"/>
  </g>
</svg>
