<!--
 * Copyright (c) 2021, WSO2 Inc. (http://www.wso2.org) All Rights Reserved.
 *
 * WSO2 Inc. licenses this file to you under the Apache License,
 * Version 2.0 (the "License"); you may not use this file except
 * in compliance with the License.
 * You may obtain a copy of the License at
 *
 * http://www.apache.org/licenses/LICENSE-2.0
 *
 * Unless required by applicable law or agreed to in writing,
 * software distributed under the License is distributed on an
 * "AS IS" BASIS, WITHOUT WARRANTIES OR CONDITIONS OF ANY
 * KIND, either express or implied. See the License for the
 * specific language governing permissions and limitations
 * under the License.
-->

<svg xmlns="http://www.w3.org/2000/svg" width="16.721" height="20.983" viewBox="0 0 16.721 20.983">
  <g id="padlock_4_" data-name="padlock (4)" transform="translate(-52)">
    <g id="Group_585" data-name="Group 585" transform="translate(52)">
      <g id="Group_584" data-name="Group 584" transform="translate(0)">
        <path id="Path_1874" data-name="Path 1874" d="M66.262,7.7H64.785V4.335a4.427,4.427,0,0,0-8.852,0V7.7H54.459A2.462,2.462,0,0,0,52,10.164v8.361a2.462,2.462,0,0,0,2.459,2.459h11.8a2.462,2.462,0,0,0,2.459-2.459V10.164A2.462,2.462,0,0,0,66.262,7.7Zm-8.69-3.37a2.788,2.788,0,0,1,5.574,0V7.7H57.572Zm9.51,14.19a.821.821,0,0,1-.82.82h-11.8a.821.821,0,0,1-.82-.82V10.164a.821.821,0,0,1,.82-.82h11.8a.821.821,0,0,1,.82.82Z" transform="translate(-52 0)"/>
      </g>
    </g>
    <g id="Group_587" data-name="Group 587" transform="translate(58.844 11.721)">
      <g id="Group_586" data-name="Group 586" transform="translate(0)">
        <path id="Path_1875" data-name="Path 1875" d="M220.516,286a1.516,1.516,0,0,0-.821,2.791v1.8a.82.82,0,0,0,1.639,0v-1.8a1.516,1.516,0,0,0-.818-2.793Z" transform="translate(-219 -286)"/>
      </g>
    </g>
  </g>
</svg>
