<svg xmlns="http://www.w3.org/2000/svg" width="180" height="70">

<svg x="0" y="0" xmlns="http://www.w3.org/2000/svg" width="64" height="64" viewBox="0 0 32 32"><path d="M11.622 24.74s-1.23.748.855.962c2.51.32 3.847.267 6.625-.267a10.02 10.02 0 0 0 1.763.855c-6.25 2.672-14.16-.16-9.244-1.55zm-.8-3.473s-1.336 1.015.748 1.23c2.725.267 4.862.32 8.55-.427a3.26 3.26 0 0 0 1.282.801c-7.534 2.244-15.976.214-10.58-1.603zm14.747 6.09s.908.748-1.015 1.336c-3.58 1.07-15.014 1.39-18.22 0-1.122-.48 1.015-1.175 1.7-1.282.695-.16 1.07-.16 1.07-.16-1.23-.855-8.175 1.763-3.526 2.51 12.77 2.084 23.296-.908 19.983-2.404zM12.2 17.633s-5.824 1.39-2.084 1.87c1.603.214 4.755.16 7.694-.053 2.404-.214 4.81-.64 4.81-.64s-.855.374-1.443.748c-5.93 1.55-17.312.855-14.052-.748 2.778-1.336 5.076-1.175 5.076-1.175zm10.42 5.824c5.984-3.1 3.206-6.09 1.282-5.717-.48.107-.695.214-.695.214s.16-.32.534-.427c3.794-1.336 6.786 4.007-1.23 6.09 0 0 .053-.053.107-.16zm-9.83 8.442c5.77.374 14.587-.214 14.8-2.94 0 0-.427 1.07-4.755 1.87-4.916.908-11.007.8-14.587.214 0 0 .748.64 4.542.855z" fill="#4e7896"/><path d="M18.996.001s3.313 3.366-3.152 8.442c-5.183 4.114-1.175 6.465 0 9.137-3.046-2.725-5.236-5.13-3.74-7.373C14.294 6.893 20.332 5.3 18.996.001zm-1.7 15.335c1.55 1.763-.427 3.366-.427 3.366s3.954-2.03 2.137-4.542c-1.656-2.404-2.94-3.58 4.007-7.587 0 0-10.953 2.725-5.717 8.763z" fill="#f58219"/></svg>


<svg x="80" y="0" xmlns="http://www.w3.org/2000/svg" width="100" height="64"><path d="m70.6 26.7h-3.8l-5.5 16.9-5.3-16.9h-6.4v21.1h3.8v-16.5l5.5 16.5h4.8l5.5-16.6v16.6h3.8v-21.1zm-27.7 21.1h4.6l-9.4-21.1h-4.4l-9 21.1h4.8l2-5.1h9.3zm-9.9-8.9 3.1-8 3.2 8zm-11.5-3.2c-.6-.3-1-.3-1.5-.3h-8.7c-1.1-.1-1.3-.3-1.3-.3s-.8-.4-.7-2.4 2-2.3 2-2.3h12.3v-3.8h-14.8s-4.5 1.8-4.5 6.9c0 4.4 3.1 5.4 3.9 5.6h8.8c2 0 2.1.3 2.1.3s.8.4.7 2.4c0 2-2 2.3-2 2.3h-12.7v3.9h14.8s4.5-1.8 4.5-6.9c.2-3.6-1.7-4.8-2.9-5.4zm61.4 8.6s-2.8 0-2.8-4.2v-13.4h-3.8v13.4s-.8 7.7 6.1 8h8.5v-3.8z" fill="#c32527"/></svg>

</svg>
