<svg xmlns="http://www.w3.org/2000/svg" width="69.652" height="73.865" viewBox="0 0 69.652 73.865">
  <g id="_Tenant_Management" data-name=" Tenant Management" transform="translate(-181 -406.773)">
    <path id="Subtraction_3" data-name="Subtraction 3" d="M17.28,80.227H-14V74.875h5.352V16H39.523V50.25c-.331-.015-.675-.023-1.022-.023a22.457,22.457,0,0,0-15.035,5.76V53.465H18.113v5.352h2.7A22.538,22.538,0,0,0,17.28,80.226ZM4.733,66.847v10.7h8.028v-10.7ZM7.409,53.465v5.352h5.352V53.465Zm-10.7,0v5.352H2.057V53.465Zm32.114-10.7v5.352H34.17V42.761Zm-10.7,0v5.352h5.352V42.761Zm-10.7,0v5.352h5.352V42.761Zm-10.7,0v5.352H2.057V42.761Zm32.114-10.7v5.352H34.17V32.057Zm-10.7,0v5.352h5.352V32.057Zm-10.7,0v5.352h5.352V32.057Zm-10.7,0v5.352H2.057V32.057Zm32.114-10.7V26.7H34.17V21.352Zm-10.7,0V26.7h5.352V21.352Zm-10.7,0V26.7h5.352V21.352Zm-10.7,0V26.7H2.057V21.352Z" transform="translate(195 390.773)" fill="#ed5d2b"/>
    <g id="bcbe7017fc7aa9e9fde81f49e57e2e49" transform="translate(206.437 436.424)">
      <g id="Group_712" data-name="Group 712" transform="translate(10 10)">
        <g id="Group_711" data-name="Group 711">
          <path id="Path_2539" data-name="Path 2539" d="M40.852,23c-1.107,0-1.882-.276-2.074-.733s.164-1.2.943-1.983l1.99-1.99.391-.391-.391-.391L36.694,12.5l-.391-.391-.391.391-1.99,1.99c-.866.866-1.449.995-1.718.995a.662.662,0,0,1-.5-.206,2.644,2.644,0,0,1-.5-1.917.468.468,0,0,0,0-.07V10H23.008v3.373c0,.5-.077,2.112-1.005,2.112-.269,0-.848-.129-1.714-.995L18.3,12.5l-.391-.391-.391.391L12.5,17.517l-.391.391.391.391,1.99,1.99c.782.782,1.135,1.522.946,1.983s-.964.733-2.07.733H10v8.2h3.366c1.107,0,1.878.276,2.07.733s-.164,1.2-.946,1.987l-1.99,1.99-.391.391.391.391,5.017,5.017.391.391.391-.391,1.99-1.99c.866-.866,1.445-.995,1.714-.995.929,0,1.005,1.616,1.005,2.116v3.373H31.2v-3.3a.468.468,0,0,0,0-.07,2.652,2.652,0,0,1,.5-1.917.662.662,0,0,1,.5-.206c.269,0,.848.129,1.714.995l1.987,1.99.391.391.391-.391L41.7,36.694l.391-.391-.391-.391-1.99-1.99c-.782-.782-1.135-1.526-.943-1.987s.967-.733,2.074-.733h3.369V23.008H40.852Zm-6.019,4.1a7.726,7.726,0,1,1-7.726-7.726A7.736,7.736,0,0,1,34.833,27.107Z" transform="translate(-10 -10)" fill="#ed5d2b"/>
        </g>
      </g>
    </g>
  </g>
</svg>
