<svg xmlns="http://www.w3.org/2000/svg" width="81.214" height="82.638" viewBox="0 0 81.214 82.638">
  <g id="User_Management" data-name="User Management" transform="translate(-174 -516)">
    <g id="bcbe7017fc7aa9e9fde81f49e57e2e49" transform="translate(211 554.424)">
      <g id="Group_712" data-name="Group 712" transform="translate(10 10)">
        <g id="Group_711" data-name="Group 711">
          <path id="Path_2539" data-name="Path 2539" d="M40.852,23c-1.107,0-1.882-.276-2.074-.733s.164-1.2.943-1.983l1.99-1.99.391-.391-.391-.391L36.694,12.5l-.391-.391-.391.391-1.99,1.99c-.866.866-1.449.995-1.718.995a.662.662,0,0,1-.5-.206,2.644,2.644,0,0,1-.5-1.917.468.468,0,0,0,0-.07V10H23.008v3.373c0,.5-.077,2.112-1.005,2.112-.269,0-.848-.129-1.714-.995L18.3,12.5l-.391-.391-.391.391L12.5,17.517l-.391.391.391.391,1.99,1.99c.782.782,1.135,1.522.946,1.983s-.964.733-2.07.733H10v8.2h3.366c1.107,0,1.878.276,2.07.733s-.164,1.2-.946,1.987l-1.99,1.99-.391.391.391.391,5.017,5.017.391.391.391-.391,1.99-1.99c.866-.866,1.445-.995,1.714-.995.929,0,1.005,1.616,1.005,2.116v3.373H31.2v-3.3a.468.468,0,0,0,0-.07,2.652,2.652,0,0,1,.5-1.917.662.662,0,0,1,.5-.206c.269,0,.848.129,1.714.995l1.987,1.99.391.391.391-.391L41.7,36.694l.391-.391-.391-.391-1.99-1.99c-.782-.782-1.135-1.526-.943-1.987s.967-.733,2.074-.733h3.369V23.008H40.852Zm-6.019,4.1a7.726,7.726,0,1,1-7.726-7.726A7.736,7.736,0,0,1,34.833,27.107Z" transform="translate(-10 -10)" fill="#ed5d2b"/>
        </g>
      </g>
    </g>
    <path id="Subtraction_4" data-name="Subtraction 4" d="M24.45,86H-14V76.617A41.768,41.768,0,0,1,1.33,64.555a47.756,47.756,0,0,1,9.923-3.366,50.969,50.969,0,0,1,24.369.611A22.539,22.539,0,0,0,24.45,86ZM22,52a18,18,0,1,1,12.728-5.272A17.882,17.882,0,0,1,22,52Z" transform="translate(188 500)" fill="#ed5d2b"/>
  </g>
</svg>
