<svg xmlns="http://www.w3.org/2000/svg" width="23.617" height="23.605" viewBox="0 0 23.617 23.605">
  <g id="XMLID_1583_" transform="translate(-0.001 -0.128)">
    <g id="XMLID_1007_" transform="translate(0.001 0.128)">
      <path id="XMLID_1090_" d="M19.1,8.591A2.462,2.462,0,0,0,16.686,4.4L14.729,1.013a1.769,1.769,0,0,0-3.177,1.534L8.894,5a.461.461,0,0,0,.626.678l2.492-2.3,5.641,9.771-10.584,3.3-3.2-5.55,2.6-2.4a.461.461,0,0,0-.626-.678l-2.6,2.4a1.631,1.631,0,0,0-.435-.187A1.625,1.625,0,0,0,.983,12.407l.212.367a2.934,2.934,0,0,0,1.742,5.3,2.9,2.9,0,0,0,1.172-.248l.212.366a1.614,1.614,0,0,0,.987.757A1.634,1.634,0,0,0,5.73,19a1.627,1.627,0,0,0,1.338-.708l2.878,4.985a.911.911,0,0,0,1.244.333l2.124-1.226a.91.91,0,0,0,.133-1.483L11.9,19.594l-1.8-3.125,8.044-2.506a1.768,1.768,0,0,0,2.917-1.984ZM2.412,17.077a2.01,2.01,0,0,1-.752-3.5l1.984,3.436a2,2,0,0,1-1.231.061Zm3.993.48a.7.7,0,0,1-1.286.169L1.782,11.946a.7.7,0,0,1,.607-1.054.707.707,0,0,1,.183.024A.7.7,0,0,1,3,11.244l3.337,5.781A.7.7,0,0,1,6.406,17.557Zm4.739,2.568a.462.462,0,0,0,.1.121l1.591,1.349-2.1,1.211-3.2-5.54L9.2,16.751ZM18.829,5.958a1.542,1.542,0,0,1-.2,1.811L17.161,5.225A1.542,1.542,0,0,1,18.829,5.958Zm1.518,7.126a.846.846,0,0,1-1.55.2L12.465,2.321a.846.846,0,1,1,1.466-.846l6.332,10.967a.841.841,0,0,1,.085.642Z" transform="translate(-0.001 -0.128)"/>
      <path id="XMLID_1243_" d="M442.089,74.093a.459.459,0,0,0,.23-.062l1.558-.9a.461.461,0,0,0-.461-.8l-1.558.9a.461.461,0,0,0,.231.861Z" transform="translate(-421.256 -68.943)"/>
      <path id="XMLID_1251_" d="M393.066,11.165a.461.461,0,0,0,.565-.326l.477-1.78a.461.461,0,0,0-.891-.239l-.477,1.78A.461.461,0,0,0,393.066,11.165Z" transform="translate(-374.608 -8.092)"/>
      <path id="XMLID_1308_" d="M457.409,157.044l-1.7-.455a.461.461,0,1,0-.239.891l1.7.455a.461.461,0,1,0,.239-.891Z" transform="translate(-434.135 -149.356)"/>
      <path id="XMLID_1362_" d="M156.96,134.564a.461.461,0,1,0-.326-.135A.465.465,0,0,0,156.96,134.564Z" transform="translate(-149.28 -127.482)"/>
    </g>
  </g>
</svg>
