<svg xmlns="http://www.w3.org/2000/svg" width="23.184" height="20.195" viewBox="0 0 23.184 20.195">
  <g id="customer" transform="translate(0 -33)">
    <path id="Path_1861" data-name="Path 1861" d="M172.939,40.879A3.939,3.939,0,1,0,169,36.939,3.944,3.944,0,0,0,172.939,40.879Zm0-6.52a2.581,2.581,0,1,1-2.581,2.581A2.584,2.584,0,0,1,172.939,34.358Z" transform="translate(-161.348)"/>
    <path id="Path_1862" data-name="Path 1862" d="M379.49,101.981A2.49,2.49,0,1,0,377,99.49,2.493,2.493,0,0,0,379.49,101.981Zm0-3.622a1.132,1.132,0,1,1-1.132,1.132A1.133,1.133,0,0,1,379.49,98.358Z" transform="translate(-359.929 -61.102)"/>
    <path id="Path_1863" data-name="Path 1863" d="M20.109,241H19.059a3.079,3.079,0,0,0-2.793,1.782A5.467,5.467,0,0,0,12.225,241H10.959a5.467,5.467,0,0,0-4.04,1.782A3.079,3.079,0,0,0,4.125,241H3.075A3.069,3.069,0,0,0,0,244.056V249a1.331,1.331,0,0,0,1.332,1.327H5.485a1.588,1.588,0,0,0,1.58,1.449h9.054a1.588,1.588,0,0,0,1.58-1.449H21.8a1.378,1.378,0,0,0,1.379-1.374v-4.9A3.069,3.069,0,0,0,20.109,241ZM1.358,244.056a1.709,1.709,0,0,1,1.716-1.7H4.125a1.709,1.709,0,0,1,1.716,1.7v.465c-.457,1.189-.362,1.9-.362,4.448H1.358Zm14.988,6.135a.228.228,0,0,1-.227.227H7.065a.228.228,0,0,1-.227-.227V246.48a4.126,4.126,0,0,1,4.121-4.122h1.266a4.126,4.126,0,0,1,4.122,4.121Zm5.479-1.237c0,.023.253.015-4.121.015,0-2.565.094-3.261-.362-4.448v-.465a1.709,1.709,0,0,1,1.716-1.7h1.051a1.709,1.709,0,0,1,1.716,1.7Z" transform="translate(0 -198.582)"/>
    <path id="Path_1864" data-name="Path 1864" d="M27.49,101.981A2.49,2.49,0,1,0,25,99.49,2.493,2.493,0,0,0,27.49,101.981Zm0-3.622a1.132,1.132,0,1,1-1.132,1.132A1.133,1.133,0,0,1,27.49,98.358Z" transform="translate(-23.868 -61.102)"/>
  </g>
</svg>
