<svg xmlns="http://www.w3.org/2000/svg" width="20.023" height="20.98" viewBox="0 0 20.023 20.98">
  <g id="setting" transform="translate(-0.548)">
    <path id="Path_1880" data-name="Path 1880" d="M12.013,20.98H9.105A1.5,1.5,0,0,1,7.636,19.8l-.369-1.637a8.03,8.03,0,0,1-1.708-.991l-1.593.5A1.519,1.519,0,0,1,2.2,16.986L.747,14.479a1.529,1.529,0,0,1,.281-1.866l1.234-1.135a8.681,8.681,0,0,1,0-1.976L1.034,8.373A1.526,1.526,0,0,1,.743,6.51L2.2,3.988a1.513,1.513,0,0,1,1.763-.683l1.595.5a8.052,8.052,0,0,1,1.708-.991l.369-1.638A1.5,1.5,0,0,1,9.105,0h2.908a1.5,1.5,0,0,1,1.47,1.179l.369,1.637a8.03,8.03,0,0,1,1.708.991l1.593-.5a1.517,1.517,0,0,1,1.769.689L20.371,6.5a1.529,1.529,0,0,1-.281,1.866L18.855,9.5a8.749,8.749,0,0,1,0,1.976l1.229,1.129.005.005a1.523,1.523,0,0,1,.286,1.858l-1.458,2.522a1.514,1.514,0,0,1-1.763.683l-1.6-.5a8.052,8.052,0,0,1-1.708.991L13.482,19.8a1.5,1.5,0,0,1-1.469,1.179ZM5.693,15.787a.66.66,0,0,1,.418.149,6.727,6.727,0,0,0,1.948,1.13.657.657,0,0,1,.413.471l.445,1.976a.2.2,0,0,0,.191.156h2.908a.2.2,0,0,0,.191-.155l.445-1.976a.655.655,0,0,1,.413-.471,6.746,6.746,0,0,0,1.948-1.13.653.653,0,0,1,.615-.12l1.924.608a.2.2,0,0,0,.232-.081l1.458-2.521a.212.212,0,0,0-.043-.253L17.72,12.213a.652.652,0,0,1-.2-.58A7.735,7.735,0,0,0,17.6,10.49a7.626,7.626,0,0,0-.087-1.143.656.656,0,0,1,.2-.58L19.2,7.407a.213.213,0,0,0,.035-.257L17.785,4.644a.2.2,0,0,0-.238-.087l-1.921.607a.653.653,0,0,1-.615-.12,6.727,6.727,0,0,0-1.948-1.13.657.657,0,0,1-.413-.471l-.445-1.976a.2.2,0,0,0-.193-.155H9.105a.2.2,0,0,0-.191.155L8.47,3.443a.656.656,0,0,1-.412.471A6.727,6.727,0,0,0,6.11,5.044a.655.655,0,0,1-.615.12L3.572,4.556a.2.2,0,0,0-.232.081L1.882,7.158a.213.213,0,0,0,.045.254L3.4,8.767a.652.652,0,0,1,.2.58,7.735,7.735,0,0,0-.087,1.143A7.626,7.626,0,0,0,3.6,11.633a.656.656,0,0,1-.2.58l-1.479,1.36a.213.213,0,0,0-.035.257l1.449,2.506a.2.2,0,0,0,.238.087L5.5,15.818a.638.638,0,0,1,.2-.031Z" transform="translate(0)"/>
    <path id="Path_1881" data-name="Path 1881" d="M11.156,14.994a.655.655,0,0,1-.64-.8l1.311-5.682a.655.655,0,1,1,1.277.294l-1.311,5.682A.654.654,0,0,1,11.156,14.994Z" transform="translate(-1.252 -1.007)"/>
    <path id="Path_1882" data-name="Path 1882" d="M15.156,14.245a.656.656,0,0,1-.439-1.143l1.644-1.479-1.644-1.479a.656.656,0,1,1,.878-.976l2.185,1.967a.657.657,0,0,1,0,.976l-2.185,1.967a.655.655,0,0,1-.439.168Z" transform="translate(-1.755 -1.132)"/>
    <path id="Path_1883" data-name="Path 1883" d="M8.341,14.245a.655.655,0,0,1-.439-.168L5.717,12.11a.657.657,0,0,1,0-.976L7.9,9.168a.656.656,0,1,1,.878.976L7.136,11.623,8.78,13.1a.656.656,0,0,1-.439,1.143Z" transform="translate(-0.623 -1.132)"/>
  </g>
</svg>
