<svg xmlns="http://www.w3.org/2000/svg" width="20.253" height="18.037" viewBox="0 0 20.253 18.037">
  <g id="tick_3_" data-name="tick (3)" transform="translate(-0.105 -2.962)">
    <g id="Group_543" data-name="Group 543">
      <g id="Group_542" data-name="Group 542">
        <g id="business-graphic-with-semicircles" transform="translate(0.105 -30.279)">
          <g id="Group_574" data-name="Group 574" transform="translate(0 33.241)">
            <path id="Path_1859" data-name="Path 1859" d="M101.235,104.014l-1.446.641.075.147a7.632,7.632,0,1,0,12.006-9.044l-.115-.107-1.064,1.141.115.107a6.074,6.074,0,1,1-8.286,8.884,5.819,5.819,0,0,1-1.218-1.636Z" transform="translate(-96.464 -93.571)"/>
            <path id="Path_1860" data-name="Path 1860" d="M18.693,41.152A8.567,8.567,0,1,1,4.85,34.423L3.821,33.241a10.122,10.122,0,1,0,16.432,7.911V41h-1.56v.157Z" transform="translate(0 -33.241)"/>
          </g>
        </g>
      </g>
    </g>
    <g id="keyhole-silhouette" transform="translate(1.408 6.94)">
      <path id="Path_1857" data-name="Path 1857" d="M11.029,1.993A1.992,1.992,0,0,1,10,3.736L11.143,8.12H7.107L8.29,3.843a1.994,1.994,0,1,1,2.74-1.849Z"/>
    </g>
  </g>
</svg>
